WD-XL_Lubrifont-TC.ufo
<glyph name="exclam" format="2">
  <advance width="196"/>
  <unicode hex="0021"/>
  <outline>
    <contour>
      <point x="93" y="151" type="line" smooth="yes"/>
      <point x="53" y="151"/>
      <point x="53" y="191" type="qcurve" smooth="yes"/>
      <point x="53" y="685" type="line" smooth="yes"/>
      <point x="53" y="725"/>
      <point x="93" y="725" type="qcurve" smooth="yes"/>
      <point x="103" y="725" type="line" smooth="yes"/>
      <point x="143" y="725"/>
      <point x="143" y="685" type="qcurve" smooth="yes"/>
      <point x="143" y="191" type="line" smooth="yes"/>
      <point x="143" y="151"/>
      <point x="103" y="151" type="qcurve" smooth="yes"/>
    </contour>
    <contour>
      <point x="57" y="16" type="line" smooth="yes"/>
      <point x="40" y="33"/>
      <point x="40" y="50" type="qcurve" smooth="yes"/>
      <point x="40" y="67"/>
      <point x="57" y="84" type="qcurve" smooth="yes"/>
      <point x="64" y="91" type="line" smooth="yes"/>
      <point x="81" y="108"/>
      <point x="98" y="108" type="qcurve" smooth="yes"/>
      <point x="115" y="108"/>
      <point x="132" y="91" type="qcurve" smooth="yes"/>
      <point x="139" y="84" type="line" smooth="yes"/>
      <point x="156" y="67"/>
      <point x="156" y="50" type="qcurve" smooth="yes"/>
      <point x="156" y="33"/>
      <point x="139" y="16" type="qcurve" smooth="yes"/>
      <point x="132" y="9" type="line" smooth="yes"/>
      <point x="115" y="-8"/>
      <point x="98" y="-8" type="qcurve" smooth="yes"/>
      <point x="81" y="-8"/>
      <point x="64" y="9" type="qcurve" smooth="yes"/>
    </contour>
  </outline>
</glyph>
<glyph name="quotedbl" format="2">
  <advance width="247"/>
  <unicode hex="0022"/>
  <outline>
    <contour>
      <point x="29" y="693" type="line"/>
      <point x="29" y="699" type="line" smooth="yes"/>
      <point x="29" y="717"/>
      <point x="48" y="740"/>
      <point x="68" y="740" type="qcurve" smooth="yes"/>
      <point x="87" y="740"/>
      <point x="107" y="716"/>
      <point x="107" y="699" type="qcurve" smooth="yes"/>
      <point x="107" y="692"/>
      <point x="104" y="655"/>
      <point x="100" y="613"/>
      <point x="95" y="577"/>
      <point x="93" y="572" type="qcurve" smooth="yes"/>
      <point x="90" y="565"/>
      <point x="77" y="554"/>
      <point x="69" y="554" type="qcurve" smooth="yes"/>
      <point x="60" y="554"/>
      <point x="49" y="564"/>
      <point x="46" y="571" type="qcurve" smooth="yes"/>
      <point x="41" y="583"/>
      <point x="39" y="597" type="qcurve"/>
    </contour>
    <contour>
      <point x="156" y="572" type="qcurve" smooth="yes"/>
      <point x="152" y="585"/>
      <point x="150" y="597" type="qcurve"/>
      <point x="141" y="693" type="line"/>
      <point x="141" y="699" type="line" smooth="yes"/>
      <point x="141" y="717"/>
      <point x="159" y="740"/>
      <point x="179" y="740" type="qcurve" smooth="yes"/>
      <point x="202" y="740"/>
      <point x="219" y="710"/>
      <point x="217" y="693" type="qcurve" smooth="yes"/>
      <point x="206" y="597" type="line"/>
      <point x="204" y="585"/>
      <point x="200" y="572" type="qcurve" smooth="yes"/>
      <point x="197" y="565"/>
      <point x="186" y="554"/>
      <point x="178" y="554" type="qcurve" smooth="yes"/>
      <point x="170" y="554"/>
      <point x="159" y="565"/>
    </contour>
  </outline>
</glyph>
<glyph name="numbersign" format="2">
  <advance width="615"/>
  <unicode hex="0023"/>
  <outline>
    <contour>
      <point x="60" y="-39" type="qcurve" smooth="yes"/>
      <point x="60" y="-32"/>
      <point x="61" y="-28" type="qcurve" smooth="yes"/>
      <point x="76" y="59" type="line" smooth="yes"/>
      <point x="77" y="65"/>
      <point x="77" y="74" type="qcurve" smooth="yes"/>
      <point x="77" y="102"/>
      <point x="56" y="102" type="qcurve" smooth="yes"/>
      <point x="28" y="102"/>
      <point x="28" y="142" type="qcurve" smooth="yes"/>
      <point x="28" y="157" type="line" smooth="yes"/>
      <point x="28" y="176"/>
      <point x="48" y="197"/>
      <point x="65" y="197" type="qcurve" smooth="yes"/>
      <point x="101" y="197"/>
      <point x="107" y="233" type="qcurve" smooth="yes"/>
      <point x="147" y="458" type="line" smooth="yes"/>
      <point x="148" y="462"/>
      <point x="148" y="469" type="qcurve" smooth="yes"/>
      <point x="148" y="485"/>
      <point x="128" y="501"/>
      <point x="111" y="501" type="qcurve" smooth="yes"/>
      <point x="93" y="501" type="line" smooth="yes"/>
      <point x="53" y="501"/>
      <point x="53" y="541" type="qcurve" smooth="yes"/>
      <point x="53" y="556" type="line" smooth="yes"/>
      <point x="53" y="596"/>
      <point x="93" y="596" type="qcurve" smooth="yes"/>
      <point x="135" y="596" type="line" smooth="yes"/>
      <point x="172" y="596"/>
      <point x="178" y="632" type="qcurve" smooth="yes"/>
      <point x="197" y="739" type="line" smooth="yes"/>
      <point x="203" y="775"/>
      <point x="240" y="775" type="qcurve" smooth="yes"/>
      <point x="261" y="775" type="line" smooth="yes"/>
      <point x="278" y="775"/>
      <point x="298" y="759"/>
      <point x="298" y="743" type="qcurve" smooth="yes"/>
      <point x="298" y="736"/>
      <point x="297" y="732" type="qcurve" smooth="yes"/>
      <point x="281" y="639" type="line" smooth="yes"/>
      <point x="280" y="635"/>
      <point x="280" y="628" type="qcurve" smooth="yes"/>
      <point x="280" y="612"/>
      <point x="300" y="596"/>
      <point x="317" y="596" type="qcurve" smooth="yes"/>
      <point x="363" y="596" type="line" smooth="yes"/>
      <point x="400" y="596"/>
      <point x="406" y="632" type="qcurve" smooth="yes"/>
      <point x="425" y="739" type="line" smooth="yes"/>
      <point x="431" y="775"/>
      <point x="468" y="775" type="qcurve" smooth="yes"/>
      <point x="489" y="775" type="line" smooth="yes"/>
      <point x="506" y="775"/>
      <point x="526" y="759"/>
      <point x="526" y="743" type="qcurve" smooth="yes"/>
      <point x="526" y="736"/>
      <point x="525" y="732" type="qcurve" smooth="yes"/>
      <point x="509" y="639" type="line" smooth="yes"/>
      <point x="508" y="635"/>
      <point x="508" y="628" type="qcurve" smooth="yes"/>
      <point x="508" y="612"/>
      <point x="528" y="596"/>
      <point x="545" y="596" type="qcurve" smooth="yes"/>
      <point x="548" y="596" type="line" smooth="yes"/>
      <point x="588" y="596"/>
      <point x="588" y="556" type="qcurve" smooth="yes"/>
      <point x="588" y="541" type="line" smooth="yes"/>
      <point x="588" y="501"/>
      <point x="548" y="501" type="qcurve" smooth="yes"/>
      <point x="521" y="501" type="line" smooth="yes"/>
      <point x="484" y="501"/>
      <point x="478" y="465" type="qcurve" smooth="yes"/>
      <point x="438" y="240" type="line" smooth="yes"/>
      <point x="437" y="236"/>
      <point x="437" y="229" type="qcurve" smooth="yes"/>
      <point x="437" y="213"/>
      <point x="457" y="197"/>
      <point x="474" y="197" type="qcurve" smooth="yes"/>
      <point x="496" y="197" type="line" smooth="yes"/>
      <point x="536" y="197"/>
      <point x="536" y="157" type="qcurve" smooth="yes"/>
      <point x="536" y="142" type="line" smooth="yes"/>
      <point x="536" y="102"/>
      <point x="496" y="102" type="qcurve" smooth="yes"/>
      <point x="450" y="102" type="line" smooth="yes"/>
      <point x="413" y="102"/>
      <point x="407" y="66" type="qcurve" smooth="yes"/>
      <point x="389" y="-35" type="line" smooth="yes"/>
      <point x="383" y="-71"/>
      <point x="346" y="-71" type="qcurve" smooth="yes"/>
      <point x="325" y="-71" type="line" smooth="yes"/>
      <point x="308" y="-71"/>
      <point x="288" y="-55"/>
      <point x="288" y="-39" type="qcurve" smooth="yes"/>
      <point x="288" y="-32"/>
      <point x="289" y="-28" type="qcurve" smooth="yes"/>
      <point x="304" y="59" type="line" smooth="yes"/>
      <point x="305" y="63"/>
      <point x="305" y="70" type="qcurve" smooth="yes"/>
      <point x="305" y="86"/>
      <point x="285" y="102"/>
      <point x="268" y="102" type="qcurve" smooth="yes"/>
      <point x="222" y="102" type="line" smooth="yes"/>
      <point x="185" y="102"/>
      <point x="179" y="66" type="qcurve" smooth="yes"/>
      <point x="161" y="-35" type="line" smooth="yes"/>
      <point x="155" y="-71"/>
      <point x="118" y="-71" type="qcurve" smooth="yes"/>
      <point x="97" y="-71" type="line" smooth="yes"/>
      <point x="80" y="-71"/>
      <point x="60" y="-55"/>
    </contour>
    <contour>
      <point x="209" y="229" type="qcurve" smooth="yes"/>
      <point x="209" y="213"/>
      <point x="229" y="197"/>
      <point x="246" y="197" type="qcurve" smooth="yes"/>
      <point x="292" y="197" type="line" smooth="yes"/>
      <point x="329" y="197"/>
      <point x="335" y="233" type="qcurve" smooth="yes"/>
      <point x="375" y="458" type="line" smooth="yes"/>
      <point x="376" y="462"/>
      <point x="376" y="469" type="qcurve" smooth="yes"/>
      <point x="376" y="485"/>
      <point x="356" y="501"/>
      <point x="339" y="501" type="qcurve" smooth="yes"/>
      <point x="293" y="501" type="line" smooth="yes"/>
      <point x="256" y="501"/>
      <point x="250" y="465" type="qcurve" smooth="yes"/>
      <point x="210" y="240" type="line" smooth="yes"/>
      <point x="209" y="236"/>
    </contour>
  </outline>
</glyph>
<glyph name="ampersand" format="2">
  <advance width="489"/>
  <unicode hex="0026"/>
  <outline>
    <contour>
      <point x="90" y="-33" type="line" smooth="yes"/>
      <point x="72" y="-33"/>
      <point x="50" y="-11"/>
      <point x="50" y="7" type="qcurve" smooth="yes"/>
      <point x="50" y="174" type="line" smooth="yes"/>
      <point x="50" y="192"/>
      <point x="62" y="232"/>
      <point x="73" y="247" type="qcurve" smooth="yes"/>
      <point x="134" y="332" type="line" smooth="yes"/>
      <point x="145" y="347"/>
      <point x="145" y="383"/>
      <point x="134" y="398" type="qcurve" smooth="yes"/>
      <point x="78" y="477" type="line" smooth="yes"/>
      <point x="67" y="492"/>
      <point x="55" y="532"/>
      <point x="55" y="550" type="qcurve" smooth="yes"/>
      <point x="55" y="695" type="line" smooth="yes"/>
      <point x="55" y="713"/>
      <point x="77" y="735"/>
      <point x="95" y="735" type="qcurve" smooth="yes"/>
      <point x="324" y="735" type="line" smooth="yes"/>
      <point x="342" y="735"/>
      <point x="364" y="713"/>
      <point x="364" y="695" type="qcurve" smooth="yes"/>
      <point x="364" y="544" type="line" smooth="yes"/>
      <point x="364" y="526"/>
      <point x="352" y="486"/>
      <point x="341" y="471" type="qcurve" smooth="yes"/>
      <point x="288" y="397" type="line" smooth="yes"/>
      <point x="277" y="382"/>
      <point x="277" y="346"/>
      <point x="288" y="331" type="qcurve"/>
      <point x="305" y="306" type="line"/>
      <point x="316" y="291"/>
      <point x="336" y="294"/>
      <point x="341" y="311" type="qcurve" smooth="yes"/>
      <point x="351" y="346" type="line" smooth="yes"/>
      <point x="356" y="363"/>
      <point x="386" y="384"/>
      <point x="404" y="384" type="qcurve" smooth="yes"/>
      <point x="418" y="384" type="line" smooth="yes"/>
      <point x="436" y="384"/>
      <point x="451" y="363"/>
      <point x="445" y="346" type="qcurve" smooth="yes"/>
      <point x="403" y="219" type="line" smooth="yes"/>
      <point x="398" y="203"/>
      <point x="402" y="168"/>
      <point x="412" y="154" type="qcurve" smooth="yes"/>
      <point x="422" y="140"/>
      <point x="434" y="103"/>
      <point x="434" y="86" type="qcurve" smooth="yes"/>
      <point x="434" y="11" type="line" smooth="yes"/>
      <point x="434" y="-7"/>
      <point x="422" y="-11"/>
      <point x="411" y="4" type="qcurve" smooth="yes"/>
      <point x="379" y="48" type="line" smooth="yes"/>
      <point x="368" y="63"/>
      <point x="348" y="60"/>
      <point x="343" y="43" type="qcurve" smooth="yes"/>
      <point x="333" y="5" type="line" smooth="yes"/>
      <point x="328" y="-12"/>
      <point x="298" y="-33"/>
      <point x="280" y="-33" type="qcurve" smooth="yes"/>
    </contour>
    <contour>
      <point x="188" y="473" type="line" smooth="yes"/>
      <point x="199" y="458"/>
      <point x="223" y="458"/>
      <point x="234" y="473" type="qcurve" smooth="yes"/>
      <point x="254" y="500" type="line" smooth="yes"/>
      <point x="265" y="515"/>
      <point x="277" y="555"/>
      <point x="277" y="573" type="qcurve" smooth="yes"/>
      <point x="277" y="610" type="line" smooth="yes"/>
      <point x="277" y="628"/>
      <point x="255" y="650"/>
      <point x="237" y="650" type="qcurve" smooth="yes"/>
      <point x="181" y="650" type="line" smooth="yes"/>
      <point x="163" y="650"/>
      <point x="141" y="628"/>
      <point x="141" y="610" type="qcurve" smooth="yes"/>
      <point x="141" y="580" type="line" smooth="yes"/>
      <point x="141" y="562"/>
      <point x="153" y="522"/>
      <point x="164" y="507" type="qcurve" smooth="yes"/>
    </contour>
    <contour>
      <point x="136" y="93" type="line" smooth="yes"/>
      <point x="136" y="75"/>
      <point x="158" y="53"/>
      <point x="176" y="53" type="qcurve" smooth="yes"/>
      <point x="216" y="53" type="line" smooth="yes"/>
      <point x="234" y="53"/>
      <point x="265" y="74"/>
      <point x="269" y="91" type="qcurve" smooth="yes"/>
      <point x="280" y="133" type="line" smooth="yes"/>
      <point x="284" y="150"/>
      <point x="281" y="189"/>
      <point x="270" y="204" type="qcurve" smooth="yes"/>
      <point x="234" y="255" type="line" smooth="yes"/>
      <point x="223" y="270"/>
      <point x="199" y="270"/>
      <point x="188" y="256" type="qcurve"/>
      <point x="159" y="215" type="line"/>
      <point x="148" y="201"/>
      <point x="136" y="161"/>
      <point x="136" y="143" type="qcurve" smooth="yes"/>
    </contour>
  </outline>
</glyph>
<glyph name="parenleft" format="2">
  <advance width="306"/>
  <unicode hex="0028"/>
  <outline>
    <contour>
      <point x="165" y="-65" type="qcurve" smooth="yes"/>
      <point x="109" y="68" type="line" smooth="yes"/>
      <point x="101" y="86"/>
      <point x="96" y="115" type="qcurve" smooth="yes"/>
      <point x="62" y="330" type="line"/>
      <point x="60" y="350"/>
      <point x="60" y="355" type="qcurve" smooth="yes"/>
      <point x="60" y="362"/>
      <point x="62" y="380" type="qcurve"/>
      <point x="96" y="596" type="line" smooth="yes"/>
      <point x="101" y="625"/>
      <point x="109" y="643" type="qcurve" smooth="yes"/>
      <point x="165" y="776" type="line" smooth="yes"/>
      <point x="178" y="807"/>
      <point x="211" y="807" type="qcurve" smooth="yes"/>
      <point x="231" y="807" type="line" smooth="yes"/>
      <point x="248" y="807"/>
      <point x="266" y="792"/>
      <point x="266" y="779" type="qcurve" smooth="yes"/>
      <point x="266" y="769"/>
      <point x="262" y="760" type="qcurve" smooth="yes"/>
      <point x="205" y="636" type="line" smooth="yes"/>
      <point x="195" y="614"/>
      <point x="191" y="588" type="qcurve" smooth="yes"/>
      <point x="161" y="380" type="line"/>
      <point x="159" y="362"/>
      <point x="159" y="355" type="qcurve" smooth="yes"/>
      <point x="159" y="348"/>
      <point x="161" y="330" type="qcurve"/>
      <point x="191" y="123" type="line" smooth="yes"/>
      <point x="195" y="97"/>
      <point x="205" y="75" type="qcurve" smooth="yes"/>
      <point x="262" y="-49" type="line" smooth="yes"/>
      <point x="266" y="-58"/>
      <point x="266" y="-68" type="qcurve" smooth="yes"/>
      <point x="266" y="-81"/>
      <point x="248" y="-96"/>
      <point x="231" y="-96" type="qcurve" smooth="yes"/>
      <point x="211" y="-96" type="line" smooth="yes"/>
      <point x="178" y="-96"/>
    </contour>
  </outline>
</glyph>
<glyph name="asterisk" format="2">
  <advance width="414"/>
  <unicode hex="002A"/>
  <outline>
    <contour>
      <point x="55" y="262" type="qcurve" smooth="yes"/>
      <point x="38" y="262"/>
      <point x="26" y="283" type="qcurve" smooth="yes"/>
      <point x="20" y="295"/>
      <point x="20" y="305" type="qcurve" smooth="yes"/>
      <point x="20" y="325"/>
      <point x="44" y="336" type="qcurve" smooth="yes"/>
      <point x="105" y="363" type="line" smooth="yes"/>
      <point x="129" y="374"/>
      <point x="129" y="390" type="qcurve" smooth="yes"/>
      <point x="129" y="407"/>
      <point x="105" y="417" type="qcurve" smooth="yes"/>
      <point x="46" y="443" type="line" smooth="yes"/>
      <point x="21" y="454"/>
      <point x="21" y="476" type="qcurve" smooth="yes"/>
      <point x="21" y="487"/>
      <point x="27" y="497" type="qcurve" smooth="yes"/>
      <point x="38" y="518"/>
      <point x="55" y="518" type="qcurve" smooth="yes"/>
      <point x="67" y="518"/>
      <point x="81" y="507" type="qcurve" smooth="yes"/>
      <point x="133" y="467" type="line"/>
      <point x="149" y="456"/>
      <point x="159" y="456" type="qcurve" smooth="yes"/>
      <point x="171" y="456"/>
      <point x="182" y="475"/>
      <point x="180" y="493" type="qcurve" smooth="yes"/>
      <point x="171" y="565" type="line" smooth="yes"/>
      <point x="169" y="585"/>
      <point x="188" y="607"/>
      <point x="207" y="607" type="qcurve" smooth="yes"/>
      <point x="226" y="607"/>
      <point x="244" y="585"/>
      <point x="242" y="565" type="qcurve" smooth="yes"/>
      <point x="234" y="493" type="line" smooth="yes"/>
      <point x="232" y="476"/>
      <point x="243" y="456"/>
      <point x="254" y="456" type="qcurve" smooth="yes"/>
      <point x="264" y="456"/>
      <point x="280" y="467" type="qcurve"/>
      <point x="333" y="508" type="line" smooth="yes"/>
      <point x="346" y="518"/>
      <point x="358" y="518" type="qcurve" smooth="yes"/>
      <point x="376" y="518"/>
      <point x="388" y="497" type="qcurve" smooth="yes"/>
      <point x="394" y="485"/>
      <point x="394" y="475" type="qcurve" smooth="yes"/>
      <point x="394" y="454"/>
      <point x="370" y="443" type="qcurve"/>
      <point x="309" y="417" type="line" smooth="yes"/>
      <point x="285" y="407"/>
      <point x="285" y="390" type="qcurve" smooth="yes"/>
      <point x="285" y="374"/>
      <point x="309" y="363" type="qcurve" smooth="yes"/>
      <point x="370" y="336" type="line" smooth="yes"/>
      <point x="394" y="325"/>
      <point x="394" y="305" type="qcurve" smooth="yes"/>
      <point x="394" y="295"/>
      <point x="388" y="283" type="qcurve" smooth="yes"/>
      <point x="376" y="262"/>
      <point x="358" y="262" type="qcurve" smooth="yes"/>
      <point x="346" y="262"/>
      <point x="333" y="272" type="qcurve" smooth="yes"/>
      <point x="280" y="312" type="line"/>
      <point x="264" y="323"/>
      <point x="254" y="323" type="qcurve" smooth="yes"/>
      <point x="243" y="323"/>
      <point x="232" y="303"/>
      <point x="234" y="286" type="qcurve" smooth="yes"/>
      <point x="242" y="216" type="line" smooth="yes"/>
      <point x="244" y="196"/>
      <point x="226" y="174"/>
      <point x="207" y="174" type="qcurve" smooth="yes"/>
      <point x="187" y="174"/>
      <point x="169" y="196"/>
      <point x="171" y="216" type="qcurve"/>
      <point x="180" y="286" type="line" smooth="yes"/>
      <point x="182" y="304"/>
      <point x="171" y="323"/>
      <point x="159" y="323" type="qcurve" smooth="yes"/>
      <point x="149" y="323"/>
      <point x="133" y="312" type="qcurve"/>
      <point x="80" y="272" type="line" smooth="yes"/>
      <point x="67" y="262"/>
    </contour>
  </outline>
</glyph>
<glyph name="plus" format="2">
  <advance width="638"/>
  <unicode hex="002B"/>
  <outline>
    <contour>
      <point x="266" y="128" type="qcurve" smooth="yes"/>
      <point x="266" y="294" type="line" smooth="yes"/>
      <point x="266" y="334"/>
      <point x="226" y="334" type="qcurve" smooth="yes"/>
      <point x="80" y="334" type="line" smooth="yes"/>
      <point x="40" y="334"/>
      <point x="40" y="374" type="qcurve" smooth="yes"/>
      <point x="40" y="394" type="line" smooth="yes"/>
      <point x="40" y="434"/>
      <point x="80" y="434" type="qcurve" smooth="yes"/>
      <point x="226" y="434" type="line" smooth="yes"/>
      <point x="266" y="434"/>
      <point x="266" y="474" type="qcurve" smooth="yes"/>
      <point x="266" y="642" type="line" smooth="yes"/>
      <point x="266" y="682"/>
      <point x="306" y="682" type="qcurve" smooth="yes"/>
      <point x="330" y="682" type="line" smooth="yes"/>
      <point x="370" y="682"/>
      <point x="370" y="642" type="qcurve" smooth="yes"/>
      <point x="370" y="474" type="line" smooth="yes"/>
      <point x="370" y="434"/>
      <point x="410" y="434" type="qcurve" smooth="yes"/>
      <point x="558" y="434" type="line" smooth="yes"/>
      <point x="598" y="434"/>
      <point x="598" y="394" type="qcurve" smooth="yes"/>
      <point x="598" y="374" type="line" smooth="yes"/>
      <point x="598" y="334"/>
      <point x="558" y="334" type="qcurve" smooth="yes"/>
      <point x="410" y="334" type="line" smooth="yes"/>
      <point x="370" y="334"/>
      <point x="370" y="294" type="qcurve" smooth="yes"/>
      <point x="370" y="128" type="line" smooth="yes"/>
      <point x="370" y="88"/>
      <point x="330" y="88" type="qcurve" smooth="yes"/>
      <point x="306" y="88" type="line" smooth="yes"/>
      <point x="266" y="88"/>
    </contour>
  </outline>
</glyph>
<glyph name="hyphen" format="2">
  <advance width="325"/>
  <unicode hex="002D"/>
  <outline>
    <contour>
      <point x="70" y="278" type="line" smooth="yes"/>
      <point x="30" y="278"/>
      <point x="30" y="318" type="qcurve" smooth="yes"/>
      <point x="30" y="333" type="line" smooth="yes"/>
      <point x="30" y="373"/>
      <point x="70" y="373" type="qcurve" smooth="yes"/>
      <point x="255" y="373" type="line" smooth="yes"/>
      <point x="295" y="373"/>
      <point x="295" y="333" type="qcurve" smooth="yes"/>
      <point x="295" y="318" type="line" smooth="yes"/>
      <point x="295" y="278"/>
      <point x="255" y="278" type="qcurve" smooth="yes"/>
    </contour>
  </outline>
</glyph>
<glyph name="period" format="2">
  <advance width="181"/>
  <unicode hex="002E"/>
  <outline>
    <contour>
      <point x="80" y="-9" type="line" smooth="yes"/>
      <point x="40" y="-9"/>
      <point x="40" y="31" type="qcurve" smooth="yes"/>
      <point x="40" y="76" type="line" smooth="yes"/>
      <point x="40" y="116"/>
      <point x="80" y="116" type="qcurve" smooth="yes"/>
      <point x="101" y="116" type="line" smooth="yes"/>
      <point x="141" y="116"/>
      <point x="141" y="76" type="qcurve" smooth="yes"/>
      <point x="141" y="31" type="line" smooth="yes"/>
      <point x="141" y="-9"/>
      <point x="101" y="-9" type="qcurve" smooth="yes"/>
    </contour>
  </outline>
</glyph>
<glyph name="one" format="2">
  <advance width="264"/>
  <unicode hex="0031"/>
  <outline>
    <contour>
      <point x="60" y="-9" type="line" smooth="yes"/>
      <point x="20" y="-9"/>
      <point x="20" y="31" type="qcurve" smooth="yes"/>
      <point x="20" y="42" type="line" smooth="yes"/>
      <point x="20" y="82"/>
      <point x="57" y="82" type="qcurve" smooth="yes"/>
      <point x="94" y="82"/>
      <point x="94" y="122" type="qcurve" smooth="yes"/>
      <point x="94" y="581" type="line" smooth="yes"/>
      <point x="94" y="621"/>
      <point x="57" y="621" type="qcurve" smooth="yes"/>
      <point x="20" y="621"/>
      <point x="20" y="661" type="qcurve" smooth="yes"/>
      <point x="20" y="672" type="line" smooth="yes"/>
      <point x="20" y="712"/>
      <point x="60" y="712" type="qcurve" smooth="yes"/>
      <point x="84" y="712" type="line" smooth="yes"/>
      <point x="113" y="712"/>
      <point x="133" y="692" type="qcurve" smooth="yes"/>
      <point x="165" y="660" type="line" smooth="yes"/>
      <point x="185" y="640"/>
      <point x="185" y="611" type="qcurve" smooth="yes"/>
      <point x="185" y="122" type="line" smooth="yes"/>
      <point x="185" y="103"/>
      <point x="201" y="82"/>
      <point x="215" y="82" type="qcurve" smooth="yes"/>
      <point x="229" y="82"/>
      <point x="244" y="61"/>
      <point x="244" y="42" type="qcurve" smooth="yes"/>
      <point x="244" y="31" type="line" smooth="yes"/>
      <point x="244" y="-9"/>
      <point x="204" y="-9" type="qcurve" smooth="yes"/>
    </contour>
  </outline>
</glyph>
<glyph name="two" format="2">
  <advance width="507"/>
  <unicode hex="0032"/>
  <outline>
    <contour>
      <point x="72" y="35" type="line"/>
      <point x="50" y="56"/>
      <point x="50" y="85" type="qcurve" smooth="yes"/>
      <point x="50" y="293" type="line" smooth="yes"/>
      <point x="50" y="308"/>
      <point x="60" y="331"/>
      <point x="71" y="342" type="qcurve" smooth="yes"/>
      <point x="102" y="373" type="line" smooth="yes"/>
      <point x="122" y="393"/>
      <point x="151" y="393" type="qcurve" smooth="yes"/>
      <point x="327" y="393" type="line" smooth="yes"/>
      <point x="367" y="393"/>
      <point x="367" y="433" type="qcurve" smooth="yes"/>
      <point x="367" y="580" type="line" smooth="yes"/>
      <point x="367" y="620"/>
      <point x="327" y="620" type="qcurve" smooth="yes"/>
      <point x="90" y="620" type="line" smooth="yes"/>
      <point x="50" y="620"/>
      <point x="50" y="660" type="qcurve" smooth="yes"/>
      <point x="50" y="671" type="line" smooth="yes"/>
      <point x="50" y="711"/>
      <point x="90" y="711" type="qcurve" smooth="yes"/>
      <point x="356" y="711" type="line" smooth="yes"/>
      <point x="384" y="711"/>
      <point x="405" y="690" type="qcurve" smooth="yes"/>
      <point x="437" y="658" type="line" smooth="yes"/>
      <point x="457" y="638"/>
      <point x="457" y="609" type="qcurve" smooth="yes"/>
      <point x="457" y="404" type="line" smooth="yes"/>
      <point x="458" y="375"/>
      <point x="437" y="354" type="qcurve" smooth="yes"/>
      <point x="405" y="322" type="line" smooth="yes"/>
      <point x="385" y="302"/>
      <point x="356" y="302" type="qcurve" smooth="yes"/>
      <point x="181" y="302" type="line" smooth="yes"/>
      <point x="141" y="302"/>
      <point x="141" y="262" type="qcurve" smooth="yes"/>
      <point x="141" y="122" type="line" smooth="yes"/>
      <point x="141" y="82"/>
      <point x="181" y="82" type="qcurve" smooth="yes"/>
      <point x="417" y="82" type="line" smooth="yes"/>
      <point x="457" y="82"/>
      <point x="457" y="42" type="qcurve" smooth="yes"/>
      <point x="457" y="31" type="line" smooth="yes"/>
      <point x="457" y="-9"/>
      <point x="417" y="-9" type="qcurve" smooth="yes"/>
      <point x="150" y="-9" type="line" smooth="yes"/>
      <point x="135" y="-9"/>
      <point x="112" y="0"/>
      <point x="101" y="10" type="qcurve" smooth="yes"/>
    </contour>
  </outline>
</glyph>
<glyph name="three" format="2">
  <advance width="498"/>
  <unicode hex="0033"/>
  <outline>
    <contour>
      <point x="80" y="-9" type="line" smooth="yes"/>
      <point x="40" y="-9"/>
      <point x="40" y="31" type="qcurve" smooth="yes"/>
      <point x="40" y="41" type="line" smooth="yes"/>
      <point x="40" y="81"/>
      <point x="80" y="81" type="qcurve" smooth="yes"/>
      <point x="318" y="81" type="line" smooth="yes"/>
      <point x="358" y="81"/>
      <point x="358" y="121" type="qcurve" smooth="yes"/>
      <point x="358" y="263" type="line" smooth="yes"/>
      <point x="358" y="303"/>
      <point x="318" y="303" type="qcurve" smooth="yes"/>
      <point x="89" y="303" type="line" smooth="yes"/>
      <point x="49" y="303"/>
      <point x="49" y="343" type="qcurve" smooth="yes"/>
      <point x="49" y="354" type="line" smooth="yes"/>
      <point x="49" y="394"/>
      <point x="89" y="394" type="qcurve" smooth="yes"/>
      <point x="318" y="394" type="line" smooth="yes"/>
      <point x="358" y="394"/>
      <point x="358" y="434" type="qcurve" smooth="yes"/>
      <point x="358" y="580" type="line" smooth="yes"/>
      <point x="358" y="620"/>
      <point x="318" y="620" type="qcurve" smooth="yes"/>
      <point x="80" y="620" type="line" smooth="yes"/>
      <point x="40" y="620"/>
      <point x="40" y="660" type="qcurve" smooth="yes"/>
      <point x="40" y="671" type="line" smooth="yes"/>
      <point x="40" y="711"/>
      <point x="80" y="711" type="qcurve" smooth="yes"/>
      <point x="347" y="711" type="line" smooth="yes"/>
      <point x="376" y="711"/>
      <point x="396" y="691" type="qcurve" smooth="yes"/>
      <point x="428" y="659" type="line" smooth="yes"/>
      <point x="448" y="639"/>
      <point x="448" y="610" type="qcurve" smooth="yes"/>
      <point x="448" y="423" type="line" smooth="yes"/>
      <point x="448" y="394"/>
      <point x="428" y="373" type="qcurve" smooth="yes"/>
      <point x="416" y="361"/>
      <point x="416" y="348" type="qcurve" smooth="yes"/>
      <point x="416" y="336"/>
      <point x="426" y="326" type="qcurve" smooth="yes"/>
      <point x="428" y="324" type="line" smooth="yes"/>
      <point x="448" y="304"/>
      <point x="448" y="274" type="qcurve" smooth="yes"/>
      <point x="448" y="92" type="line" smooth="yes"/>
      <point x="448" y="63"/>
      <point x="428" y="43" type="qcurve" smooth="yes"/>
      <point x="396" y="11" type="line" smooth="yes"/>
      <point x="376" y="-9"/>
      <point x="347" y="-9" type="qcurve" smooth="yes"/>
    </contour>
  </outline>
</glyph>
<glyph name="five" format="2">
  <advance width="508"/>
  <unicode hex="0035"/>
  <outline>
    <contour>
      <point x="90" y="-9" type="line" smooth="yes"/>
      <point x="50" y="-9"/>
      <point x="50" y="31" type="qcurve" smooth="yes"/>
      <point x="50" y="42" type="line" smooth="yes"/>
      <point x="50" y="82"/>
      <point x="90" y="82" type="qcurve" smooth="yes"/>
      <point x="327" y="82" type="line" smooth="yes"/>
      <point x="367" y="82"/>
      <point x="367" y="122" type="qcurve" smooth="yes"/>
      <point x="367" y="271" type="line" smooth="yes"/>
      <point x="367" y="311"/>
      <point x="327" y="311" type="qcurve" smooth="yes"/>
      <point x="152" y="311" type="line" smooth="yes"/>
      <point x="122" y="311"/>
      <point x="102" y="331" type="qcurve" smooth="yes"/>
      <point x="71" y="361" type="line" smooth="yes"/>
      <point x="60" y="372"/>
      <point x="50" y="395"/>
      <point x="50" y="410" type="qcurve" smooth="yes"/>
      <point x="50" y="612" type="line" smooth="yes"/>
      <point x="50" y="627"/>
      <point x="60" y="650"/>
      <point x="71" y="661" type="qcurve" smooth="yes"/>
      <point x="103" y="693" type="line" smooth="yes"/>
      <point x="123" y="713"/>
      <point x="152" y="713" type="qcurve" smooth="yes"/>
      <point x="418" y="713" type="line" smooth="yes"/>
      <point x="458" y="713"/>
      <point x="458" y="673" type="qcurve" smooth="yes"/>
      <point x="458" y="662" type="line" smooth="yes"/>
      <point x="458" y="622"/>
      <point x="418" y="622" type="qcurve" smooth="yes"/>
      <point x="181" y="622" type="line" smooth="yes"/>
      <point x="141" y="622"/>
      <point x="141" y="582" type="qcurve" smooth="yes"/>
      <point x="141" y="442" type="line" smooth="yes"/>
      <point x="141" y="402"/>
      <point x="181" y="402" type="qcurve" smooth="yes"/>
      <point x="356" y="402" type="line" smooth="yes"/>
      <point x="386" y="402"/>
      <point x="406" y="382" type="qcurve" smooth="yes"/>
      <point x="438" y="350" type="line" smooth="yes"/>
      <point x="458" y="330"/>
      <point x="458" y="301" type="qcurve" smooth="yes"/>
      <point x="458" y="92" type="line" smooth="yes"/>
      <point x="458" y="77"/>
      <point x="448" y="54"/>
      <point x="437" y="43" type="qcurve" smooth="yes"/>
      <point x="405" y="11" type="line" smooth="yes"/>
      <point x="385" y="-9"/>
      <point x="356" y="-9" type="qcurve" smooth="yes"/>
    </contour>
  </outline>
</glyph>
<glyph name="seven" format="2">
  <advance width="384"/>
  <unicode hex="0037"/>
  <outline>
    <contour>
      <point x="243" y="32" type="qcurve" smooth="yes"/>
      <point x="243" y="582" type="line" smooth="yes"/>
      <point x="243" y="622"/>
      <point x="203" y="622" type="qcurve" smooth="yes"/>
      <point x="10" y="622" type="line" smooth="yes"/>
      <point x="-30" y="622"/>
      <point x="-30" y="662" type="qcurve" smooth="yes"/>
      <point x="-30" y="673" type="line" smooth="yes"/>
      <point x="-30" y="713"/>
      <point x="10" y="713" type="qcurve" smooth="yes"/>
      <point x="232" y="713" type="line" smooth="yes"/>
      <point x="262" y="713"/>
      <point x="282" y="693" type="qcurve" smooth="yes"/>
      <point x="314" y="661" type="line" smooth="yes"/>
      <point x="334" y="641"/>
      <point x="334" y="612" type="qcurve" smooth="yes"/>
      <point x="334" y="32" type="line" smooth="yes"/>
      <point x="334" y="-8"/>
      <point x="294" y="-8" type="qcurve" smooth="yes"/>
      <point x="283" y="-8" type="line" smooth="yes"/>
      <point x="243" y="-8"/>
    </contour>
  </outline>
</glyph>
<glyph name="nine" format="2">
  <advance width="508"/>
  <unicode hex="0039"/>
  <outline>
    <contour>
      <point x="90" y="-9" type="line" smooth="yes"/>
      <point x="50" y="-9"/>
      <point x="50" y="31" type="qcurve" smooth="yes"/>
      <point x="50" y="41" type="line" smooth="yes"/>
      <point x="50" y="81"/>
      <point x="90" y="81" type="qcurve" smooth="yes"/>
      <point x="327" y="81" type="line" smooth="yes"/>
      <point x="367" y="81"/>
      <point x="367" y="121" type="qcurve" smooth="yes"/>
      <point x="367" y="235" type="line" smooth="yes"/>
      <point x="367" y="275"/>
      <point x="327" y="275" type="qcurve" smooth="yes"/>
      <point x="152" y="275" type="line" smooth="yes"/>
      <point x="123" y="275"/>
      <point x="103" y="295" type="qcurve" smooth="yes"/>
      <point x="70" y="328" type="line" smooth="yes"/>
      <point x="50" y="348"/>
      <point x="50" y="377" type="qcurve" smooth="yes"/>
      <point x="50" y="610" type="line" smooth="yes"/>
      <point x="50" y="625"/>
      <point x="60" y="648"/>
      <point x="71" y="659" type="qcurve" smooth="yes"/>
      <point x="102" y="690" type="line" smooth="yes"/>
      <point x="122" y="710"/>
      <point x="152" y="710" type="qcurve" smooth="yes"/>
      <point x="364" y="710" type="line" smooth="yes"/>
      <point x="394" y="710"/>
      <point x="413" y="688" type="qcurve" smooth="yes"/>
      <point x="439" y="659" type="line" smooth="yes"/>
      <point x="458" y="637"/>
      <point x="458" y="610" type="qcurve" smooth="yes"/>
      <point x="458" y="92" type="line" smooth="yes"/>
      <point x="458" y="77"/>
      <point x="448" y="54"/>
      <point x="437" y="43" type="qcurve" smooth="yes"/>
      <point x="405" y="11" type="line" smooth="yes"/>
      <point x="385" y="-9"/>
      <point x="356" y="-9" type="qcurve" smooth="yes"/>
    </contour>
    <contour>
      <point x="141" y="406" type="line" smooth="yes"/>
      <point x="141" y="366"/>
      <point x="181" y="366" type="qcurve" smooth="yes"/>
      <point x="327" y="366" type="line" smooth="yes"/>
      <point x="367" y="366"/>
      <point x="367" y="406" type="qcurve" smooth="yes"/>
      <point x="367" y="580" type="line" smooth="yes"/>
      <point x="367" y="620"/>
      <point x="327" y="620" type="qcurve" smooth="yes"/>
      <point x="181" y="620" type="line" smooth="yes"/>
      <point x="141" y="620"/>
      <point x="141" y="580" type="qcurve" smooth="yes"/>
    </contour>
  </outline>
</glyph>
<glyph name="semicolon" format="2">
  <advance width="238"/>
  <unicode hex="003B"/>
  <outline>
    <contour>
      <point x="109" y="399" type="line" smooth="yes"/>
      <point x="69" y="399"/>
      <point x="69" y="439" type="qcurve" smooth="yes"/>
      <point x="69" y="484" type="line" smooth="yes"/>
      <point x="69" y="524"/>
      <point x="109" y="524" type="qcurve" smooth="yes"/>
      <point x="130" y="524" type="line" smooth="yes"/>
      <point x="170" y="524"/>
      <point x="170" y="484" type="qcurve" smooth="yes"/>
      <point x="170" y="439" type="line" smooth="yes"/>
      <point x="170" y="399"/>
      <point x="130" y="399" type="qcurve" smooth="yes"/>
    </contour>
    <contour>
      <point x="84" y="-41" type="qcurve" smooth="yes"/>
      <point x="84" y="-31"/>
      <point x="92" y="-13" type="qcurve" smooth="yes"/>
      <point x="101" y="5"/>
      <point x="101" y="17" type="qcurve" smooth="yes"/>
      <point x="101" y="34"/>
      <point x="87" y="34" type="qcurve" smooth="yes"/>
      <point x="74" y="34"/>
      <point x="60" y="55"/>
      <point x="60" y="74" type="qcurve" smooth="yes"/>
      <point x="60" y="119" type="line" smooth="yes"/>
      <point x="60" y="159"/>
      <point x="100" y="159" type="qcurve" smooth="yes"/>
      <point x="138" y="159" type="line" smooth="yes"/>
      <point x="178" y="159"/>
      <point x="178" y="119" type="qcurve" smooth="yes"/>
      <point x="178" y="60" type="line" smooth="yes"/>
      <point x="178" y="34"/>
      <point x="167" y="11" type="qcurve" smooth="yes"/>
      <point x="148" y="-30" type="line" smooth="yes"/>
      <point x="134" y="-60"/>
      <point x="102" y="-60" type="qcurve" smooth="yes"/>
      <point x="84" y="-60"/>
    </contour>
  </outline>
</glyph>
<glyph name="greater" format="2">
  <advance width="557"/>
  <unicode hex="003E"/>
  <outline>
    <contour>
      <point x="67" y="-62" type="qcurve"/>
      <point x="56" y="-50" type="line"/>
      <point x="43" y="-37"/>
      <point x="43" y="-22" type="qcurve" smooth="yes"/>
      <point x="43" y="-6"/>
      <point x="57" y="7" type="qcurve" smooth="yes"/>
      <point x="358" y="293" type="line" smooth="yes"/>
      <point x="373" y="307"/>
      <point x="373" y="322" type="qcurve" smooth="yes"/>
      <point x="373" y="336"/>
      <point x="361" y="349" type="qcurve" smooth="yes"/>
      <point x="52" y="694" type="line" smooth="yes"/>
      <point x="40" y="708"/>
      <point x="40" y="722" type="qcurve" smooth="yes"/>
      <point x="40" y="738"/>
      <point x="53" y="751" type="qcurve" smooth="yes"/>
      <point x="66" y="765" type="line" smooth="yes"/>
      <point x="79" y="779"/>
      <point x="95" y="779" type="qcurve" smooth="yes"/>
      <point x="110" y="779"/>
      <point x="123" y="765" type="qcurve" smooth="yes"/>
      <point x="504" y="349" type="line" smooth="yes"/>
      <point x="517" y="334"/>
      <point x="517" y="321" type="qcurve" smooth="yes"/>
      <point x="517" y="307"/>
      <point x="502" y="293" type="qcurve" smooth="yes"/>
      <point x="124" y="-64" type="line" smooth="yes"/>
      <point x="111" y="-77"/>
      <point x="97" y="-77" type="qcurve" smooth="yes"/>
      <point x="82" y="-77"/>
    </contour>
  </outline>
</glyph>
<glyph name="question" format="2">
  <advance width="425"/>
  <unicode hex="003F"/>
  <outline>
    <contour>
      <point x="160" y="207" type="qcurve" smooth="yes"/>
      <point x="160" y="264" type="line" smooth="yes"/>
      <point x="159" y="292"/>
      <point x="174" y="314" type="qcurve" smooth="yes"/>
      <point x="283" y="474" type="line" smooth="yes"/>
      <point x="297" y="496"/>
      <point x="297" y="524" type="qcurve" smooth="yes"/>
      <point x="297" y="593" type="line" smooth="yes"/>
      <point x="297" y="633"/>
      <point x="257" y="633" type="qcurve" smooth="yes"/>
      <point x="172" y="633" type="line" smooth="yes"/>
      <point x="132" y="633"/>
      <point x="132" y="593" type="qcurve" smooth="yes"/>
      <point x="132" y="529" type="line" smooth="yes"/>
      <point x="132" y="489"/>
      <point x="92" y="489" type="qcurve" smooth="yes"/>
      <point x="80" y="489" type="line" smooth="yes"/>
      <point x="40" y="489"/>
      <point x="40" y="529" type="qcurve" smooth="yes"/>
      <point x="40" y="682" type="line" smooth="yes"/>
      <point x="40" y="722"/>
      <point x="80" y="722" type="qcurve" smooth="yes"/>
      <point x="345" y="722" type="line" smooth="yes"/>
      <point x="385" y="722"/>
      <point x="385" y="682" type="qcurve" smooth="yes"/>
      <point x="385" y="488" type="line" smooth="yes"/>
      <point x="386" y="460"/>
      <point x="371" y="438" type="qcurve" smooth="yes"/>
      <point x="265" y="283" type="line" smooth="yes"/>
      <point x="251" y="261"/>
      <point x="251" y="233" type="qcurve" smooth="yes"/>
      <point x="251" y="206" type="line" smooth="yes"/>
      <point x="251" y="166"/>
      <point x="211" y="166" type="qcurve" smooth="yes"/>
      <point x="200" y="166" type="line" smooth="yes"/>
      <point x="181" y="166"/>
      <point x="160" y="188"/>
    </contour>
    <contour>
      <point x="178" y="8" type="qcurve" smooth="yes"/>
      <point x="164" y="22" type="line" smooth="yes"/>
      <point x="151" y="35"/>
      <point x="151" y="50" type="qcurve" smooth="yes"/>
      <point x="151" y="65"/>
      <point x="164" y="78" type="qcurve" smooth="yes"/>
      <point x="177" y="91" type="line" smooth="yes"/>
      <point x="191" y="105"/>
      <point x="205" y="105" type="qcurve" smooth="yes"/>
      <point x="221" y="105"/>
      <point x="234" y="90" type="qcurve"/>
      <point x="247" y="77" type="line" smooth="yes"/>
      <point x="260" y="64"/>
      <point x="260" y="49" type="qcurve" smooth="yes"/>
      <point x="260" y="34"/>
      <point x="246" y="20" type="qcurve" smooth="yes"/>
      <point x="234" y="8" type="line" smooth="yes"/>
      <point x="220" y="-6"/>
      <point x="206" y="-6" type="qcurve" smooth="yes"/>
      <point x="192" y="-6"/>
    </contour>
  </outline>
</glyph>
<glyph name="at" format="2">
  <advance width="681"/>
  <unicode hex="0040"/>
  <outline>
    <contour>
      <point x="70" y="42" type="line" smooth="yes"/>
      <point x="50" y="62"/>
      <point x="50" y="91" type="qcurve" smooth="yes"/>
      <point x="50" y="604" type="line" smooth="yes"/>
      <point x="49" y="633"/>
      <point x="70" y="654" type="qcurve" smooth="yes"/>
      <point x="102" y="686" type="line" smooth="yes"/>
      <point x="122" y="706"/>
      <point x="151" y="706" type="qcurve" smooth="yes"/>
      <point x="529" y="706" type="line" smooth="yes"/>
      <point x="558" y="706"/>
      <point x="578" y="686" type="qcurve" smooth="yes"/>
      <point x="611" y="653" type="line" smooth="yes"/>
      <point x="631" y="633"/>
      <point x="631" y="604" type="qcurve" smooth="yes"/>
      <point x="631" y="218" type="line" smooth="yes"/>
      <point x="631" y="189"/>
      <point x="611" y="169" type="qcurve" smooth="yes"/>
      <point x="578" y="136" type="line" smooth="yes"/>
      <point x="558" y="116"/>
      <point x="529" y="116" type="qcurve" smooth="yes"/>
      <point x="502" y="116" type="line" smooth="yes"/>
      <point x="473" y="116"/>
      <point x="453" y="136" type="qcurve" smooth="yes"/>
      <point x="447" y="142" type="line" smooth="yes"/>
      <point x="427" y="162"/>
      <point x="398" y="162" type="qcurve" smooth="yes"/>
      <point x="302" y="162" type="line" smooth="yes"/>
      <point x="274" y="162"/>
      <point x="253" y="183" type="qcurve" smooth="yes"/>
      <point x="221" y="215" type="line" smooth="yes"/>
      <point x="201" y="235"/>
      <point x="201" y="264" type="qcurve" smooth="yes"/>
      <point x="201" y="433" type="line" smooth="yes"/>
      <point x="201" y="462"/>
      <point x="221" y="482" type="qcurve" smooth="yes"/>
      <point x="253" y="514" type="line" smooth="yes"/>
      <point x="273" y="534"/>
      <point x="302" y="534" type="qcurve" smooth="yes"/>
      <point x="444" y="534" type="line" smooth="yes"/>
      <point x="484" y="534"/>
      <point x="484" y="494" type="qcurve" smooth="yes"/>
      <point x="484" y="260" type="line" smooth="yes"/>
      <point x="484" y="234"/>
      <point x="495" y="220" type="qcurve" smooth="yes"/>
      <point x="505" y="207"/>
      <point x="523" y="207" type="qcurve" smooth="yes"/>
      <point x="540" y="207"/>
      <point x="540" y="247" type="qcurve" smooth="yes"/>
      <point x="540" y="575" type="line" smooth="yes"/>
      <point x="540" y="615"/>
      <point x="500" y="615" type="qcurve" smooth="yes"/>
      <point x="181" y="615" type="line" smooth="yes"/>
      <point x="141" y="615"/>
      <point x="141" y="575" type="qcurve" smooth="yes"/>
      <point x="141" y="120" type="line" smooth="yes"/>
      <point x="141" y="80"/>
      <point x="181" y="80" type="qcurve" smooth="yes"/>
      <point x="591" y="80" type="line" smooth="yes"/>
      <point x="631" y="80"/>
      <point x="631" y="40" type="qcurve" smooth="yes"/>
      <point x="631" y="29" type="line" smooth="yes"/>
      <point x="631" y="-11"/>
      <point x="591" y="-11" type="qcurve" smooth="yes"/>
      <point x="152" y="-11" type="line" smooth="yes"/>
      <point x="123" y="-11"/>
      <point x="103" y="9" type="qcurve" smooth="yes"/>
    </contour>
    <contour>
      <point x="292" y="293" type="line" smooth="yes"/>
      <point x="292" y="253"/>
      <point x="332" y="253" type="qcurve" smooth="yes"/>
      <point x="353" y="253" type="line" smooth="yes"/>
      <point x="393" y="253"/>
      <point x="393" y="293" type="qcurve" smooth="yes"/>
      <point x="393" y="404" type="line" smooth="yes"/>
      <point x="393" y="444"/>
      <point x="353" y="444" type="qcurve" smooth="yes"/>
      <point x="332" y="444" type="line" smooth="yes"/>
      <point x="292" y="444"/>
      <point x="292" y="404" type="qcurve" smooth="yes"/>
    </contour>
  </outline>
</glyph>
<glyph name="C" format="2">
  <advance width="496"/>
  <unicode hex="0043"/>
  <anchor x="248" y="710" name="top"/>
  <outline>
    <contour>
      <point x="103" y="11" type="qcurve" smooth="yes"/>
      <point x="70" y="44" type="line" smooth="yes"/>
      <point x="50" y="64"/>
      <point x="50" y="93" type="qcurve" smooth="yes"/>
      <point x="50" y="608" type="line" smooth="yes"/>
      <point x="50" y="637"/>
      <point x="70" y="657" type="qcurve" smooth="yes"/>
      <point x="103" y="690" type="line" smooth="yes"/>
      <point x="123" y="710"/>
      <point x="152" y="710" type="qcurve" smooth="yes"/>
      <point x="344" y="710" type="line" smooth="yes"/>
      <point x="373" y="710"/>
      <point x="393" y="690" type="qcurve" smooth="yes"/>
      <point x="426" y="657" type="line" smooth="yes"/>
      <point x="446" y="637"/>
      <point x="446" y="608" type="qcurve" smooth="yes"/>
      <point x="446" y="471" type="line" smooth="yes"/>
      <point x="446" y="431"/>
      <point x="406" y="431" type="qcurve" smooth="yes"/>
      <point x="395" y="431" type="line" smooth="yes"/>
      <point x="355" y="431"/>
      <point x="355" y="471" type="qcurve" smooth="yes"/>
      <point x="355" y="579" type="line" smooth="yes"/>
      <point x="355" y="619"/>
      <point x="315" y="619" type="qcurve" smooth="yes"/>
      <point x="181" y="619" type="line" smooth="yes"/>
      <point x="141" y="619"/>
      <point x="141" y="579" type="qcurve" smooth="yes"/>
      <point x="141" y="122" type="line" smooth="yes"/>
      <point x="141" y="82"/>
      <point x="181" y="82" type="qcurve" smooth="yes"/>
      <point x="315" y="82" type="line" smooth="yes"/>
      <point x="355" y="82"/>
      <point x="355" y="122" type="qcurve" smooth="yes"/>
      <point x="355" y="220" type="line" smooth="yes"/>
      <point x="355" y="260"/>
      <point x="395" y="260" type="qcurve" smooth="yes"/>
      <point x="406" y="260" type="line" smooth="yes"/>
      <point x="446" y="260"/>
      <point x="446" y="220" type="qcurve" smooth="yes"/>
      <point x="446" y="93" type="line" smooth="yes"/>
      <point x="446" y="64"/>
      <point x="426" y="44" type="qcurve" smooth="yes"/>
      <point x="393" y="11" type="line" smooth="yes"/>
      <point x="373" y="-9"/>
      <point x="344" y="-9" type="qcurve" smooth="yes"/>
      <point x="152" y="-9" type="line" smooth="yes"/>
      <point x="123" y="-9"/>
    </contour>
  </outline>
</glyph>
<glyph name="G" format="2">
  <advance width="496"/>
  <unicode hex="0047"/>
  <outline>
    <contour>
      <point x="102" y="11" type="qcurve" smooth="yes"/>
      <point x="70" y="43" type="line" smooth="yes"/>
      <point x="50" y="63"/>
      <point x="50" y="92" type="qcurve" smooth="yes"/>
      <point x="50" y="607" type="line" smooth="yes"/>
      <point x="50" y="636"/>
      <point x="70" y="656" type="qcurve" smooth="yes"/>
      <point x="103" y="689" type="line" smooth="yes"/>
      <point x="123" y="709"/>
      <point x="152" y="709" type="qcurve" smooth="yes"/>
      <point x="345" y="709" type="line" smooth="yes"/>
      <point x="373" y="709"/>
      <point x="394" y="688" type="qcurve" smooth="yes"/>
      <point x="426" y="656" type="line" smooth="yes"/>
      <point x="446" y="636"/>
      <point x="446" y="607" type="qcurve" smooth="yes"/>
      <point x="446" y="480" type="line" smooth="yes"/>
      <point x="446" y="440"/>
      <point x="406" y="440" type="qcurve" smooth="yes"/>
      <point x="396" y="440" type="line" smooth="yes"/>
      <point x="356" y="440"/>
      <point x="356" y="480" type="qcurve" smooth="yes"/>
      <point x="356" y="578" type="line" smooth="yes"/>
      <point x="356" y="618"/>
      <point x="316" y="618" type="qcurve" smooth="yes"/>
      <point x="181" y="618" type="line" smooth="yes"/>
      <point x="141" y="618"/>
      <point x="141" y="578" type="qcurve" smooth="yes"/>
      <point x="141" y="122" type="line" smooth="yes"/>
      <point x="141" y="82"/>
      <point x="181" y="82" type="qcurve" smooth="yes"/>
      <point x="316" y="82" type="line" smooth="yes"/>
      <point x="356" y="82"/>
      <point x="356" y="122" type="qcurve" smooth="yes"/>
      <point x="356" y="228" type="line" smooth="yes"/>
      <point x="356" y="268"/>
      <point x="316" y="268" type="qcurve" smooth="yes"/>
      <point x="292" y="268" type="line" smooth="yes"/>
      <point x="252" y="268"/>
      <point x="252" y="308" type="qcurve" smooth="yes"/>
      <point x="252" y="319" type="line" smooth="yes"/>
      <point x="252" y="359"/>
      <point x="292" y="359" type="qcurve" smooth="yes"/>
      <point x="406" y="359" type="line" smooth="yes"/>
      <point x="446" y="359"/>
      <point x="446" y="319" type="qcurve" smooth="yes"/>
      <point x="446" y="93" type="line" smooth="yes"/>
      <point x="447" y="64"/>
      <point x="426" y="43" type="qcurve" smooth="yes"/>
      <point x="394" y="11" type="line" smooth="yes"/>
      <point x="374" y="-9"/>
      <point x="345" y="-9" type="qcurve" smooth="yes"/>
      <point x="152" y="-9" type="line" smooth="yes"/>
      <point x="122" y="-9"/>
    </contour>
  </outline>
</glyph>
<glyph name="J" format="2">
  <advance width="433"/>
  <unicode hex="004A"/>
  <outline>
    <contour>
      <point x="103" y="11" type="qcurve" smooth="yes"/>
      <point x="70" y="44" type="line" smooth="yes"/>
      <point x="50" y="64"/>
      <point x="50" y="93" type="qcurve" smooth="yes"/>
      <point x="50" y="275" type="line" smooth="yes"/>
      <point x="50" y="315"/>
      <point x="90" y="315" type="qcurve" smooth="yes"/>
      <point x="101" y="315" type="line" smooth="yes"/>
      <point x="141" y="315"/>
      <point x="141" y="275" type="qcurve" smooth="yes"/>
      <point x="141" y="122" type="line" smooth="yes"/>
      <point x="141" y="82"/>
      <point x="181" y="82" type="qcurve" smooth="yes"/>
      <point x="252" y="82" type="line" smooth="yes"/>
      <point x="292" y="82"/>
      <point x="292" y="122" type="qcurve" smooth="yes"/>
      <point x="292" y="579" type="line" smooth="yes"/>
      <point x="292" y="619"/>
      <point x="252" y="619" type="qcurve" smooth="yes"/>
      <point x="183" y="619" type="line" smooth="yes"/>
      <point x="143" y="619"/>
      <point x="143" y="659" type="qcurve" smooth="yes"/>
      <point x="143" y="669" type="line" smooth="yes"/>
      <point x="143" y="709"/>
      <point x="183" y="709" type="qcurve" smooth="yes"/>
      <point x="343" y="709" type="line" smooth="yes"/>
      <point x="383" y="709"/>
      <point x="383" y="669" type="qcurve" smooth="yes"/>
      <point x="383" y="93" type="line" smooth="yes"/>
      <point x="383" y="64"/>
      <point x="363" y="44" type="qcurve" smooth="yes"/>
      <point x="330" y="11" type="line" smooth="yes"/>
      <point x="310" y="-9"/>
      <point x="281" y="-9" type="qcurve" smooth="yes"/>
      <point x="152" y="-9" type="line" smooth="yes"/>
      <point x="123" y="-9"/>
    </contour>
  </outline>
</glyph>
<glyph name="M" format="2">
  <advance width="617"/>
  <unicode hex="004D"/>
  <anchor x="309" y="710" name="top"/>
  <outline>
    <contour>
      <point x="90" y="-8" type="line" smooth="yes"/>
      <point x="50" y="-8"/>
      <point x="50" y="32" type="qcurve" smooth="yes"/>
      <point x="50" y="669" type="line" smooth="yes"/>
      <point x="50" y="709"/>
      <point x="90" y="709" type="qcurve" smooth="yes"/>
      <point x="105" y="709" type="line" smooth="yes"/>
      <point x="140" y="709"/>
      <point x="150" y="676" type="qcurve" smooth="yes"/>
      <point x="286" y="241" type="line" smooth="yes"/>
      <point x="290" y="227"/>
      <point x="304" y="213"/>
      <point x="311" y="213" type="qcurve" smooth="yes"/>
      <point x="319" y="213"/>
      <point x="333" y="228"/>
      <point x="337" y="242" type="qcurve" smooth="yes"/>
      <point x="465" y="675" type="line" smooth="yes"/>
      <point x="475" y="709"/>
      <point x="510" y="709" type="qcurve" smooth="yes"/>
      <point x="527" y="709" type="line" smooth="yes"/>
      <point x="567" y="709"/>
      <point x="567" y="669" type="qcurve" smooth="yes"/>
      <point x="567" y="32" type="line" smooth="yes"/>
      <point x="567" y="-8"/>
      <point x="527" y="-8" type="qcurve" smooth="yes"/>
      <point x="517" y="-8" type="line" smooth="yes"/>
      <point x="477" y="-8"/>
      <point x="477" y="32" type="qcurve" smooth="yes"/>
      <point x="477" y="269" type="line" smooth="yes"/>
      <point x="477" y="283"/>
      <point x="465" y="298"/>
      <point x="456" y="298" type="qcurve" smooth="yes"/>
      <point x="439" y="298"/>
      <point x="433" y="276" type="qcurve" smooth="yes"/>
      <point x="378" y="88" type="line"/>
      <point x="367" y="54"/>
      <point x="333" y="54" type="qcurve" smooth="yes"/>
      <point x="294" y="54" type="line" smooth="yes"/>
      <point x="258" y="54"/>
      <point x="248" y="87" type="qcurve" smooth="yes"/>
      <point x="185" y="287" type="line" smooth="yes"/>
      <point x="181" y="298"/>
      <point x="168" y="310"/>
      <point x="161" y="310" type="qcurve" smooth="yes"/>
      <point x="152" y="310"/>
      <point x="140" y="294"/>
      <point x="140" y="280" type="qcurve" smooth="yes"/>
      <point x="140" y="32" type="line" smooth="yes"/>
      <point x="140" y="-8"/>
      <point x="100" y="-8" type="qcurve" smooth="yes"/>
    </contour>
  </outline>
</glyph>
<glyph name="N" format="2">
  <advance width="505"/>
  <unicode hex="004E"/>
  <anchor x="253" y="710" name="top"/>
  <outline>
    <contour>
      <point x="90" y="-9" type="line" smooth="yes"/>
      <point x="50" y="-9"/>
      <point x="50" y="31" type="qcurve" smooth="yes"/>
      <point x="50" y="670" type="line" smooth="yes"/>
      <point x="50" y="710"/>
      <point x="90" y="710" type="qcurve" smooth="yes"/>
      <point x="110" y="710" type="line" smooth="yes"/>
      <point x="143" y="710"/>
      <point x="156" y="680" type="qcurve" smooth="yes"/>
      <point x="317" y="309" type="line" smooth="yes"/>
      <point x="322" y="298"/>
      <point x="337" y="285"/>
      <point x="344" y="285" type="qcurve" smooth="yes"/>
      <point x="353" y="285"/>
      <point x="364" y="302"/>
      <point x="364" y="318" type="qcurve" smooth="yes"/>
      <point x="364" y="670" type="line" smooth="yes"/>
      <point x="364" y="710"/>
      <point x="404" y="710" type="qcurve" smooth="yes"/>
      <point x="415" y="710" type="line" smooth="yes"/>
      <point x="455" y="710"/>
      <point x="455" y="670" type="qcurve" smooth="yes"/>
      <point x="455" y="31" type="line" smooth="yes"/>
      <point x="455" y="-9"/>
      <point x="415" y="-9" type="qcurve" smooth="yes"/>
      <point x="404" y="-9" type="line" smooth="yes"/>
      <point x="371" y="-9"/>
      <point x="358" y="21" type="qcurve" smooth="yes"/>
      <point x="188" y="410" type="line" smooth="yes"/>
      <point x="178" y="434"/>
      <point x="162" y="434" type="qcurve" smooth="yes"/>
      <point x="153" y="434"/>
      <point x="141" y="416"/>
      <point x="141" y="400" type="qcurve" smooth="yes"/>
      <point x="141" y="31" type="line" smooth="yes"/>
      <point x="141" y="-9"/>
      <point x="101" y="-9" type="qcurve" smooth="yes"/>
    </contour>
  </outline>
</glyph>
<glyph name="O" format="2">
  <advance width="496"/>
  <unicode hex="004F"/>
  <anchor x="462" y="753" name="Odot"/>
  <anchor x="248" y="710" name="top"/>
  <outline>
    <contour>
      <point x="70" y="44" type="line" smooth="yes"/>
      <point x="50" y="64"/>
      <point x="50" y="93" type="qcurve" smooth="yes"/>
      <point x="50" y="609" type="line" smooth="yes"/>
      <point x="49" y="638"/>
      <point x="70" y="659" type="qcurve" smooth="yes"/>
      <point x="102" y="691" type="line" smooth="yes"/>
      <point x="122" y="711"/>
      <point x="151" y="711" type="qcurve" smooth="yes"/>
      <point x="345" y="711" type="line" smooth="yes"/>
      <point x="373" y="711"/>
      <point x="394" y="690" type="qcurve" smooth="yes"/>
      <point x="426" y="658" type="line" smooth="yes"/>
      <point x="446" y="638"/>
      <point x="446" y="609" type="qcurve" smooth="yes"/>
      <point x="446" y="93" type="line" smooth="yes"/>
      <point x="447" y="64"/>
      <point x="426" y="43" type="qcurve" smooth="yes"/>
      <point x="394" y="11" type="line" smooth="yes"/>
      <point x="374" y="-9"/>
      <point x="345" y="-9" type="qcurve" smooth="yes"/>
      <point x="152" y="-9" type="line" smooth="yes"/>
      <point x="123" y="-9"/>
      <point x="103" y="11" type="qcurve" smooth="yes"/>
    </contour>
    <contour>
      <point x="141" y="122" type="line" smooth="yes"/>
      <point x="141" y="82"/>
      <point x="181" y="82" type="qcurve" smooth="yes"/>
      <point x="315" y="82" type="line" smooth="yes"/>
      <point x="355" y="82"/>
      <point x="355" y="122" type="qcurve" smooth="yes"/>
      <point x="355" y="580" type="line" smooth="yes"/>
      <point x="355" y="620"/>
      <point x="315" y="620" type="qcurve" smooth="yes"/>
      <point x="181" y="620" type="line" smooth="yes"/>
      <point x="141" y="620"/>
      <point x="141" y="580" type="qcurve" smooth="yes"/>
    </contour>
  </outline>
</glyph>
<glyph name="Q" format="2">
  <advance width="494"/>
  <unicode hex="0051"/>
  <outline>
    <contour>
      <point x="102" y="53" type="qcurve" smooth="yes"/>
      <point x="70" y="85" type="line" smooth="yes"/>
      <point x="50" y="105"/>
      <point x="50" y="134" type="qcurve" smooth="yes"/>
      <point x="50" y="608" type="line" smooth="yes"/>
      <point x="49" y="637"/>
      <point x="70" y="658" type="qcurve" smooth="yes"/>
      <point x="102" y="690" type="line" smooth="yes"/>
      <point x="122" y="710"/>
      <point x="151" y="710" type="qcurve" smooth="yes"/>
      <point x="343" y="710" type="line" smooth="yes"/>
      <point x="371" y="710"/>
      <point x="392" y="689" type="qcurve" smooth="yes"/>
      <point x="424" y="657" type="line" smooth="yes"/>
      <point x="444" y="637"/>
      <point x="444" y="608" type="qcurve" smooth="yes"/>
      <point x="444" y="134" type="line" smooth="yes"/>
      <point x="444" y="105"/>
      <point x="424" y="85" type="qcurve" smooth="yes"/>
      <point x="392" y="53" type="line" smooth="yes"/>
      <point x="372" y="33"/>
      <point x="343" y="33" type="qcurve" smooth="yes"/>
      <point x="319" y="33" type="line" smooth="yes"/>
      <point x="300" y="33"/>
      <point x="279" y="22"/>
      <point x="279" y="12" type="qcurve" smooth="yes"/>
      <point x="279" y="2"/>
      <point x="300" y="-9"/>
      <point x="319" y="-9" type="qcurve" smooth="yes"/>
      <point x="404" y="-8" type="line" smooth="yes"/>
      <point x="444" y="-8"/>
      <point x="444" y="-48" type="qcurve" smooth="yes"/>
      <point x="444" y="-59" type="line" smooth="yes"/>
      <point x="444" y="-99"/>
      <point x="404" y="-99" type="qcurve" smooth="yes"/>
      <point x="290" y="-99" type="line" smooth="yes"/>
      <point x="260" y="-99"/>
      <point x="240" y="-79" type="qcurve" smooth="yes"/>
      <point x="208" y="-47" type="line" smooth="yes"/>
      <point x="188" y="-27"/>
      <point x="188" y="2" type="qcurve" smooth="yes"/>
      <point x="188" y="17"/>
      <point x="171" y="33"/>
      <point x="155" y="33" type="qcurve" smooth="yes"/>
      <point x="151" y="33" type="line" smooth="yes"/>
      <point x="122" y="33"/>
    </contour>
    <contour>
      <point x="140" y="163" type="line" smooth="yes"/>
      <point x="140" y="123"/>
      <point x="180" y="123" type="qcurve" smooth="yes"/>
      <point x="314" y="123" type="line" smooth="yes"/>
      <point x="354" y="123"/>
      <point x="354" y="163" type="qcurve" smooth="yes"/>
      <point x="354" y="579" type="line" smooth="yes"/>
      <point x="354" y="619"/>
      <point x="314" y="619" type="qcurve" smooth="yes"/>
      <point x="180" y="619" type="line" smooth="yes"/>
      <point x="140" y="619"/>
      <point x="140" y="579" type="qcurve" smooth="yes"/>
    </contour>
  </outline>
</glyph>
<glyph name="R" format="2">
  <advance width="485"/>
  <unicode hex="0052"/>
  <outline>
    <contour>
      <point x="90" y="-8" type="line" smooth="yes"/>
      <point x="50" y="-8"/>
      <point x="50" y="32" type="qcurve" smooth="yes"/>
      <point x="50" y="669" type="line" smooth="yes"/>
      <point x="50" y="709"/>
      <point x="90" y="709" type="qcurve" smooth="yes"/>
      <point x="343" y="709" type="line" smooth="yes"/>
      <point x="372" y="709"/>
      <point x="392" y="689" type="qcurve" smooth="yes"/>
      <point x="425" y="656" type="line" smooth="yes"/>
      <point x="445" y="636"/>
      <point x="445" y="607" type="qcurve" smooth="yes"/>
      <point x="445" y="388" type="line" smooth="yes"/>
      <point x="445" y="373"/>
      <point x="436" y="347"/>
      <point x="425" y="336" type="qcurve" smooth="yes"/>
      <point x="396" y="307" type="line" smooth="yes"/>
      <point x="376" y="287"/>
      <point x="370" y="287" type="qcurve" smooth="yes"/>
      <point x="363" y="287"/>
      <point x="363" y="247" type="qcurve" smooth="yes"/>
      <point x="363" y="122" type="line" smooth="yes"/>
      <point x="363" y="82"/>
      <point x="403" y="82" type="qcurve" smooth="yes"/>
      <point x="416" y="82" type="line" smooth="yes"/>
      <point x="456" y="82"/>
      <point x="456" y="42" type="qcurve" smooth="yes"/>
      <point x="456" y="31" type="line" smooth="yes"/>
      <point x="456" y="-9"/>
      <point x="416" y="-9" type="qcurve" smooth="yes"/>
      <point x="374" y="-9" type="line" smooth="yes"/>
      <point x="345" y="-9"/>
      <point x="325" y="11" type="qcurve" smooth="yes"/>
      <point x="292" y="44" type="line" smooth="yes"/>
      <point x="272" y="64"/>
      <point x="272" y="93" type="qcurve" smooth="yes"/>
      <point x="272" y="247" type="line" smooth="yes"/>
      <point x="272" y="287"/>
      <point x="232" y="287" type="qcurve" smooth="yes"/>
      <point x="181" y="287" type="line" smooth="yes"/>
      <point x="141" y="287"/>
      <point x="141" y="247" type="qcurve" smooth="yes"/>
      <point x="141" y="32" type="line" smooth="yes"/>
      <point x="141" y="-8"/>
      <point x="101" y="-8" type="qcurve" smooth="yes"/>
    </contour>
    <contour>
      <point x="141" y="417" type="line" smooth="yes"/>
      <point x="141" y="377"/>
      <point x="181" y="377" type="qcurve" smooth="yes"/>
      <point x="314" y="377" type="line" smooth="yes"/>
      <point x="354" y="377"/>
      <point x="354" y="417" type="qcurve" smooth="yes"/>
      <point x="354" y="578" type="line" smooth="yes"/>
      <point x="354" y="618"/>
      <point x="314" y="618" type="qcurve" smooth="yes"/>
      <point x="181" y="618" type="line" smooth="yes"/>
      <point x="141" y="618"/>
      <point x="141" y="578" type="qcurve" smooth="yes"/>
    </contour>
  </outline>
</glyph>
<glyph name="V" format="2">
  <advance width="471"/>
  <unicode hex="0056"/>
  <outline>
    <contour>
      <point x="157" y="26" type="qcurve" smooth="yes"/>
      <point x="2" y="666" type="line" smooth="yes"/>
      <point x="0" y="676"/>
      <point x="0" y="679" type="qcurve" smooth="yes"/>
      <point x="0" y="693"/>
      <point x="20" y="710"/>
      <point x="37" y="710" type="qcurve" smooth="yes"/>
      <point x="48" y="710" type="line" smooth="yes"/>
      <point x="84" y="710"/>
      <point x="92" y="675" type="qcurve" smooth="yes"/>
      <point x="223" y="117" type="line" smooth="yes"/>
      <point x="231" y="82"/>
      <point x="237" y="82" type="qcurve" smooth="yes"/>
      <point x="243" y="82"/>
      <point x="251" y="117" type="qcurve" smooth="yes"/>
      <point x="379" y="675" type="line" smooth="yes"/>
      <point x="387" y="710"/>
      <point x="423" y="710" type="qcurve" smooth="yes"/>
      <point x="435" y="710" type="line" smooth="yes"/>
      <point x="471" y="710"/>
      <point x="471" y="678" type="qcurve" smooth="yes"/>
      <point x="471" y="670"/>
      <point x="470" y="666" type="qcurve" smooth="yes"/>
      <point x="318" y="26" type="line" smooth="yes"/>
      <point x="310" y="-9"/>
      <point x="274" y="-9" type="qcurve" smooth="yes"/>
      <point x="201" y="-9" type="line" smooth="yes"/>
      <point x="166" y="-9"/>
    </contour>
  </outline>
</glyph>
<glyph name="W" format="2">
  <advance width="577"/>
  <unicode hex="0057"/>
  <outline>
    <contour>
      <point x="84" y="29" type="qcurve" smooth="yes"/>
      <point x="20" y="668" type="line" smooth="yes"/>
      <point x="18" y="688"/>
      <point x="38" y="710"/>
      <point x="58" y="710" type="qcurve" smooth="yes"/>
      <point x="69" y="710" type="line" smooth="yes"/>
      <point x="107" y="710"/>
      <point x="111" y="672" type="qcurve" smooth="yes"/>
      <point x="149" y="325" type="line"/>
      <point x="150" y="310"/>
      <point x="163" y="293"/>
      <point x="172" y="293" type="qcurve" smooth="yes"/>
      <point x="179" y="293"/>
      <point x="193" y="307"/>
      <point x="198" y="319" type="qcurve"/>
      <point x="236" y="422" type="line" smooth="yes"/>
      <point x="248" y="454"/>
      <point x="282" y="454" type="qcurve" smooth="yes"/>
      <point x="295" y="454" type="line" smooth="yes"/>
      <point x="329" y="454"/>
      <point x="341" y="422" type="qcurve" smooth="yes"/>
      <point x="379" y="321" type="line" smooth="yes"/>
      <point x="384" y="309"/>
      <point x="398" y="295"/>
      <point x="405" y="295" type="qcurve" smooth="yes"/>
      <point x="414" y="295"/>
      <point x="427" y="312"/>
      <point x="428" y="327" type="qcurve"/>
      <point x="466" y="672" type="line" smooth="yes"/>
      <point x="470" y="710"/>
      <point x="508" y="710" type="qcurve" smooth="yes"/>
      <point x="519" y="710" type="line" smooth="yes"/>
      <point x="539" y="710"/>
      <point x="559" y="688"/>
      <point x="557" y="668" type="qcurve" smooth="yes"/>
      <point x="493" y="29" type="line" smooth="yes"/>
      <point x="489" y="-9"/>
      <point x="451" y="-9" type="qcurve" smooth="yes"/>
      <point x="437" y="-9" type="line" smooth="yes"/>
      <point x="403" y="-9"/>
      <point x="391" y="23" type="qcurve" smooth="yes"/>
      <point x="315" y="232" type="line"/>
      <point x="306" y="259"/>
      <point x="289" y="259" type="qcurve" smooth="yes"/>
      <point x="274" y="259"/>
      <point x="263" y="232" type="qcurve"/>
      <point x="188" y="23" type="line" smooth="yes"/>
      <point x="176" y="-9"/>
      <point x="142" y="-9" type="qcurve" smooth="yes"/>
      <point x="126" y="-9" type="line" smooth="yes"/>
      <point x="88" y="-9"/>
    </contour>
  </outline>
</glyph>
<glyph name="Y" format="2">
  <advance width="453"/>
  <unicode hex="0059"/>
  <outline>
    <contour>
      <point x="182" y="30" type="qcurve" smooth="yes"/>
      <point x="182" y="336" type="line" smooth="yes"/>
      <point x="182" y="363"/>
      <point x="169" y="386" type="qcurve" smooth="yes"/>
      <point x="9" y="661" type="line" smooth="yes"/>
      <point x="2" y="672"/>
      <point x="2" y="684" type="qcurve" smooth="yes"/>
      <point x="2" y="695"/>
      <point x="20" y="709"/>
      <point x="36" y="709" type="qcurve" smooth="yes"/>
      <point x="42" y="709" type="line" smooth="yes"/>
      <point x="74" y="709"/>
      <point x="90" y="681" type="qcurve" smooth="yes"/>
      <point x="205" y="482" type="line" smooth="yes"/>
      <point x="221" y="454"/>
      <point x="227" y="454" type="qcurve" smooth="yes"/>
      <point x="233" y="454"/>
      <point x="249" y="482" type="qcurve" smooth="yes"/>
      <point x="362" y="681" type="line" smooth="yes"/>
      <point x="378" y="709"/>
      <point x="410" y="709" type="qcurve" smooth="yes"/>
      <point x="416" y="709" type="line" smooth="yes"/>
      <point x="432" y="709"/>
      <point x="451" y="694"/>
      <point x="451" y="683" type="qcurve" smooth="yes"/>
      <point x="451" y="672"/>
      <point x="444" y="661" type="qcurve"/>
      <point x="286" y="386" type="line" smooth="yes"/>
      <point x="273" y="363"/>
      <point x="273" y="336" type="qcurve" smooth="yes"/>
      <point x="273" y="30" type="line" smooth="yes"/>
      <point x="273" y="-10"/>
      <point x="233" y="-10" type="qcurve" smooth="yes"/>
      <point x="222" y="-10" type="line" smooth="yes"/>
      <point x="182" y="-10"/>
    </contour>
  </outline>
</glyph>
<glyph name="Z" format="2">
  <advance width="497"/>
  <unicode hex="005A"/>
  <anchor x="249" y="710" name="top"/>
  <outline>
    <contour>
      <point x="90" y="-9" type="line" smooth="yes"/>
      <point x="50" y="-9"/>
      <point x="50" y="31" type="qcurve" smooth="yes"/>
      <point x="50" y="81" type="line" smooth="yes"/>
      <point x="50" y="109"/>
      <point x="64" y="131" type="qcurve"/>
      <point x="327" y="574" type="line"/>
      <point x="334" y="587"/>
      <point x="334" y="597" type="qcurve" smooth="yes"/>
      <point x="334" y="608"/>
      <point x="316" y="622"/>
      <point x="300" y="622" type="qcurve" smooth="yes"/>
      <point x="90" y="622" type="line" smooth="yes"/>
      <point x="50" y="622"/>
      <point x="50" y="662" type="qcurve" smooth="yes"/>
      <point x="50" y="673" type="line" smooth="yes"/>
      <point x="50" y="713"/>
      <point x="90" y="713" type="qcurve" smooth="yes"/>
      <point x="407" y="713" type="line" smooth="yes"/>
      <point x="447" y="713"/>
      <point x="447" y="673" type="qcurve" smooth="yes"/>
      <point x="447" y="620" type="line" smooth="yes"/>
      <point x="447" y="592"/>
      <point x="433" y="570" type="qcurve"/>
      <point x="172" y="130" type="line"/>
      <point x="165" y="117"/>
      <point x="165" y="107" type="qcurve" smooth="yes"/>
      <point x="165" y="96"/>
      <point x="183" y="82"/>
      <point x="199" y="82" type="qcurve" smooth="yes"/>
      <point x="407" y="82" type="line" smooth="yes"/>
      <point x="447" y="82"/>
      <point x="447" y="42" type="qcurve" smooth="yes"/>
      <point x="447" y="31" type="line" smooth="yes"/>
      <point x="447" y="-9"/>
      <point x="407" y="-9" type="qcurve" smooth="yes"/>
    </contour>
  </outline>
</glyph>
<glyph name="bracketright" format="2">
  <advance width="285"/>
  <unicode hex="005D"/>
  <outline>
    <contour>
      <point x="50" y="-99" type="line" smooth="yes"/>
      <point x="10" y="-99"/>
      <point x="10" y="-59" type="qcurve" smooth="yes"/>
      <point x="10" y="-37" type="line" smooth="yes"/>
      <point x="10" y="3"/>
      <point x="50" y="3" type="qcurve" smooth="yes"/>
      <point x="95" y="3" type="line" smooth="yes"/>
      <point x="135" y="3"/>
      <point x="135" y="43" type="qcurve" smooth="yes"/>
      <point x="135" y="669" type="line" smooth="yes"/>
      <point x="135" y="709"/>
      <point x="95" y="709" type="qcurve" smooth="yes"/>
      <point x="50" y="709" type="line" smooth="yes"/>
      <point x="10" y="709"/>
      <point x="10" y="749" type="qcurve" smooth="yes"/>
      <point x="10" y="769" type="line" smooth="yes"/>
      <point x="10" y="809"/>
      <point x="50" y="809" type="qcurve" smooth="yes"/>
      <point x="195" y="809" type="line" smooth="yes"/>
      <point x="235" y="809"/>
      <point x="235" y="769" type="qcurve" smooth="yes"/>
      <point x="235" y="-59" type="line" smooth="yes"/>
      <point x="235" y="-99"/>
      <point x="195" y="-99" type="qcurve" smooth="yes"/>
    </contour>
  </outline>
</glyph>
<glyph name="asciicircum" format="2">
  <advance width="531"/>
  <unicode hex="005E"/>
  <outline>
    <contour>
      <point x="40" y="381" type="qcurve" smooth="yes"/>
      <point x="40" y="390"/>
      <point x="48" y="404" type="qcurve"/>
      <point x="236" y="703" type="line" smooth="yes"/>
      <point x="248" y="723"/>
      <point x="264" y="723" type="qcurve" smooth="yes"/>
      <point x="280" y="723"/>
      <point x="292" y="703" type="qcurve"/>
      <point x="483" y="404" type="line" smooth="yes"/>
      <point x="491" y="392"/>
      <point x="491" y="379" type="qcurve" smooth="yes"/>
      <point x="491" y="356"/>
      <point x="460" y="356" type="qcurve" smooth="yes"/>
      <point x="437" y="356" type="line" smooth="yes"/>
      <point x="405" y="356"/>
      <point x="389" y="383" type="qcurve" smooth="yes"/>
      <point x="292" y="543" type="line" smooth="yes"/>
      <point x="280" y="563"/>
      <point x="265" y="563" type="qcurve" smooth="yes"/>
      <point x="249" y="563"/>
      <point x="237" y="542" type="qcurve" smooth="yes"/>
      <point x="143" y="383" type="line" smooth="yes"/>
      <point x="127" y="356"/>
      <point x="95" y="356" type="qcurve" smooth="yes"/>
      <point x="75" y="356" type="line" smooth="yes"/>
      <point x="59" y="356"/>
      <point x="40" y="370"/>
    </contour>
  </outline>
</glyph>
<glyph name="d" format="2">
  <advance width="425"/>
  <unicode hex="0064"/>
  <outline>
    <contour>
      <point x="103" y="11" type="qcurve" smooth="yes"/>
      <point x="70" y="44" type="line" smooth="yes"/>
      <point x="50" y="64"/>
      <point x="50" y="93" type="qcurve" smooth="yes"/>
      <point x="50" y="384" type="line" smooth="yes"/>
      <point x="50" y="413"/>
      <point x="70" y="433" type="qcurve" smooth="yes"/>
      <point x="102" y="465" type="line" smooth="yes"/>
      <point x="122" y="485"/>
      <point x="152" y="485" type="qcurve" smooth="yes"/>
      <point x="244" y="485" type="line" smooth="yes"/>
      <point x="284" y="485"/>
      <point x="284" y="525" type="qcurve" smooth="yes"/>
      <point x="284" y="669" type="line" smooth="yes"/>
      <point x="284" y="709"/>
      <point x="324" y="709" type="qcurve" smooth="yes"/>
      <point x="335" y="709" type="line" smooth="yes"/>
      <point x="375" y="709"/>
      <point x="375" y="669" type="qcurve" smooth="yes"/>
      <point x="375" y="31" type="line" smooth="yes"/>
      <point x="375" y="-9"/>
      <point x="335" y="-9" type="qcurve" smooth="yes"/>
      <point x="152" y="-9" type="line" smooth="yes"/>
      <point x="123" y="-9"/>
    </contour>
    <contour>
      <point x="141" y="122" type="line" smooth="yes"/>
      <point x="141" y="82"/>
      <point x="181" y="82" type="qcurve" smooth="yes"/>
      <point x="244" y="82" type="line" smooth="yes"/>
      <point x="284" y="82"/>
      <point x="284" y="122" type="qcurve" smooth="yes"/>
      <point x="284" y="354" type="line" smooth="yes"/>
      <point x="284" y="394"/>
      <point x="244" y="394" type="qcurve" smooth="yes"/>
      <point x="181" y="394" type="line" smooth="yes"/>
      <point x="141" y="394"/>
      <point x="141" y="354" type="qcurve" smooth="yes"/>
    </contour>
  </outline>
</glyph>
<glyph name="f" format="2">
  <advance width="303"/>
  <unicode hex="0066"/>
  <outline>
    <contour>
      <point x="102" y="32" type="qcurve" smooth="yes"/>
      <point x="102" y="354" type="line" smooth="yes"/>
      <point x="102" y="373"/>
      <point x="83" y="394"/>
      <point x="66" y="394" type="qcurve" smooth="yes"/>
      <point x="49" y="394"/>
      <point x="30" y="415"/>
      <point x="30" y="434" type="qcurve" smooth="yes"/>
      <point x="30" y="445" type="line" smooth="yes"/>
      <point x="30" y="464"/>
      <point x="49" y="485"/>
      <point x="66" y="485" type="qcurve" smooth="yes"/>
      <point x="83" y="485"/>
      <point x="102" y="506"/>
      <point x="102" y="525" type="qcurve" smooth="yes"/>
      <point x="102" y="608" type="line" smooth="yes"/>
      <point x="101" y="637"/>
      <point x="122" y="658" type="qcurve" smooth="yes"/>
      <point x="154" y="690" type="line" smooth="yes"/>
      <point x="174" y="710"/>
      <point x="203" y="710" type="qcurve" smooth="yes"/>
      <point x="243" y="710" type="line" smooth="yes"/>
      <point x="283" y="710"/>
      <point x="283" y="670" type="qcurve" smooth="yes"/>
      <point x="283" y="659" type="line" smooth="yes"/>
      <point x="283" y="619"/>
      <point x="243" y="619" type="qcurve" smooth="yes"/>
      <point x="232" y="619" type="line" smooth="yes"/>
      <point x="192" y="619"/>
      <point x="192" y="579" type="qcurve" smooth="yes"/>
      <point x="192" y="525" type="line" smooth="yes"/>
      <point x="192" y="485"/>
      <point x="232" y="485" type="qcurve" smooth="yes"/>
      <point x="243" y="485" type="line" smooth="yes"/>
      <point x="283" y="485"/>
      <point x="283" y="445" type="qcurve" smooth="yes"/>
      <point x="283" y="434" type="line" smooth="yes"/>
      <point x="283" y="394"/>
      <point x="243" y="394" type="qcurve" smooth="yes"/>
      <point x="232" y="394" type="line" smooth="yes"/>
      <point x="192" y="394"/>
      <point x="192" y="354" type="qcurve" smooth="yes"/>
      <point x="192" y="32" type="line" smooth="yes"/>
      <point x="192" y="-8"/>
      <point x="152" y="-8" type="qcurve" smooth="yes"/>
      <point x="142" y="-8" type="line" smooth="yes"/>
      <point x="102" y="-8"/>
    </contour>
  </outline>
</glyph>
<glyph name="g" format="2">
  <advance width="436"/>
  <unicode hex="0067"/>
  <outline>
    <contour>
      <point x="59" y="-180" type="qcurve" smooth="yes"/>
      <point x="59" y="-170" type="line" smooth="yes"/>
      <point x="59" y="-130"/>
      <point x="99" y="-130" type="qcurve" smooth="yes"/>
      <point x="245" y="-130" type="line" smooth="yes"/>
      <point x="285" y="-130"/>
      <point x="285" y="-90" type="qcurve" smooth="yes"/>
      <point x="285" y="-27" type="line" smooth="yes"/>
      <point x="285" y="13"/>
      <point x="245" y="13" type="qcurve" smooth="yes"/>
      <point x="152" y="13" type="line" smooth="yes"/>
      <point x="122" y="13"/>
      <point x="102" y="33" type="qcurve" smooth="yes"/>
      <point x="70" y="65" type="line" smooth="yes"/>
      <point x="50" y="85"/>
      <point x="50" y="114" type="qcurve" smooth="yes"/>
      <point x="50" y="383" type="line" smooth="yes"/>
      <point x="50" y="412"/>
      <point x="70" y="432" type="qcurve" smooth="yes"/>
      <point x="103" y="465" type="line" smooth="yes"/>
      <point x="123" y="485"/>
      <point x="152" y="485" type="qcurve" smooth="yes"/>
      <point x="336" y="485" type="line" smooth="yes"/>
      <point x="376" y="485"/>
      <point x="376" y="445" type="qcurve" smooth="yes"/>
      <point x="376" y="-119" type="line" smooth="yes"/>
      <point x="376" y="-134"/>
      <point x="366" y="-157"/>
      <point x="355" y="-168" type="qcurve" smooth="yes"/>
      <point x="323" y="-200" type="line" smooth="yes"/>
      <point x="303" y="-220"/>
      <point x="274" y="-220" type="qcurve" smooth="yes"/>
      <point x="99" y="-220" type="line" smooth="yes"/>
      <point x="59" y="-220"/>
    </contour>
    <contour>
      <point x="141" y="144" type="line" smooth="yes"/>
      <point x="141" y="104"/>
      <point x="181" y="104" type="qcurve" smooth="yes"/>
      <point x="245" y="104" type="line" smooth="yes"/>
      <point x="285" y="104"/>
      <point x="285" y="144" type="qcurve" smooth="yes"/>
      <point x="285" y="354" type="line" smooth="yes"/>
      <point x="285" y="394"/>
      <point x="245" y="394" type="qcurve" smooth="yes"/>
      <point x="181" y="394" type="line" smooth="yes"/>
      <point x="141" y="394"/>
      <point x="141" y="354" type="qcurve" smooth="yes"/>
    </contour>
  </outline>
</glyph>
<glyph name="i" format="2">
  <advance width="212"/>
  <unicode hex="0069"/>
  <outline>
    <contour>
      <point x="75" y="555" type="qcurve" smooth="yes"/>
      <point x="60" y="570"/>
      <point x="60" y="586" type="qcurve" smooth="yes"/>
      <point x="60" y="602"/>
      <point x="75" y="617" type="qcurve" smooth="yes"/>
      <point x="90" y="632"/>
      <point x="106" y="632" type="qcurve" smooth="yes"/>
      <point x="122" y="632"/>
      <point x="137" y="617" type="qcurve" smooth="yes"/>
      <point x="152" y="602"/>
      <point x="152" y="586" type="qcurve" smooth="yes"/>
      <point x="152" y="570"/>
      <point x="137" y="555" type="qcurve" smooth="yes"/>
      <point x="122" y="540"/>
      <point x="106" y="540" type="qcurve" smooth="yes"/>
      <point x="90" y="540"/>
    </contour>
    <contour>
      <point x="101" y="-9" type="line" smooth="yes"/>
      <point x="61" y="-9"/>
      <point x="61" y="31" type="qcurve" smooth="yes"/>
      <point x="61" y="445" type="line" smooth="yes"/>
      <point x="61" y="485"/>
      <point x="101" y="485" type="qcurve" smooth="yes"/>
      <point x="111" y="485" type="line" smooth="yes"/>
      <point x="151" y="485"/>
      <point x="151" y="445" type="qcurve" smooth="yes"/>
      <point x="151" y="31" type="line" smooth="yes"/>
      <point x="151" y="-9"/>
      <point x="111" y="-9" type="qcurve" smooth="yes"/>
    </contour>
  </outline>
</glyph>
<glyph name="j" format="2">
  <advance width="210"/>
  <unicode hex="006A"/>
  <outline>
    <contour>
      <point x="73" y="554" type="qcurve" smooth="yes"/>
      <point x="58" y="569"/>
      <point x="58" y="585" type="qcurve" smooth="yes"/>
      <point x="58" y="601"/>
      <point x="73" y="616" type="qcurve" smooth="yes"/>
      <point x="88" y="631"/>
      <point x="104" y="631" type="qcurve" smooth="yes"/>
      <point x="120" y="631"/>
      <point x="135" y="616" type="qcurve" smooth="yes"/>
      <point x="150" y="601"/>
      <point x="150" y="585" type="qcurve" smooth="yes"/>
      <point x="150" y="569"/>
      <point x="135" y="554" type="qcurve" smooth="yes"/>
      <point x="120" y="539"/>
      <point x="104" y="539" type="qcurve" smooth="yes"/>
      <point x="88" y="539"/>
    </contour>
    <contour>
      <point x="30" y="-179" type="line" smooth="yes"/>
      <point x="-10" y="-179"/>
      <point x="-10" y="-139" type="qcurve" smooth="yes"/>
      <point x="-10" y="-128" type="line" smooth="yes"/>
      <point x="-10" y="-88"/>
      <point x="24" y="-88" type="qcurve" smooth="yes"/>
      <point x="41" y="-88"/>
      <point x="59" y="-67"/>
      <point x="59" y="-48" type="qcurve" smooth="yes"/>
      <point x="59" y="445" type="line" smooth="yes"/>
      <point x="59" y="485"/>
      <point x="99" y="485" type="qcurve" smooth="yes"/>
      <point x="110" y="485" type="line" smooth="yes"/>
      <point x="150" y="485"/>
      <point x="150" y="445" type="qcurve" smooth="yes"/>
      <point x="150" y="-77" type="line" smooth="yes"/>
      <point x="150" y="-106"/>
      <point x="130" y="-126" type="qcurve" smooth="yes"/>
      <point x="97" y="-159" type="line" smooth="yes"/>
      <point x="77" y="-179"/>
      <point x="48" y="-179" type="qcurve" smooth="yes"/>
    </contour>
  </outline>
</glyph>
<glyph name="m" format="2">
  <advance width="592"/>
  <unicode hex="006D"/>
  <anchor x="296" y="485" name="top"/>
  <outline>
    <contour>
      <point x="100" y="-8" type="line" smooth="yes"/>
      <point x="60" y="-8"/>
      <point x="60" y="32" type="qcurve" smooth="yes"/>
      <point x="60" y="383" type="line" smooth="yes"/>
      <point x="60" y="413"/>
      <point x="80" y="433" type="qcurve" smooth="yes"/>
      <point x="112" y="465" type="line" smooth="yes"/>
      <point x="132" y="485"/>
      <point x="161" y="485" type="qcurve" smooth="yes"/>
      <point x="224" y="485" type="line" smooth="yes"/>
      <point x="239" y="485"/>
      <point x="262" y="475"/>
      <point x="273" y="464" type="qcurve" smooth="yes"/>
      <point x="286" y="451"/>
      <point x="299" y="451" type="qcurve" smooth="yes"/>
      <point x="310" y="451"/>
      <point x="321" y="462" type="qcurve" smooth="yes"/>
      <point x="323" y="464" type="line" smooth="yes"/>
      <point x="334" y="475"/>
      <point x="357" y="485"/>
      <point x="372" y="485" type="qcurve" smooth="yes"/>
      <point x="431" y="485" type="line" smooth="yes"/>
      <point x="446" y="485"/>
      <point x="469" y="475"/>
      <point x="480" y="464" type="qcurve" smooth="yes"/>
      <point x="512" y="432" type="line" smooth="yes"/>
      <point x="532" y="412"/>
      <point x="532" y="383" type="qcurve" smooth="yes"/>
      <point x="532" y="32" type="line" smooth="yes"/>
      <point x="532" y="-8"/>
      <point x="492" y="-8" type="qcurve" smooth="yes"/>
      <point x="482" y="-8" type="line" smooth="yes"/>
      <point x="442" y="-8"/>
      <point x="442" y="32" type="qcurve" smooth="yes"/>
      <point x="442" y="354" type="line" smooth="yes"/>
      <point x="442" y="394"/>
      <point x="402" y="394" type="qcurve" smooth="yes"/>
      <point x="383" y="394" type="line" smooth="yes"/>
      <point x="343" y="394"/>
      <point x="343" y="354" type="qcurve" smooth="yes"/>
      <point x="343" y="32" type="line" smooth="yes"/>
      <point x="343" y="-8"/>
      <point x="303" y="-8" type="qcurve" smooth="yes"/>
      <point x="293" y="-8" type="line" smooth="yes"/>
      <point x="253" y="-8"/>
      <point x="253" y="32" type="qcurve" smooth="yes"/>
      <point x="253" y="354" type="line" smooth="yes"/>
      <point x="253" y="394"/>
      <point x="213" y="394" type="qcurve" smooth="yes"/>
      <point x="190" y="394" type="line" smooth="yes"/>
      <point x="150" y="394"/>
      <point x="150" y="354" type="qcurve" smooth="yes"/>
      <point x="150" y="32" type="line" smooth="yes"/>
      <point x="150" y="-8"/>
      <point x="110" y="-8" type="qcurve" smooth="yes"/>
    </contour>
  </outline>
</glyph>
<glyph name="q" format="2">
  <advance width="435"/>
  <unicode hex="0071"/>
  <outline>
    <contour>
      <point x="284" y="-175" type="qcurve" smooth="yes"/>
      <point x="284" y="-35" type="line" smooth="yes"/>
      <point x="284" y="5"/>
      <point x="244" y="5" type="qcurve" smooth="yes"/>
      <point x="151" y="5" type="line" smooth="yes"/>
      <point x="123" y="5"/>
      <point x="102" y="26" type="qcurve" smooth="yes"/>
      <point x="70" y="58" type="line" smooth="yes"/>
      <point x="50" y="78"/>
      <point x="50" y="107" type="qcurve" smooth="yes"/>
      <point x="50" y="384" type="line" smooth="yes"/>
      <point x="50" y="413"/>
      <point x="70" y="433" type="qcurve" smooth="yes"/>
      <point x="102" y="465" type="line" smooth="yes"/>
      <point x="122" y="485"/>
      <point x="151" y="485" type="qcurve" smooth="yes"/>
      <point x="335" y="485" type="line" smooth="yes"/>
      <point x="375" y="485"/>
      <point x="375" y="445" type="qcurve" smooth="yes"/>
      <point x="375" y="-175" type="line" smooth="yes"/>
      <point x="375" y="-215"/>
      <point x="335" y="-215" type="qcurve" smooth="yes"/>
      <point x="324" y="-215" type="line" smooth="yes"/>
      <point x="284" y="-215"/>
    </contour>
    <contour>
      <point x="140" y="136" type="line" smooth="yes"/>
      <point x="140" y="96"/>
      <point x="180" y="96" type="qcurve" smooth="yes"/>
      <point x="244" y="96" type="line" smooth="yes"/>
      <point x="284" y="96"/>
      <point x="284" y="136" type="qcurve" smooth="yes"/>
      <point x="284" y="355" type="line" smooth="yes"/>
      <point x="284" y="395"/>
      <point x="244" y="395" type="qcurve" smooth="yes"/>
      <point x="180" y="395" type="line" smooth="yes"/>
      <point x="140" y="395"/>
      <point x="140" y="355" type="qcurve" smooth="yes"/>
    </contour>
  </outline>
</glyph>
<glyph name="r" format="2">
  <advance width="230"/>
  <unicode hex="0072"/>
  <outline>
    <contour>
      <point x="100" y="-8" type="line" smooth="yes"/>
      <point x="60" y="-8"/>
      <point x="60" y="32" type="qcurve" smooth="yes"/>
      <point x="60" y="383" type="line" smooth="yes"/>
      <point x="60" y="412"/>
      <point x="80" y="432" type="qcurve" smooth="yes"/>
      <point x="113" y="465" type="line" smooth="yes"/>
      <point x="133" y="485"/>
      <point x="162" y="485" type="qcurve" smooth="yes"/>
      <point x="180" y="485" type="line" smooth="yes"/>
      <point x="220" y="485"/>
      <point x="220" y="445" type="qcurve" smooth="yes"/>
      <point x="220" y="434" type="line" smooth="yes"/>
      <point x="220" y="394"/>
      <point x="186" y="394" type="qcurve" smooth="yes"/>
      <point x="169" y="394"/>
      <point x="151" y="373"/>
      <point x="151" y="354" type="qcurve" smooth="yes"/>
      <point x="151" y="32" type="line" smooth="yes"/>
      <point x="151" y="-8"/>
      <point x="111" y="-8" type="qcurve" smooth="yes"/>
    </contour>
  </outline>
</glyph>
<glyph name="braceleft" format="2">
  <advance width="271"/>
  <unicode hex="007B"/>
  <outline>
    <contour>
      <point x="161" y="333" type="qcurve"/>
      <point x="162" y="332" type="line"/>
      <point x="182" y="312"/>
      <point x="182" y="282" type="qcurve" smooth="yes"/>
      <point x="182" y="75" type="line" smooth="yes"/>
      <point x="182" y="48"/>
      <point x="199" y="25" type="qcurve"/>
      <point x="249" y="-38" type="line" smooth="yes"/>
      <point x="261" y="-53"/>
      <point x="261" y="-67" type="qcurve" smooth="yes"/>
      <point x="261" y="-76"/>
      <point x="248" y="-87"/>
      <point x="235" y="-87" type="qcurve" smooth="yes"/>
      <point x="212" y="-87" type="line" smooth="yes"/>
      <point x="182" y="-87"/>
      <point x="163" y="-64" type="qcurve" smooth="yes"/>
      <point x="102" y="10" type="line" smooth="yes"/>
      <point x="84" y="33"/>
      <point x="84" y="60" type="qcurve" smooth="yes"/>
      <point x="84" y="271" type="line" smooth="yes"/>
      <point x="84" y="299"/>
      <point x="62" y="320" type="qcurve"/>
      <point x="55" y="326" type="line"/>
      <point x="40" y="340"/>
      <point x="40" y="355" type="qcurve" smooth="yes"/>
      <point x="40" y="370"/>
      <point x="54" y="382" type="qcurve" smooth="yes"/>
      <point x="62" y="389" type="line"/>
      <point x="84" y="410"/>
      <point x="84" y="438" type="qcurve" smooth="yes"/>
      <point x="84" y="650" type="line" smooth="yes"/>
      <point x="84" y="678"/>
      <point x="102" y="700" type="qcurve" smooth="yes"/>
      <point x="163" y="775" type="line" smooth="yes"/>
      <point x="182" y="798"/>
      <point x="212" y="798" type="qcurve" smooth="yes"/>
      <point x="226" y="798" type="line" smooth="yes"/>
      <point x="242" y="798"/>
      <point x="261" y="785"/>
      <point x="261" y="774" type="qcurve" smooth="yes"/>
      <point x="261" y="763"/>
      <point x="250" y="749" type="qcurve" smooth="yes"/>
      <point x="199" y="685" type="line"/>
      <point x="182" y="662"/>
      <point x="182" y="635" type="qcurve" smooth="yes"/>
      <point x="182" y="425" type="line" smooth="yes"/>
      <point x="182" y="396"/>
      <point x="162" y="376" type="qcurve" smooth="yes"/>
      <point x="151" y="365"/>
      <point x="151" y="354" type="qcurve" smooth="yes"/>
      <point x="151" y="345"/>
    </contour>
  </outline>
</glyph>
<glyph name="sterling" format="2">
  <advance width="303"/>
  <unicode hex="00A3"/>
  <outline>
    <contour>
      <point x="70" y="-20" type="line" smooth="yes"/>
      <point x="30" y="-20"/>
      <point x="30" y="20" type="qcurve" smooth="yes"/>
      <point x="30" y="31" type="line" smooth="yes"/>
      <point x="30" y="50"/>
      <point x="49" y="71"/>
      <point x="66" y="71" type="qcurve" smooth="yes"/>
      <point x="83" y="71"/>
      <point x="102" y="92"/>
      <point x="102" y="111" type="qcurve" smooth="yes"/>
      <point x="102" y="354" type="line" smooth="yes"/>
      <point x="102" y="373"/>
      <point x="83" y="394"/>
      <point x="66" y="394" type="qcurve" smooth="yes"/>
      <point x="49" y="394"/>
      <point x="30" y="415"/>
      <point x="30" y="434" type="qcurve" smooth="yes"/>
      <point x="30" y="445" type="line" smooth="yes"/>
      <point x="30" y="464"/>
      <point x="49" y="485"/>
      <point x="66" y="485" type="qcurve" smooth="yes"/>
      <point x="83" y="485"/>
      <point x="102" y="506"/>
      <point x="102" y="525" type="qcurve" smooth="yes"/>
      <point x="102" y="610" type="line" smooth="yes"/>
      <point x="101" y="639"/>
      <point x="122" y="660" type="qcurve" smooth="yes"/>
      <point x="154" y="692" type="line" smooth="yes"/>
      <point x="174" y="712"/>
      <point x="203" y="712" type="qcurve" smooth="yes"/>
      <point x="243" y="712" type="line" smooth="yes"/>
      <point x="283" y="712"/>
      <point x="283" y="672" type="qcurve" smooth="yes"/>
      <point x="283" y="661" type="line" smooth="yes"/>
      <point x="283" y="621"/>
      <point x="243" y="621" type="qcurve" smooth="yes"/>
      <point x="233" y="621" type="line" smooth="yes"/>
      <point x="193" y="621"/>
      <point x="193" y="581" type="qcurve" smooth="yes"/>
      <point x="193" y="525" type="line" smooth="yes"/>
      <point x="193" y="485"/>
      <point x="233" y="485" type="qcurve" smooth="yes"/>
      <point x="243" y="485" type="line" smooth="yes"/>
      <point x="283" y="485"/>
      <point x="283" y="445" type="qcurve" smooth="yes"/>
      <point x="283" y="434" type="line" smooth="yes"/>
      <point x="283" y="394"/>
      <point x="243" y="394" type="qcurve" smooth="yes"/>
      <point x="233" y="394" type="line" smooth="yes"/>
      <point x="193" y="394"/>
      <point x="193" y="354" type="qcurve" smooth="yes"/>
      <point x="193" y="111" type="line" smooth="yes"/>
      <point x="193" y="71"/>
      <point x="233" y="71" type="qcurve" smooth="yes"/>
      <point x="243" y="71" type="line" smooth="yes"/>
      <point x="283" y="71"/>
      <point x="283" y="31" type="qcurve" smooth="yes"/>
      <point x="283" y="20" type="line" smooth="yes"/>
      <point x="283" y="-20"/>
      <point x="243" y="-20" type="qcurve" smooth="yes"/>
    </contour>
  </outline>
</glyph>
<glyph name="currency" format="2">
  <advance width="586"/>
  <unicode hex="00A4"/>
  <outline>
    <contour>
      <point x="173" y="157" type="line"/>
      <point x="107" y="91" type="line" smooth="yes"/>
      <point x="94" y="78"/>
      <point x="79" y="78" type="qcurve" smooth="yes"/>
      <point x="64" y="78"/>
      <point x="51" y="92" type="qcurve"/>
      <point x="43" y="100" type="line" smooth="yes"/>
      <point x="30" y="113"/>
      <point x="30" y="127" type="qcurve" smooth="yes"/>
      <point x="30" y="142"/>
      <point x="44" y="156" type="qcurve" smooth="yes"/>
      <point x="81" y="193" type="line" smooth="yes"/>
      <point x="109" y="221"/>
      <point x="107" y="223" type="qcurve" smooth="yes"/>
      <point x="105" y="225" type="line"/>
      <point x="105" y="470" type="line" smooth="yes"/>
      <point x="105" y="499"/>
      <point x="107" y="501" type="qcurve" smooth="yes"/>
      <point x="109" y="503" type="line"/>
      <point x="43" y="570" type="line" smooth="yes"/>
      <point x="30" y="583"/>
      <point x="30" y="598" type="qcurve" smooth="yes"/>
      <point x="30" y="613"/>
      <point x="43" y="626" type="qcurve" smooth="yes"/>
      <point x="51" y="634" type="line" smooth="yes"/>
      <point x="65" y="648"/>
      <point x="79" y="648" type="qcurve" smooth="yes"/>
      <point x="93" y="648"/>
      <point x="107" y="634" type="qcurve" smooth="yes"/>
      <point x="145" y="596" type="line" smooth="yes"/>
      <point x="157" y="584"/>
      <point x="174" y="569"/>
      <point x="175" y="570" type="qcurve"/>
      <point x="177" y="572" type="line"/>
      <point x="380" y="572" type="line" smooth="yes"/>
      <point x="409" y="572"/>
      <point x="411" y="570" type="qcurve" smooth="yes"/>
      <point x="413" y="568" type="line"/>
      <point x="478" y="633" type="line" smooth="yes"/>
      <point x="491" y="646"/>
      <point x="506" y="646" type="qcurve" smooth="yes"/>
      <point x="521" y="646"/>
      <point x="534" y="632" type="qcurve"/>
      <point x="542" y="624" type="line" smooth="yes"/>
      <point x="555" y="611"/>
      <point x="555" y="597" type="qcurve" smooth="yes"/>
      <point x="555" y="582"/>
      <point x="541" y="568" type="qcurve" smooth="yes"/>
      <point x="506" y="533" type="line" smooth="yes"/>
      <point x="477" y="504"/>
      <point x="479" y="501" type="qcurve"/>
      <point x="481" y="499" type="line"/>
      <point x="481" y="254" type="line" smooth="yes"/>
      <point x="481" y="225"/>
      <point x="479" y="223" type="qcurve" smooth="yes"/>
      <point x="477" y="221" type="line"/>
      <point x="542" y="156" type="line" smooth="yes"/>
      <point x="556" y="142"/>
      <point x="556" y="128" type="qcurve" smooth="yes"/>
      <point x="556" y="114"/>
      <point x="542" y="100" type="qcurve" smooth="yes"/>
      <point x="534" y="92" type="line"/>
      <point x="521" y="77"/>
      <point x="506" y="77" type="qcurve" smooth="yes"/>
      <point x="492" y="77"/>
      <point x="478" y="91" type="qcurve" smooth="yes"/>
      <point x="441" y="128" type="line" smooth="yes"/>
      <point x="413" y="156"/>
      <point x="411" y="154" type="qcurve" smooth="yes"/>
      <point x="409" y="152" type="line"/>
      <point x="207" y="152" type="line" smooth="yes"/>
      <point x="179" y="152"/>
      <point x="176" y="155" type="qcurve"/>
    </contour>
    <contour>
      <point x="196" y="283" type="line" smooth="yes"/>
      <point x="196" y="243"/>
      <point x="236" y="243" type="qcurve" smooth="yes"/>
      <point x="350" y="243" type="line" smooth="yes"/>
      <point x="390" y="243"/>
      <point x="390" y="283" type="qcurve" smooth="yes"/>
      <point x="390" y="441" type="line" smooth="yes"/>
      <point x="390" y="481"/>
      <point x="350" y="481" type="qcurve" smooth="yes"/>
      <point x="236" y="481" type="line" smooth="yes"/>
      <point x="196" y="481"/>
      <point x="196" y="441" type="qcurve" smooth="yes"/>
    </contour>
  </outline>
</glyph>
<glyph name="yen" format="2">
  <advance width="490"/>
  <unicode hex="00A5"/>
  <outline>
    <contour>
      <point x="353" y="483" type="line"/>
      <point x="349" y="475"/>
      <point x="349" y="466" type="qcurve" smooth="yes"/>
      <point x="349" y="453"/>
      <point x="368" y="437"/>
      <point x="385" y="437" type="qcurve" smooth="yes"/>
      <point x="410" y="437" type="line" smooth="yes"/>
      <point x="450" y="437"/>
      <point x="450" y="397" type="qcurve" smooth="yes"/>
      <point x="450" y="393" type="line" smooth="yes"/>
      <point x="450" y="353"/>
      <point x="410" y="353" type="qcurve" smooth="yes"/>
      <point x="330" y="353" type="line" smooth="yes"/>
      <point x="290" y="353"/>
      <point x="290" y="313" type="qcurve" smooth="yes"/>
      <point x="290" y="246" type="line" smooth="yes"/>
      <point x="290" y="206"/>
      <point x="330" y="206" type="qcurve" smooth="yes"/>
      <point x="410" y="206" type="line" smooth="yes"/>
      <point x="450" y="206"/>
      <point x="450" y="166" type="qcurve"/>
      <point x="450" y="165" type="line"/>
      <point x="450" y="125"/>
      <point x="410" y="125" type="qcurve" smooth="yes"/>
      <point x="330" y="125" type="line" smooth="yes"/>
      <point x="290" y="125"/>
      <point x="290" y="85" type="qcurve" smooth="yes"/>
      <point x="290" y="3" type="line" smooth="yes"/>
      <point x="290" y="-37"/>
      <point x="250" y="-37" type="qcurve" smooth="yes"/>
      <point x="235" y="-37" type="line" smooth="yes"/>
      <point x="195" y="-37"/>
      <point x="195" y="3" type="qcurve" smooth="yes"/>
      <point x="195" y="85" type="line" smooth="yes"/>
      <point x="195" y="125"/>
      <point x="155" y="125" type="qcurve" smooth="yes"/>
      <point x="80" y="125" type="line" smooth="yes"/>
      <point x="40" y="125"/>
      <point x="40" y="165" type="qcurve"/>
      <point x="40" y="166" type="line"/>
      <point x="40" y="206"/>
      <point x="80" y="206" type="qcurve" smooth="yes"/>
      <point x="155" y="206" type="line" smooth="yes"/>
      <point x="195" y="206"/>
      <point x="195" y="246" type="qcurve" smooth="yes"/>
      <point x="195" y="313" type="line" smooth="yes"/>
      <point x="195" y="353"/>
      <point x="155" y="353" type="qcurve" smooth="yes"/>
      <point x="80" y="353" type="line" smooth="yes"/>
      <point x="40" y="353"/>
      <point x="40" y="393" type="qcurve" smooth="yes"/>
      <point x="40" y="397" type="line" smooth="yes"/>
      <point x="40" y="437"/>
      <point x="80" y="437" type="qcurve" smooth="yes"/>
      <point x="110" y="437" type="line" smooth="yes"/>
      <point x="127" y="437"/>
      <point x="145" y="451"/>
      <point x="145" y="464" type="qcurve" smooth="yes"/>
      <point x="145" y="474"/>
      <point x="141" y="483" type="qcurve" smooth="yes"/>
      <point x="59" y="694" type="line" smooth="yes"/>
      <point x="55" y="703"/>
      <point x="55" y="713" type="qcurve" smooth="yes"/>
      <point x="55" y="726"/>
      <point x="73" y="740"/>
      <point x="89" y="740" type="qcurve" smooth="yes"/>
      <point x="104" y="740" type="line" smooth="yes"/>
      <point x="138" y="740"/>
      <point x="150" y="709" type="qcurve" smooth="yes"/>
      <point x="223" y="520" type="line" smooth="yes"/>
      <point x="233" y="494"/>
      <point x="250" y="494" type="qcurve" smooth="yes"/>
      <point x="258" y="494"/>
      <point x="272" y="508"/>
      <point x="276" y="520" type="qcurve"/>
      <point x="348" y="708" type="line" smooth="yes"/>
      <point x="360" y="740"/>
      <point x="394" y="740" type="qcurve" smooth="yes"/>
      <point x="403" y="740" type="line" smooth="yes"/>
      <point x="420" y="740"/>
      <point x="439" y="724"/>
      <point x="439" y="711" type="qcurve" smooth="yes"/>
      <point x="439" y="702"/>
      <point x="435" y="694" type="qcurve"/>
    </contour>
  </outline>
</glyph>
<glyph name="logicalnot" format="2">
  <advance width="600"/>
  <unicode hex="00AC"/>
  <outline>
    <contour>
      <point x="123" y="390" type="line" smooth="yes"/>
      <point x="83" y="390"/>
      <point x="83" y="430" type="qcurve" smooth="yes"/>
      <point x="83" y="443" type="line" smooth="yes"/>
      <point x="83" y="483"/>
      <point x="123" y="483" type="qcurve" smooth="yes"/>
      <point x="476" y="483" type="line" smooth="yes"/>
      <point x="516" y="483"/>
      <point x="516" y="443" type="qcurve" smooth="yes"/>
      <point x="516" y="221" type="line" smooth="yes"/>
      <point x="516" y="181"/>
      <point x="476" y="181" type="qcurve" smooth="yes"/>
      <point x="466" y="181" type="line" smooth="yes"/>
      <point x="426" y="181"/>
      <point x="426" y="221" type="qcurve" smooth="yes"/>
      <point x="426" y="350" type="line" smooth="yes"/>
      <point x="426" y="390"/>
      <point x="386" y="390" type="qcurve" smooth="yes"/>
    </contour>
  </outline>
</glyph>
<glyph name="macron" format="2">
  <advance width="337"/>
  <unicode hex="00AF"/>
  <outline>
    <contour>
      <point x="0" y="769" type="qcurve" smooth="yes"/>
      <point x="0" y="809"/>
      <point x="40" y="809" type="qcurve" smooth="yes"/>
      <point x="297" y="809" type="line" smooth="yes"/>
      <point x="337" y="809"/>
      <point x="337" y="769" type="qcurve" smooth="yes"/>
      <point x="337" y="729"/>
      <point x="297" y="729" type="qcurve" smooth="yes"/>
      <point x="40" y="729" type="line" smooth="yes"/>
      <point x="0" y="729"/>
    </contour>
  </outline>
</glyph>
<glyph name="degree" format="2">
  <advance width="291"/>
  <unicode hex="00B0"/>
  <outline>
    <contour>
      <point x="145" y="516" type="qcurve" smooth="yes"/>
      <point x="111" y="516"/>
      <point x="54" y="549"/>
      <point x="20" y="607"/>
      <point x="20" y="642" type="qcurve" smooth="yes"/>
      <point x="20" y="675"/>
      <point x="54" y="733"/>
      <point x="112" y="767"/>
      <point x="145" y="767" type="qcurve" smooth="yes"/>
      <point x="180" y="767"/>
      <point x="238" y="733"/>
      <point x="271" y="676"/>
      <point x="271" y="642" type="qcurve" smooth="yes"/>
      <point x="271" y="589"/>
      <point x="198" y="516"/>
    </contour>
    <contour>
      <point x="145" y="577" type="qcurve" smooth="yes"/>
      <point x="172" y="577"/>
      <point x="210" y="615"/>
      <point x="210" y="642" type="qcurve" smooth="yes"/>
      <point x="210" y="669"/>
      <point x="172" y="705"/>
      <point x="145" y="705" type="qcurve" smooth="yes"/>
      <point x="118" y="705"/>
      <point x="82" y="669"/>
      <point x="82" y="642" type="qcurve" smooth="yes"/>
      <point x="82" y="615"/>
      <point x="118" y="577"/>
    </contour>
  </outline>
</glyph>
<glyph name="plusminus" format="2">
  <advance width="604"/>
  <unicode hex="00B1"/>
  <outline>
    <contour>
      <point x="80" y="399" type="line" smooth="yes"/>
      <point x="40" y="399"/>
      <point x="40" y="439" type="qcurve" smooth="yes"/>
      <point x="40" y="457" type="line" smooth="yes"/>
      <point x="40" y="497"/>
      <point x="80" y="497" type="qcurve" smooth="yes"/>
      <point x="217" y="497" type="line" smooth="yes"/>
      <point x="257" y="497"/>
      <point x="257" y="537" type="qcurve" smooth="yes"/>
      <point x="257" y="633" type="line" smooth="yes"/>
      <point x="257" y="673"/>
      <point x="297" y="673" type="qcurve" smooth="yes"/>
      <point x="315" y="673" type="line" smooth="yes"/>
      <point x="355" y="673"/>
      <point x="355" y="633" type="qcurve" smooth="yes"/>
      <point x="355" y="537" type="line" smooth="yes"/>
      <point x="355" y="497"/>
      <point x="395" y="497" type="qcurve" smooth="yes"/>
      <point x="524" y="497" type="line" smooth="yes"/>
      <point x="564" y="497"/>
      <point x="564" y="457" type="qcurve" smooth="yes"/>
      <point x="564" y="439" type="line" smooth="yes"/>
      <point x="564" y="399"/>
      <point x="524" y="399" type="qcurve" smooth="yes"/>
      <point x="395" y="399" type="line" smooth="yes"/>
      <point x="355" y="399"/>
      <point x="355" y="359" type="qcurve" smooth="yes"/>
      <point x="355" y="271" type="line" smooth="yes"/>
      <point x="355" y="231"/>
      <point x="315" y="231" type="qcurve" smooth="yes"/>
      <point x="297" y="231" type="line" smooth="yes"/>
      <point x="257" y="231"/>
      <point x="257" y="271" type="qcurve" smooth="yes"/>
      <point x="257" y="359" type="line" smooth="yes"/>
      <point x="257" y="399"/>
      <point x="217" y="399" type="qcurve" smooth="yes"/>
    </contour>
    <contour>
      <point x="80" y="82" type="line" smooth="yes"/>
      <point x="40" y="82"/>
      <point x="40" y="122" type="qcurve" smooth="yes"/>
      <point x="40" y="141" type="line" smooth="yes"/>
      <point x="40" y="181"/>
      <point x="80" y="181" type="qcurve" smooth="yes"/>
      <point x="413" y="181" type="line"/>
      <point x="524" y="181" type="line" smooth="yes"/>
      <point x="564" y="181"/>
      <point x="564" y="141" type="qcurve" smooth="yes"/>
      <point x="564" y="122" type="line" smooth="yes"/>
      <point x="564" y="82"/>
      <point x="524" y="82" type="qcurve" smooth="yes"/>
    </contour>
  </outline>
</glyph>
<glyph name="twosuperior" format="2">
  <advance width="315"/>
  <unicode hex="00B2"/>
  <outline>
    <contour>
      <point x="57" y="402" type="qcurve" smooth="yes"/>
      <point x="35" y="422"/>
      <point x="35" y="451" type="qcurve" smooth="yes"/>
      <point x="35" y="551" type="line" smooth="yes"/>
      <point x="35" y="583"/>
      <point x="57" y="605" type="qcurve" smooth="yes"/>
      <point x="80" y="628"/>
      <point x="112" y="628" type="qcurve" smooth="yes"/>
      <point x="176" y="628" type="line" smooth="yes"/>
      <point x="216" y="628"/>
      <point x="216" y="668" type="qcurve" smooth="yes"/>
      <point x="216" y="710" type="line" smooth="yes"/>
      <point x="216" y="750"/>
      <point x="176" y="750" type="qcurve" smooth="yes"/>
      <point x="67" y="750" type="line" smooth="yes"/>
      <point x="35" y="750"/>
      <point x="35" y="782" type="qcurve" smooth="yes"/>
      <point x="35" y="814"/>
      <point x="67" y="814" type="qcurve" smooth="yes"/>
      <point x="203" y="814" type="line" smooth="yes"/>
      <point x="235" y="814"/>
      <point x="257" y="792" type="qcurve" smooth="yes"/>
      <point x="280" y="769"/>
      <point x="280" y="737" type="qcurve" smooth="yes"/>
      <point x="280" y="641" type="line" smooth="yes"/>
      <point x="280" y="609"/>
      <point x="258" y="587" type="qcurve" smooth="yes"/>
      <point x="235" y="564"/>
      <point x="203" y="564" type="qcurve" smooth="yes"/>
      <point x="139" y="564" type="line" smooth="yes"/>
      <point x="99" y="564"/>
      <point x="99" y="524" type="qcurve" smooth="yes"/>
      <point x="99" y="486" type="line" smooth="yes"/>
      <point x="99" y="446"/>
      <point x="139" y="446" type="qcurve" smooth="yes"/>
      <point x="248" y="446" type="line" smooth="yes"/>
      <point x="280" y="446"/>
      <point x="280" y="414" type="qcurve" smooth="yes"/>
      <point x="280" y="382"/>
      <point x="248" y="382" type="qcurve" smooth="yes"/>
      <point x="107" y="382" type="line" smooth="yes"/>
      <point x="79" y="382"/>
    </contour>
  </outline>
</glyph>
<glyph name="micro" format="2">
  <advance width="446"/>
  <unicode hex="00B5"/>
  <outline>
    <contour>
      <point x="100" y="-214" type="line" smooth="yes"/>
      <point x="60" y="-214"/>
      <point x="60" y="-174" type="qcurve" smooth="yes"/>
      <point x="60" y="445" type="line" smooth="yes"/>
      <point x="60" y="485"/>
      <point x="100" y="485" type="qcurve" smooth="yes"/>
      <point x="111" y="485" type="line" smooth="yes"/>
      <point x="151" y="485"/>
      <point x="151" y="445" type="qcurve" smooth="yes"/>
      <point x="151" y="122" type="line" smooth="yes"/>
      <point x="151" y="82"/>
      <point x="191" y="82" type="qcurve" smooth="yes"/>
      <point x="255" y="82" type="line" smooth="yes"/>
      <point x="295" y="82"/>
      <point x="295" y="122" type="qcurve" smooth="yes"/>
      <point x="295" y="445" type="line" smooth="yes"/>
      <point x="295" y="485"/>
      <point x="335" y="485" type="qcurve" smooth="yes"/>
      <point x="346" y="485" type="line" smooth="yes"/>
      <point x="386" y="485"/>
      <point x="386" y="445" type="qcurve" smooth="yes"/>
      <point x="386" y="93" type="line"/>
      <point x="387" y="64"/>
      <point x="366" y="43" type="qcurve" smooth="yes"/>
      <point x="334" y="11" type="line" smooth="yes"/>
      <point x="314" y="-9"/>
      <point x="285" y="-9" type="qcurve" smooth="yes"/>
      <point x="191" y="-9" type="line" smooth="yes"/>
      <point x="151" y="-9"/>
      <point x="151" y="-49" type="qcurve" smooth="yes"/>
      <point x="151" y="-174" type="line" smooth="yes"/>
      <point x="151" y="-214"/>
      <point x="111" y="-214" type="qcurve" smooth="yes"/>
    </contour>
  </outline>
</glyph>
<glyph name="uni00BF" format="2">
  <advance width="425"/>
  <unicode hex="00BF"/>
  <outline>
    <contour>
      <point x="81" y="-120" type="line" smooth="yes"/>
      <point x="41" y="-120"/>
      <point x="41" y="-80" type="qcurve" smooth="yes"/>
      <point x="41" y="114" type="line" smooth="yes"/>
      <point x="41" y="142"/>
      <point x="55" y="164" type="qcurve" smooth="yes"/>
      <point x="161" y="319" type="line" smooth="yes"/>
      <point x="176" y="341"/>
      <point x="175" y="369" type="qcurve" smooth="yes"/>
      <point x="175" y="396" type="line" smooth="yes"/>
      <point x="175" y="436"/>
      <point x="215" y="436" type="qcurve" smooth="yes"/>
      <point x="226" y="436" type="line" smooth="yes"/>
      <point x="245" y="436"/>
      <point x="266" y="414"/>
      <point x="266" y="395" type="qcurve" smooth="yes"/>
      <point x="266" y="338" type="line" smooth="yes"/>
      <point x="266" y="310"/>
      <point x="252" y="288" type="qcurve" smooth="yes"/>
      <point x="143" y="128" type="line" smooth="yes"/>
      <point x="128" y="106"/>
      <point x="129" y="78" type="qcurve" smooth="yes"/>
      <point x="129" y="9" type="line" smooth="yes"/>
      <point x="129" y="-31"/>
      <point x="169" y="-31" type="qcurve" smooth="yes"/>
      <point x="254" y="-31" type="line" smooth="yes"/>
      <point x="294" y="-31"/>
      <point x="294" y="9" type="qcurve" smooth="yes"/>
      <point x="294" y="73" type="line" smooth="yes"/>
      <point x="294" y="113"/>
      <point x="334" y="113" type="qcurve" smooth="yes"/>
      <point x="346" y="113" type="line" smooth="yes"/>
      <point x="386" y="113"/>
      <point x="386" y="73" type="qcurve" smooth="yes"/>
      <point x="386" y="-80" type="line" smooth="yes"/>
      <point x="386" y="-120"/>
      <point x="346" y="-120" type="qcurve" smooth="yes"/>
    </contour>
    <contour>
      <point x="192" y="512" type="qcurve"/>
      <point x="179" y="525" type="line" smooth="yes"/>
      <point x="166" y="538"/>
      <point x="166" y="553" type="qcurve" smooth="yes"/>
      <point x="166" y="568"/>
      <point x="180" y="582" type="qcurve" smooth="yes"/>
      <point x="192" y="594" type="line" smooth="yes"/>
      <point x="206" y="608"/>
      <point x="220" y="608" type="qcurve" smooth="yes"/>
      <point x="234" y="608"/>
      <point x="248" y="594" type="qcurve" smooth="yes"/>
      <point x="262" y="580" type="line" smooth="yes"/>
      <point x="275" y="567"/>
      <point x="275" y="552" type="qcurve" smooth="yes"/>
      <point x="275" y="537"/>
      <point x="262" y="524" type="qcurve" smooth="yes"/>
      <point x="249" y="511" type="line" smooth="yes"/>
      <point x="235" y="497"/>
      <point x="221" y="497" type="qcurve" smooth="yes"/>
      <point x="205" y="497"/>
    </contour>
  </outline>
</glyph>
<glyph name="multiply" format="2">
  <advance width="638"/>
  <unicode hex="00D7"/>
  <outline>
    <contour>
      <point x="116" y="157" type="qcurve"/>
      <point x="98" y="176" type="line" smooth="yes"/>
      <point x="85" y="189"/>
      <point x="85" y="204" type="qcurve" smooth="yes"/>
      <point x="85" y="219"/>
      <point x="98" y="232" type="qcurve" smooth="yes"/>
      <point x="215" y="350" type="line"/>
      <point x="229" y="363"/>
      <point x="229" y="378" type="qcurve" smooth="yes"/>
      <point x="229" y="393"/>
      <point x="215" y="406" type="qcurve"/>
      <point x="113" y="509" type="line" smooth="yes"/>
      <point x="99" y="523"/>
      <point x="99" y="537" type="qcurve" smooth="yes"/>
      <point x="99" y="551"/>
      <point x="113" y="565" type="qcurve" smooth="yes"/>
      <point x="127" y="579" type="line"/>
      <point x="140" y="593"/>
      <point x="155" y="593" type="qcurve" smooth="yes"/>
      <point x="171" y="593"/>
      <point x="184" y="579" type="qcurve"/>
      <point x="286" y="477" type="line" smooth="yes"/>
      <point x="300" y="463"/>
      <point x="314" y="463" type="qcurve" smooth="yes"/>
      <point x="329" y="463"/>
      <point x="343" y="477" type="qcurve" smooth="yes"/>
      <point x="461" y="596" type="line"/>
      <point x="477" y="610"/>
      <point x="490" y="610" type="qcurve" smooth="yes"/>
      <point x="504" y="610"/>
      <point x="518" y="596" type="qcurve" smooth="yes"/>
      <point x="536" y="577" type="line"/>
      <point x="550" y="564"/>
      <point x="550" y="549" type="qcurve" smooth="yes"/>
      <point x="550" y="534"/>
      <point x="536" y="521" type="qcurve"/>
      <point x="418" y="402" type="line" smooth="yes"/>
      <point x="404" y="388"/>
      <point x="404" y="374" type="qcurve" smooth="yes"/>
      <point x="404" y="361"/>
      <point x="418" y="345" type="qcurve"/>
      <point x="522" y="241" type="line" smooth="yes"/>
      <point x="536" y="227"/>
      <point x="536" y="213" type="qcurve" smooth="yes"/>
      <point x="536" y="199"/>
      <point x="522" y="185" type="qcurve" smooth="yes"/>
      <point x="507" y="171" type="line" smooth="yes"/>
      <point x="493" y="157"/>
      <point x="479" y="157" type="qcurve" smooth="yes"/>
      <point x="465" y="157"/>
      <point x="451" y="171" type="qcurve" smooth="yes"/>
      <point x="347" y="275" type="line" smooth="yes"/>
      <point x="333" y="289"/>
      <point x="319" y="289" type="qcurve" smooth="yes"/>
      <point x="306" y="289"/>
      <point x="290" y="275" type="qcurve"/>
      <point x="173" y="157" type="line" smooth="yes"/>
      <point x="160" y="144"/>
      <point x="145" y="144" type="qcurve" smooth="yes"/>
      <point x="130" y="144"/>
    </contour>
  </outline>
</glyph>
<glyph name="Eng" format="2">
  <advance width="505"/>
  <unicode hex="014A"/>
  <outline>
    <contour>
      <point x="90" y="-9" type="line" smooth="yes"/>
      <point x="50" y="-9"/>
      <point x="50" y="31" type="qcurve" smooth="yes"/>
      <point x="50" y="670" type="line" smooth="yes"/>
      <point x="50" y="710"/>
      <point x="90" y="710" type="qcurve" smooth="yes"/>
      <point x="110" y="710" type="line" smooth="yes"/>
      <point x="143" y="710"/>
      <point x="156" y="680" type="qcurve" smooth="yes"/>
      <point x="317" y="309" type="line" smooth="yes"/>
      <point x="322" y="298"/>
      <point x="337" y="285"/>
      <point x="344" y="285" type="qcurve" smooth="yes"/>
      <point x="353" y="285"/>
      <point x="364" y="302"/>
      <point x="364" y="318" type="qcurve" smooth="yes"/>
      <point x="364" y="670" type="line" smooth="yes"/>
      <point x="364" y="710"/>
      <point x="404" y="710" type="qcurve" smooth="yes"/>
      <point x="415" y="710" type="line" smooth="yes"/>
      <point x="455" y="710"/>
      <point x="455" y="670" type="qcurve" smooth="yes"/>
      <point x="455" y="-89" type="line" smooth="yes"/>
      <point x="455" y="-118"/>
      <point x="435" y="-138" type="qcurve" smooth="yes"/>
      <point x="402" y="-171" type="line" smooth="yes"/>
      <point x="382" y="-191"/>
      <point x="353" y="-191" type="qcurve" smooth="yes"/>
      <point x="335" y="-191" type="line" smooth="yes"/>
      <point x="295" y="-191"/>
      <point x="295" y="-151" type="qcurve" smooth="yes"/>
      <point x="295" y="-140" type="line" smooth="yes"/>
      <point x="295" y="-100"/>
      <point x="329" y="-100" type="qcurve" smooth="yes"/>
      <point x="346" y="-100"/>
      <point x="364" y="-79"/>
      <point x="364" y="-60" type="qcurve" smooth="yes"/>
      <point x="364" y="-31" type="line" smooth="yes"/>
      <point x="364" y="12"/>
      <point x="348" y="46" type="qcurve" smooth="yes"/>
      <point x="188" y="410" type="line" smooth="yes"/>
      <point x="178" y="434"/>
      <point x="162" y="434" type="qcurve" smooth="yes"/>
      <point x="153" y="434"/>
      <point x="141" y="416"/>
      <point x="141" y="400" type="qcurve" smooth="yes"/>
      <point x="141" y="31" type="line" smooth="yes"/>
      <point x="141" y="-9"/>
      <point x="101" y="-9" type="qcurve" smooth="yes"/>
    </contour>
  </outline>
</glyph>
<glyph name="eng" format="2">
  <advance width="453"/>
  <unicode hex="014B"/>
  <outline>
    <contour>
      <point x="233" y="-180" type="qcurve" smooth="yes"/>
      <point x="233" y="-169" type="line" smooth="yes"/>
      <point x="233" y="-129"/>
      <point x="267" y="-129" type="qcurve" smooth="yes"/>
      <point x="284" y="-129"/>
      <point x="303" y="-108"/>
      <point x="303" y="-89" type="qcurve" smooth="yes"/>
      <point x="303" y="354" type="line" smooth="yes"/>
      <point x="303" y="394"/>
      <point x="263" y="394" type="qcurve" smooth="yes"/>
      <point x="191" y="394" type="line" smooth="yes"/>
      <point x="151" y="394"/>
      <point x="151" y="354" type="qcurve" smooth="yes"/>
      <point x="151" y="30" type="line" smooth="yes"/>
      <point x="151" y="-10"/>
      <point x="111" y="-10" type="qcurve" smooth="yes"/>
      <point x="100" y="-10" type="line" smooth="yes"/>
      <point x="60" y="-10"/>
      <point x="60" y="30" type="qcurve" smooth="yes"/>
      <point x="60" y="383" type="line" smooth="yes"/>
      <point x="60" y="412"/>
      <point x="80" y="432" type="qcurve" smooth="yes"/>
      <point x="113" y="465" type="line" smooth="yes"/>
      <point x="133" y="485"/>
      <point x="162" y="485" type="qcurve" smooth="yes"/>
      <point x="292" y="485" type="line" smooth="yes"/>
      <point x="320" y="485"/>
      <point x="341" y="464" type="qcurve" smooth="yes"/>
      <point x="373" y="432" type="line" smooth="yes"/>
      <point x="393" y="412"/>
      <point x="393" y="383" type="qcurve" smooth="yes"/>
      <point x="393" y="-118" type="line" smooth="yes"/>
      <point x="393" y="-147"/>
      <point x="373" y="-167" type="qcurve" smooth="yes"/>
      <point x="340" y="-200" type="line" smooth="yes"/>
      <point x="320" y="-220"/>
      <point x="291" y="-220" type="qcurve" smooth="yes"/>
      <point x="273" y="-220" type="line" smooth="yes"/>
      <point x="233" y="-220"/>
    </contour>
  </outline>
</glyph>
<glyph name="caron" format="2">
  <advance width="460"/>
  <unicode hex="02C7"/>
  <outline>
    <contour>
      <point x="213" y="527" type="line" smooth="yes"/>
      <point x="189" y="527"/>
      <point x="163.005" y="539.494"/>
      <point x="148.013" y="558.234" type="curve" smooth="yes"/>
      <point x="80.882" y="642.148" type="line" smooth="yes"/>
      <point x="66.5528" y="660.059"/>
      <point x="68.484" y="682.098"/>
      <point x="85.71" y="697.245" type="curve" smooth="yes"/>
      <point x="103.516" y="712.902"/>
      <point x="124.869" y="711.319"/>
      <point x="139.672" y="693.796" type="curve" smooth="yes"/>
      <point x="203.736" y="617.965" type="line" smooth="yes"/>
      <point x="209.294" y="611.386"/>
      <point x="218.742" y="607"/>
      <point x="227.355" y="607" type="curve" smooth="yes"/>
      <point x="236.258" y="607"/>
      <point x="245.706" y="611.386"/>
      <point x="251.264" y="617.965" type="curve" smooth="yes"/>
      <point x="315.328" y="693.796" type="line" smooth="yes"/>
      <point x="330.131" y="711.319"/>
      <point x="351.484" y="712.902"/>
      <point x="368.71" y="697.755" type="curve" smooth="yes"/>
      <point x="386.516" y="682.098"/>
      <point x="388.447" y="660.059"/>
      <point x="374.118" y="642.148" type="curve" smooth="yes"/>
      <point x="306.987" y="558.234" type="line" smooth="yes"/>
      <point x="291.995" y="539.494"/>
      <point x="266" y="527"/>
      <point x="242" y="527" type="curve" smooth="yes"/>
    </contour>
  </outline>
</glyph>
<glyph name="macronmod" format="2">
  <advance width="460"/>
  <unicode hex="02C9"/>
  <outline>
    <contour>
      <point x="390" y="603.6" type="line"/>
      <point x="390" y="579.84"/>
      <point x="374.16" y="564"/>
      <point x="350.4" y="564" type="curve" smooth="yes"/>
      <point x="109.6" y="564" type="line" smooth="yes"/>
      <point x="85.84" y="564"/>
      <point x="70" y="579.84"/>
      <point x="70" y="603.6" type="curve" smooth="yes"/>
      <point x="70" y="628.16"/>
      <point x="85.84" y="644"/>
      <point x="109.6" y="644" type="curve" smooth="yes"/>
      <point x="350.4" y="644" type="line" smooth="yes"/>
      <point x="374.16" y="644"/>
      <point x="390" y="628.16"/>
      <point x="390" y="604.4" type="curve"/>
    </contour>
  </outline>
</glyph>
<glyph name="acutemod" format="2">
  <advance width="460"/>
  <unicode hex="02CA"/>
  <outline>
    <contour>
      <point x="275.081" y="714.535" type="line" smooth="yes"/>
      <point x="290.632" y="732.814"/>
      <point x="313.078" y="734.506"/>
      <point x="331.195" y="718.765" type="curve" smooth="yes"/>
      <point x="349.922" y="702.494"/>
      <point x="351.903" y="679.588"/>
      <point x="336.757" y="660.97" type="curve" smooth="yes"/>
      <point x="182.243" y="471.03" type="line" smooth="yes"/>
      <point x="167.097" y="452.412"/>
      <point x="144.813" y="450.368"/>
      <point x="126.534" y="465.919" type="curve" smooth="yes"/>
      <point x="120.466" y="471.081" type="line" smooth="yes"/>
      <point x="102.187" y="486.632"/>
      <point x="100.368" y="509.186"/>
      <point x="115.919" y="527.465" type="curve" smooth="yes"/>
    </contour>
  </outline>
</glyph>
<glyph name="gravemod" format="2">
  <advance width="460"/>
  <unicode hex="02CB"/>
  <outline>
    <contour>
      <point x="277" y="472" type="line" smooth="yes"/>
      <point x="292" y="454"/>
      <point x="314" y="453"/>
      <point x="332" y="468" type="curve" smooth="yes"/>
      <point x="350" y="484"/>
      <point x="352" y="506"/>
      <point x="337" y="524" type="curve" smooth="yes"/>
      <point x="182" y="715" type="line" smooth="yes"/>
      <point x="167" y="734"/>
      <point x="145" y="736"/>
      <point x="127" y="720" type="curve" smooth="yes"/>
      <point x="121" y="716" type="line" smooth="yes"/>
      <point x="103" y="700"/>
      <point x="101" y="678"/>
      <point x="117" y="660" type="curve" smooth="yes"/>
    </contour>
  </outline>
</glyph>
<glyph name="dotaccent" format="2">
  <advance width="460"/>
  <unicode hex="02D9"/>
  <outline>
    <contour>
      <point x="205" y="545" type="qcurve"/>
      <point x="197" y="550" type="line"/>
      <point x="170" y="568"/>
      <point x="170" y="598" type="qcurve" smooth="yes"/>
      <point x="170" y="628"/>
      <point x="196" y="646" type="qcurve" smooth="yes"/>
      <point x="205" y="652" type="line"/>
      <point x="220" y="662"/>
      <point x="233" y="662" type="qcurve" smooth="yes"/>
      <point x="247" y="663"/>
      <point x="263" y="651" type="qcurve" smooth="yes"/>
      <point x="270" y="646" type="line" smooth="yes"/>
      <point x="297" y="626"/>
      <point x="297" y="598" type="qcurve" smooth="yes"/>
      <point x="297" y="570"/>
      <point x="270" y="550" type="qcurve" smooth="yes"/>
      <point x="263" y="545" type="line" smooth="yes"/>
      <point x="249" y="535"/>
      <point x="234" y="535" type="qcurve" smooth="yes"/>
      <point x="222" y="535"/>
    </contour>
  </outline>
</glyph>
<glyph name="ring" format="2">
  <advance width="258"/>
  <unicode hex="02DA"/>
  <outline>
    <contour>
      <point x="29" y="660" type="qcurve" smooth="yes"/>
      <point x="13" y="687" type="line" smooth="yes"/>
      <point x="0" y="710"/>
      <point x="0" y="737" type="qcurve"/>
      <point x="0" y="739" type="line"/>
      <point x="0" y="767"/>
      <point x="14" y="789" type="qcurve"/>
      <point x="30" y="816" type="line"/>
      <point x="43" y="840"/>
      <point x="65" y="852" type="qcurve" smooth="yes"/>
      <point x="86" y="864"/>
      <point x="113" y="864" type="qcurve" smooth="yes"/>
      <point x="145" y="864" type="line" smooth="yes"/>
      <point x="173" y="864"/>
      <point x="194" y="852" type="qcurve" smooth="yes"/>
      <point x="217" y="838"/>
      <point x="229" y="816" type="qcurve"/>
      <point x="245" y="789" type="line" smooth="yes"/>
      <point x="258" y="766"/>
      <point x="258" y="739" type="qcurve"/>
      <point x="258" y="737" type="line"/>
      <point x="258" y="710"/>
      <point x="245" y="687" type="qcurve" smooth="yes"/>
      <point x="229" y="660" type="line" smooth="yes"/>
      <point x="215" y="636"/>
      <point x="194" y="625" type="qcurve" smooth="yes"/>
      <point x="173" y="613"/>
      <point x="146" y="613" type="qcurve" smooth="yes"/>
      <point x="113" y="613" type="line" smooth="yes"/>
      <point x="86" y="613"/>
      <point x="65" y="625" type="qcurve"/>
      <point x="44" y="635"/>
    </contour>
    <contour>
      <point x="96" y="680" type="qcurve" smooth="yes"/>
      <point x="104" y="675"/>
      <point x="129" y="675" type="qcurve" smooth="yes"/>
      <point x="155" y="675"/>
      <point x="163" y="680" type="qcurve" smooth="yes"/>
      <point x="171" y="685"/>
      <point x="183" y="706" type="qcurve" smooth="yes"/>
      <point x="196" y="728"/>
      <point x="196" y="738" type="qcurve" smooth="yes"/>
      <point x="196" y="748"/>
      <point x="183" y="771" type="qcurve" smooth="yes"/>
      <point x="171" y="792"/>
      <point x="163" y="797" type="qcurve" smooth="yes"/>
      <point x="156" y="801"/>
      <point x="129" y="801" type="qcurve" smooth="yes"/>
      <point x="103" y="801"/>
      <point x="96" y="797" type="qcurve" smooth="yes"/>
      <point x="88" y="792"/>
      <point x="76" y="771" type="qcurve" smooth="yes"/>
      <point x="63" y="748"/>
      <point x="63" y="738" type="qcurve" smooth="yes"/>
      <point x="63" y="728"/>
      <point x="76" y="706" type="qcurve" smooth="yes"/>
      <point x="88" y="684"/>
    </contour>
  </outline>
</glyph>
<glyph name="acutecomb" format="2">
  <unicode hex="0301"/>
  <anchor x="-82" y="540" name="_top"/>
  <outline>
    <contour>
      <point x="-116" y="627" type="line" smooth="yes"/>
      <point x="-132" y="627"/>
      <point x="-147" y="646"/>
      <point x="-141" y="660" type="qcurve" smooth="yes"/>
      <point x="-101" y="748" type="line" smooth="yes"/>
      <point x="-95" y="762"/>
      <point x="-72" y="781"/>
      <point x="-55" y="781" type="qcurve" smooth="yes"/>
      <point x="-34" y="781" type="line" smooth="yes"/>
      <point x="-18" y="781"/>
      <point x="-3" y="762"/>
      <point x="-9" y="748" type="qcurve" smooth="yes"/>
      <point x="-49" y="660" type="line" smooth="yes"/>
      <point x="-55" y="646"/>
      <point x="-78" y="627"/>
      <point x="-95" y="627" type="qcurve" smooth="yes"/>
    </contour>
  </outline>
</glyph>
<glyph name="brevecomb" format="2">
  <unicode hex="0306"/>
  <anchor x="-135" y="567" name="_top"/>
  <outline>
    <contour>
      <point x="-259" y="758" type="qcurve" smooth="yes"/>
      <point x="-259" y="768"/>
      <point x="-242" y="784"/>
      <point x="-227" y="784" type="qcurve" smooth="yes"/>
      <point x="-199" y="784"/>
      <point x="-196" y="753" type="qcurve" smooth="yes"/>
      <point x="-194" y="731"/>
      <point x="-158" y="703"/>
      <point x="-135" y="703" type="qcurve" smooth="yes"/>
      <point x="-112" y="703"/>
      <point x="-74" y="731"/>
      <point x="-72" y="753" type="qcurve" smooth="yes"/>
      <point x="-69" y="784"/>
      <point x="-41" y="784" type="qcurve" smooth="yes"/>
      <point x="-26" y="784"/>
      <point x="-10" y="768"/>
      <point x="-10" y="758" type="qcurve" smooth="yes"/>
      <point x="-10" y="734"/>
      <point x="-32" y="691"/>
      <point x="-67" y="660"/>
      <point x="-112" y="642"/>
      <point x="-135" y="642" type="qcurve" smooth="yes"/>
      <point x="-158" y="642"/>
      <point x="-202" y="660"/>
      <point x="-237" y="691"/>
      <point x="-259" y="734"/>
    </contour>
  </outline>
</glyph>
<glyph name="vlinecomb" format="2">
  <unicode hex="030D"/>
  <anchor x="-47" y="540" name="_top"/>
  <outline>
    <contour>
      <point x="-82" y="650" type="qcurve" smooth="yes"/>
      <point x="-84" y="779" type="line" smooth="yes"/>
      <point x="-84" y="795"/>
      <point x="-65" y="814"/>
      <point x="-49" y="814" type="qcurve" smooth="yes"/>
      <point x="-45" y="814" type="line" smooth="yes"/>
      <point x="-29" y="814"/>
      <point x="-10" y="795"/>
      <point x="-10" y="779" type="qcurve" smooth="yes"/>
      <point x="-12" y="650" type="line" smooth="yes"/>
      <point x="-12" y="634"/>
      <point x="-31" y="615"/>
      <point x="-47" y="615" type="qcurve" smooth="yes"/>
      <point x="-63" y="615"/>
      <point x="-82" y="634"/>
    </contour>
  </outline>
</glyph>
<glyph name="Theta" format="2">
  <advance width="537"/>
  <unicode hex="0398"/>
  <outline>
    <contour>
      <point x="70" y="44" type="line" smooth="yes"/>
      <point x="50" y="64"/>
      <point x="50" y="93" type="qcurve" smooth="yes"/>
      <point x="50" y="609" type="line"/>
      <point x="49" y="638"/>
      <point x="70" y="659" type="qcurve" smooth="yes"/>
      <point x="102" y="691" type="line" smooth="yes"/>
      <point x="122" y="711"/>
      <point x="151" y="711" type="qcurve" smooth="yes"/>
      <point x="386" y="711" type="line" smooth="yes"/>
      <point x="414" y="711"/>
      <point x="435" y="690" type="qcurve" smooth="yes"/>
      <point x="467" y="658" type="line" smooth="yes"/>
      <point x="487" y="638"/>
      <point x="487" y="609" type="qcurve" smooth="yes"/>
      <point x="487" y="93" type="line"/>
      <point x="488" y="64"/>
      <point x="467" y="43" type="qcurve" smooth="yes"/>
      <point x="435" y="11" type="line" smooth="yes"/>
      <point x="415" y="-9"/>
      <point x="386" y="-9" type="qcurve" smooth="yes"/>
      <point x="152" y="-9" type="line" smooth="yes"/>
      <point x="123" y="-9"/>
      <point x="103" y="11" type="qcurve" smooth="yes"/>
    </contour>
    <contour>
      <point x="141" y="122" type="line" smooth="yes"/>
      <point x="141" y="82"/>
      <point x="181" y="82" type="qcurve" smooth="yes"/>
      <point x="356" y="82" type="line" smooth="yes"/>
      <point x="396" y="82"/>
      <point x="396" y="122" type="qcurve" smooth="yes"/>
      <point x="396" y="580" type="line" smooth="yes"/>
      <point x="396" y="620"/>
      <point x="356" y="620" type="qcurve" smooth="yes"/>
      <point x="181" y="620" type="line" smooth="yes"/>
      <point x="141" y="620"/>
      <point x="141" y="580" type="qcurve" smooth="yes"/>
    </contour>
    <contour>
      <point x="206" y="315" type="line" smooth="yes"/>
      <point x="166" y="315"/>
      <point x="166" y="355" type="qcurve" smooth="yes"/>
      <point x="166" y="363" type="line" smooth="yes"/>
      <point x="166" y="403"/>
      <point x="206" y="403" type="qcurve" smooth="yes"/>
      <point x="331" y="403" type="line" smooth="yes"/>
      <point x="371" y="403"/>
      <point x="371" y="363" type="qcurve" smooth="yes"/>
      <point x="371" y="355" type="line" smooth="yes"/>
      <point x="371" y="315"/>
      <point x="331" y="315" type="qcurve" smooth="yes"/>
    </contour>
  </outline>
</glyph>
<glyph name="Kappa" format="2">
  <advance width="486"/>
  <unicode hex="039A"/>
  <outline>
    <contour>
      <point x="90" y="-9" type="line" smooth="yes"/>
      <point x="50" y="-9"/>
      <point x="50" y="31" type="qcurve" smooth="yes"/>
      <point x="50" y="671" type="line" smooth="yes"/>
      <point x="50" y="711"/>
      <point x="90" y="711" type="qcurve" smooth="yes"/>
      <point x="101" y="711" type="line" smooth="yes"/>
      <point x="141" y="711"/>
      <point x="141" y="671" type="qcurve" smooth="yes"/>
      <point x="141" y="453" type="line" smooth="yes"/>
      <point x="141" y="437"/>
      <point x="153" y="418"/>
      <point x="163" y="418" type="qcurve" smooth="yes"/>
      <point x="175" y="418"/>
      <point x="190" y="433" type="qcurve" smooth="yes"/>
      <point x="335" y="580" type="line" smooth="yes"/>
      <point x="355" y="601"/>
      <point x="355" y="630" type="qcurve" smooth="yes"/>
      <point x="355" y="671" type="line" smooth="yes"/>
      <point x="355" y="711"/>
      <point x="395" y="711" type="qcurve" smooth="yes"/>
      <point x="406" y="711" type="line" smooth="yes"/>
      <point x="446" y="711"/>
      <point x="446" y="671" type="qcurve" smooth="yes"/>
      <point x="446" y="593" type="line" smooth="yes"/>
      <point x="446" y="564"/>
      <point x="426" y="543" type="qcurve" smooth="yes"/>
      <point x="258" y="372" type="line" smooth="yes"/>
      <point x="245" y="359"/>
      <point x="245" y="344" type="qcurve" smooth="yes"/>
      <point x="245" y="328"/>
      <point x="261" y="315" type="qcurve" smooth="yes"/>
      <point x="423" y="183" type="line" smooth="yes"/>
      <point x="436" y="173"/>
      <point x="446" y="150"/>
      <point x="446" y="134" type="qcurve" smooth="yes"/>
      <point x="446" y="31" type="line" smooth="yes"/>
      <point x="446" y="-9"/>
      <point x="406" y="-9" type="qcurve" smooth="yes"/>
      <point x="395" y="-9" type="line" smooth="yes"/>
      <point x="355" y="-9"/>
      <point x="355" y="31" type="qcurve" smooth="yes"/>
      <point x="355" y="90" type="line" smooth="yes"/>
      <point x="355" y="106"/>
      <point x="345" y="129"/>
      <point x="332" y="139" type="qcurve" smooth="yes"/>
      <point x="190" y="256" type="line"/>
      <point x="178" y="267"/>
      <point x="165" y="267" type="qcurve" smooth="yes"/>
      <point x="154" y="267"/>
      <point x="141" y="249"/>
      <point x="141" y="233" type="qcurve" smooth="yes"/>
      <point x="141" y="31" type="line" smooth="yes"/>
      <point x="141" y="-9"/>
      <point x="101" y="-9" type="qcurve" smooth="yes"/>
    </contour>
  </outline>
</glyph>
<glyph name="Lambda" format="2">
  <advance width="571"/>
  <unicode hex="039B"/>
  <outline>
    <contour>
      <point x="30" y="19" type="qcurve" smooth="yes"/>
      <point x="30" y="23"/>
      <point x="31" y="28" type="qcurve" smooth="yes"/>
      <point x="160" y="674" type="line" smooth="yes"/>
      <point x="166" y="710"/>
      <point x="204" y="710" type="qcurve" smooth="yes"/>
      <point x="328" y="710" type="line" smooth="yes"/>
      <point x="366" y="710"/>
      <point x="372" y="674" type="qcurve" smooth="yes"/>
      <point x="504" y="28" type="line" smooth="yes"/>
      <point x="505" y="23"/>
      <point x="505" y="19" type="qcurve" smooth="yes"/>
      <point x="505" y="-8"/>
      <point x="474" y="-8" type="qcurve" smooth="yes"/>
      <point x="455" y="-8" type="line" smooth="yes"/>
      <point x="417" y="-8"/>
      <point x="411" y="28" type="qcurve" smooth="yes"/>
      <point x="294" y="597" type="line" smooth="yes"/>
      <point x="289" y="619"/>
      <point x="266" y="619" type="qcurve" smooth="yes"/>
      <point x="244" y="619"/>
      <point x="239" y="597" type="qcurve" smooth="yes"/>
      <point x="124" y="28" type="line" smooth="yes"/>
      <point x="118" y="-8"/>
      <point x="80" y="-8" type="qcurve" smooth="yes"/>
      <point x="61" y="-8" type="line" smooth="yes"/>
      <point x="30" y="-8"/>
    </contour>
  </outline>
</glyph>
<glyph name="Xi" format="2">
  <advance width="496"/>
  <unicode hex="039E"/>
  <outline>
    <contour>
      <point x="90" y="619" type="line" smooth="yes"/>
      <point x="50" y="619"/>
      <point x="50" y="659" type="qcurve" smooth="yes"/>
      <point x="50" y="670" type="line" smooth="yes"/>
      <point x="50" y="710"/>
      <point x="90" y="710" type="qcurve" smooth="yes"/>
      <point x="406" y="710" type="line" smooth="yes"/>
      <point x="446" y="710"/>
      <point x="446" y="670" type="qcurve" smooth="yes"/>
      <point x="446" y="659" type="line" smooth="yes"/>
      <point x="446" y="619"/>
      <point x="406" y="619" type="qcurve" smooth="yes"/>
    </contour>
    <contour>
      <point x="90" y="-9" type="line" smooth="yes"/>
      <point x="50" y="-9"/>
      <point x="50" y="31" type="qcurve" smooth="yes"/>
      <point x="50" y="42" type="line" smooth="yes"/>
      <point x="50" y="82"/>
      <point x="90" y="82" type="qcurve" smooth="yes"/>
      <point x="406" y="82" type="line" smooth="yes"/>
      <point x="446" y="82"/>
      <point x="446" y="42" type="qcurve" smooth="yes"/>
      <point x="446" y="31" type="line" smooth="yes"/>
      <point x="446" y="-9"/>
      <point x="406" y="-9" type="qcurve" smooth="yes"/>
    </contour>
    <contour>
      <point x="132" y="316" type="line" smooth="yes"/>
      <point x="92" y="316"/>
      <point x="92" y="356" type="qcurve" smooth="yes"/>
      <point x="92" y="364" type="line" smooth="yes"/>
      <point x="92" y="404"/>
      <point x="132" y="404" type="qcurve" smooth="yes"/>
      <point x="365" y="404" type="line" smooth="yes"/>
      <point x="405" y="404"/>
      <point x="405" y="364" type="qcurve" smooth="yes"/>
      <point x="405" y="356" type="line" smooth="yes"/>
      <point x="405" y="316"/>
      <point x="365" y="316" type="qcurve" smooth="yes"/>
    </contour>
  </outline>
</glyph>
<glyph name="Omicron" format="2">
  <advance width="496"/>
  <unicode hex="039F"/>
  <outline>
    <contour>
      <point x="70" y="44" type="line" smooth="yes"/>
      <point x="50" y="64"/>
      <point x="50" y="93" type="qcurve" smooth="yes"/>
      <point x="50" y="609" type="line"/>
      <point x="49" y="638"/>
      <point x="70" y="659" type="qcurve" smooth="yes"/>
      <point x="102" y="691" type="line" smooth="yes"/>
      <point x="122" y="711"/>
      <point x="151" y="711" type="qcurve" smooth="yes"/>
      <point x="345" y="711" type="line" smooth="yes"/>
      <point x="373" y="711"/>
      <point x="394" y="690" type="qcurve" smooth="yes"/>
      <point x="426" y="658" type="line" smooth="yes"/>
      <point x="446" y="638"/>
      <point x="446" y="609" type="qcurve" smooth="yes"/>
      <point x="446" y="93" type="line"/>
      <point x="447" y="64"/>
      <point x="426" y="43" type="qcurve" smooth="yes"/>
      <point x="394" y="11" type="line" smooth="yes"/>
      <point x="374" y="-9"/>
      <point x="345" y="-9" type="qcurve" smooth="yes"/>
      <point x="152" y="-9" type="line" smooth="yes"/>
      <point x="123" y="-9"/>
      <point x="103" y="11" type="qcurve" smooth="yes"/>
    </contour>
    <contour>
      <point x="141" y="122" type="line" smooth="yes"/>
      <point x="141" y="82"/>
      <point x="181" y="82" type="qcurve" smooth="yes"/>
      <point x="315" y="82" type="line" smooth="yes"/>
      <point x="355" y="82"/>
      <point x="355" y="122" type="qcurve" smooth="yes"/>
      <point x="355" y="580" type="line" smooth="yes"/>
      <point x="355" y="620"/>
      <point x="315" y="620" type="qcurve" smooth="yes"/>
      <point x="181" y="620" type="line" smooth="yes"/>
      <point x="141" y="620"/>
      <point x="141" y="580" type="qcurve" smooth="yes"/>
    </contour>
  </outline>
</glyph>
<glyph name="Pi" format="2">
  <advance width="505"/>
  <unicode hex="03A0"/>
  <outline>
    <contour>
      <point x="90" y="-9" type="line" smooth="yes"/>
      <point x="50" y="-9"/>
      <point x="50" y="31" type="qcurve" smooth="yes"/>
      <point x="50" y="669" type="line" smooth="yes"/>
      <point x="50" y="709"/>
      <point x="90" y="709" type="qcurve" smooth="yes"/>
      <point x="415" y="709" type="line" smooth="yes"/>
      <point x="455" y="709"/>
      <point x="455" y="669" type="qcurve" smooth="yes"/>
      <point x="455" y="31" type="line" smooth="yes"/>
      <point x="455" y="-9"/>
      <point x="415" y="-9" type="qcurve" smooth="yes"/>
      <point x="404" y="-9" type="line" smooth="yes"/>
      <point x="364" y="-9"/>
      <point x="364" y="31" type="qcurve" smooth="yes"/>
      <point x="364" y="578" type="line" smooth="yes"/>
      <point x="364" y="618"/>
      <point x="324" y="618" type="qcurve" smooth="yes"/>
      <point x="181" y="618" type="line" smooth="yes"/>
      <point x="141" y="618"/>
      <point x="141" y="578" type="qcurve" smooth="yes"/>
      <point x="141" y="31" type="line" smooth="yes"/>
      <point x="141" y="-9"/>
      <point x="101" y="-9" type="qcurve" smooth="yes"/>
    </contour>
  </outline>
</glyph>
<glyph name="Rho" format="2">
  <advance width="486"/>
  <unicode hex="03A1"/>
  <outline>
    <contour>
      <point x="90" y="-10" type="line" smooth="yes"/>
      <point x="50" y="-10"/>
      <point x="50" y="30" type="qcurve" smooth="yes"/>
      <point x="50" y="668" type="line" smooth="yes"/>
      <point x="50" y="708"/>
      <point x="90" y="708" type="qcurve" smooth="yes"/>
      <point x="345" y="708" type="line" smooth="yes"/>
      <point x="374" y="708"/>
      <point x="394" y="688" type="qcurve" smooth="yes"/>
      <point x="426" y="656" type="line" smooth="yes"/>
      <point x="446" y="635"/>
      <point x="446" y="606" type="qcurve" smooth="yes"/>
      <point x="446" y="338" type="line"/>
      <point x="447" y="309"/>
      <point x="426" y="288" type="qcurve" smooth="yes"/>
      <point x="394" y="256" type="line" smooth="yes"/>
      <point x="374" y="236"/>
      <point x="345" y="236" type="qcurve" smooth="yes"/>
      <point x="181" y="236" type="line" smooth="yes"/>
      <point x="141" y="236"/>
      <point x="141" y="196" type="qcurve" smooth="yes"/>
      <point x="141" y="30" type="line" smooth="yes"/>
      <point x="141" y="-10"/>
      <point x="101" y="-10" type="qcurve" smooth="yes"/>
    </contour>
    <contour>
      <point x="142" y="367" type="line" smooth="yes"/>
      <point x="142" y="327"/>
      <point x="182" y="327" type="qcurve" smooth="yes"/>
      <point x="315" y="327" type="line" smooth="yes"/>
      <point x="355" y="327"/>
      <point x="355" y="367" type="qcurve" smooth="yes"/>
      <point x="356" y="577" type="line" smooth="yes"/>
      <point x="356" y="617"/>
      <point x="316" y="617" type="qcurve" smooth="yes"/>
      <point x="182" y="617" type="line" smooth="yes"/>
      <point x="142" y="617"/>
      <point x="142" y="577" type="qcurve" smooth="yes"/>
    </contour>
  </outline>
</glyph>
<glyph name="Sigma" format="2">
  <advance width="497"/>
  <unicode hex="03A3"/>
  <outline>
    <contour>
      <point x="87" y="-12" type="line" smooth="yes"/>
      <point x="50" y="-12"/>
      <point x="50" y="25" type="qcurve" smooth="yes"/>
      <point x="50" y="68" type="line" smooth="yes"/>
      <point x="50" y="105"/>
      <point x="70" y="136" type="qcurve" smooth="yes"/>
      <point x="189" y="317" type="line"/>
      <point x="198" y="332"/>
      <point x="198" y="348" type="qcurve" smooth="yes"/>
      <point x="198" y="366"/>
      <point x="189" y="379" type="qcurve" smooth="yes"/>
      <point x="70" y="559" type="line" smooth="yes"/>
      <point x="50" y="590"/>
      <point x="50" y="627" type="qcurve" smooth="yes"/>
      <point x="50" y="673" type="line" smooth="yes"/>
      <point x="50" y="710"/>
      <point x="87" y="710" type="qcurve" smooth="yes"/>
      <point x="410" y="710" type="line" smooth="yes"/>
      <point x="447" y="710"/>
      <point x="447" y="673" type="qcurve" smooth="yes"/>
      <point x="447" y="656" type="line" smooth="yes"/>
      <point x="447" y="619"/>
      <point x="410" y="619" type="qcurve" smooth="yes"/>
      <point x="178" y="619" type="line" smooth="yes"/>
      <point x="155" y="619"/>
      <point x="155" y="604" type="qcurve" smooth="yes"/>
      <point x="155" y="597"/>
      <point x="161" y="588" type="qcurve" smooth="yes"/>
      <point x="297" y="379" type="line" smooth="yes"/>
      <point x="306" y="366"/>
      <point x="306" y="348" type="qcurve" smooth="yes"/>
      <point x="306" y="332"/>
      <point x="297" y="317" type="qcurve"/>
      <point x="163" y="110" type="line" smooth="yes"/>
      <point x="157" y="101"/>
      <point x="157" y="94" type="qcurve" smooth="yes"/>
      <point x="157" y="79"/>
      <point x="180" y="79" type="qcurve" smooth="yes"/>
      <point x="410" y="79" type="line" smooth="yes"/>
      <point x="447" y="79"/>
      <point x="447" y="42" type="qcurve" smooth="yes"/>
      <point x="447" y="25" type="line" smooth="yes"/>
      <point x="447" y="-12"/>
      <point x="410" y="-12" type="qcurve" smooth="yes"/>
    </contour>
  </outline>
</glyph>
<glyph name="Phi" format="2">
  <advance width="545"/>
  <unicode hex="03A6"/>
  <outline>
    <contour>
      <point x="157" y="0" type="qcurve" smooth="yes"/>
      <point x="157" y="11" type="line" smooth="yes"/>
      <point x="157" y="30"/>
      <point x="175" y="51"/>
      <point x="192" y="51" type="qcurve" smooth="yes"/>
      <point x="208" y="51"/>
      <point x="227" y="71"/>
      <point x="227" y="87" type="qcurve" smooth="yes"/>
      <point x="227" y="124"/>
      <point x="190" y="124" type="qcurve" smooth="yes"/>
      <point x="137" y="124" type="line" smooth="yes"/>
      <point x="108" y="124"/>
      <point x="88" y="144" type="qcurve" smooth="yes"/>
      <point x="55" y="177" type="line" smooth="yes"/>
      <point x="35" y="197"/>
      <point x="35" y="226" type="qcurve" smooth="yes"/>
      <point x="35" y="474" type="line"/>
      <point x="34" y="503"/>
      <point x="55" y="524" type="qcurve" smooth="yes"/>
      <point x="87" y="556" type="line" smooth="yes"/>
      <point x="107" y="576"/>
      <point x="136" y="576" type="qcurve" smooth="yes"/>
      <point x="190" y="576" type="line" smooth="yes"/>
      <point x="227" y="576"/>
      <point x="227" y="613" type="qcurve" smooth="yes"/>
      <point x="227" y="630"/>
      <point x="208" y="649"/>
      <point x="192" y="649" type="qcurve" smooth="yes"/>
      <point x="175" y="649"/>
      <point x="157" y="670"/>
      <point x="157" y="689" type="qcurve" smooth="yes"/>
      <point x="157" y="700" type="line" smooth="yes"/>
      <point x="157" y="740"/>
      <point x="197" y="740" type="qcurve" smooth="yes"/>
      <point x="349" y="740" type="line" smooth="yes"/>
      <point x="389" y="740"/>
      <point x="389" y="700" type="qcurve" smooth="yes"/>
      <point x="389" y="689" type="line" smooth="yes"/>
      <point x="389" y="649"/>
      <point x="354" y="649" type="qcurve" smooth="yes"/>
      <point x="339" y="649"/>
      <point x="318" y="630"/>
      <point x="318" y="613" type="qcurve" smooth="yes"/>
      <point x="318" y="576"/>
      <point x="355" y="576" type="qcurve" smooth="yes"/>
      <point x="409" y="576" type="line" smooth="yes"/>
      <point x="437" y="576"/>
      <point x="458" y="555" type="qcurve" smooth="yes"/>
      <point x="490" y="523" type="line" smooth="yes"/>
      <point x="510" y="503"/>
      <point x="510" y="474" type="qcurve" smooth="yes"/>
      <point x="510" y="226" type="line"/>
      <point x="511" y="197"/>
      <point x="490" y="176" type="qcurve" smooth="yes"/>
      <point x="458" y="144" type="line" smooth="yes"/>
      <point x="438" y="124"/>
      <point x="409" y="124" type="qcurve" smooth="yes"/>
      <point x="355" y="124" type="line" smooth="yes"/>
      <point x="318" y="124"/>
      <point x="318" y="87" type="qcurve" smooth="yes"/>
      <point x="318" y="71"/>
      <point x="339" y="51"/>
      <point x="354" y="51" type="qcurve" smooth="yes"/>
      <point x="371" y="51"/>
      <point x="389" y="30"/>
      <point x="389" y="11" type="qcurve" smooth="yes"/>
      <point x="389" y="0" type="line" smooth="yes"/>
      <point x="389" y="-40"/>
      <point x="349" y="-40" type="qcurve" smooth="yes"/>
      <point x="197" y="-40" type="line" smooth="yes"/>
      <point x="157" y="-40"/>
    </contour>
    <contour>
      <point x="126" y="250" type="line" smooth="yes"/>
      <point x="126" y="210"/>
      <point x="166" y="210" type="qcurve" smooth="yes"/>
      <point x="190" y="210" type="line" smooth="yes"/>
      <point x="227" y="210"/>
      <point x="227" y="247" type="qcurve" smooth="yes"/>
      <point x="227" y="452" type="line" smooth="yes"/>
      <point x="227" y="489"/>
      <point x="190" y="489" type="qcurve" smooth="yes"/>
      <point x="166" y="489" type="line" smooth="yes"/>
      <point x="126" y="489"/>
      <point x="126" y="449" type="qcurve" smooth="yes"/>
    </contour>
    <contour>
      <point x="318" y="247" type="line" smooth="yes"/>
      <point x="318" y="210"/>
      <point x="355" y="210" type="qcurve" smooth="yes"/>
      <point x="379" y="210" type="line" smooth="yes"/>
      <point x="419" y="210"/>
      <point x="419" y="250" type="qcurve" smooth="yes"/>
      <point x="419" y="449" type="line" smooth="yes"/>
      <point x="419" y="489"/>
      <point x="379" y="489" type="qcurve" smooth="yes"/>
      <point x="355" y="489" type="line" smooth="yes"/>
      <point x="318" y="489"/>
      <point x="318" y="452" type="qcurve" smooth="yes"/>
    </contour>
  </outline>
</glyph>
<glyph name="beta" format="2">
  <advance width="477"/>
  <unicode hex="03B2"/>
  <outline>
    <contour>
      <point x="50" y="-174" type="qcurve" smooth="yes"/>
      <point x="50" y="593" type="line" smooth="yes"/>
      <point x="50" y="633"/>
      <point x="78" y="661" type="qcurve" smooth="yes"/>
      <point x="95" y="678" type="line" smooth="yes"/>
      <point x="123" y="706"/>
      <point x="163" y="706" type="qcurve" smooth="yes"/>
      <point x="326" y="706" type="line" smooth="yes"/>
      <point x="355" y="706"/>
      <point x="375" y="686" type="qcurve" smooth="yes"/>
      <point x="407" y="654" type="line" smooth="yes"/>
      <point x="427" y="634"/>
      <point x="427" y="605" type="qcurve" smooth="yes"/>
      <point x="427" y="434" type="line" smooth="yes"/>
      <point x="427" y="405"/>
      <point x="407" y="384" type="qcurve" smooth="yes"/>
      <point x="395" y="372"/>
      <point x="395" y="359" type="qcurve" smooth="yes"/>
      <point x="395" y="347"/>
      <point x="405" y="337" type="qcurve" smooth="yes"/>
      <point x="407" y="335" type="line" smooth="yes"/>
      <point x="427" y="315"/>
      <point x="427" y="285" type="qcurve" smooth="yes"/>
      <point x="427" y="94" type="line" smooth="yes"/>
      <point x="427" y="65"/>
      <point x="407" y="45" type="qcurve" smooth="yes"/>
      <point x="375" y="13" type="line" smooth="yes"/>
      <point x="355" y="-7"/>
      <point x="326" y="-7" type="qcurve" smooth="yes"/>
      <point x="218" y="-7" type="line" smooth="yes"/>
      <point x="186" y="-7"/>
      <point x="164" y="15" type="qcurve" smooth="yes"/>
      <point x="155" y="24"/>
      <point x="150" y="24" type="qcurve" smooth="yes"/>
      <point x="141" y="24"/>
      <point x="141" y="6" type="qcurve" smooth="yes"/>
      <point x="141" y="-174" type="line" smooth="yes"/>
      <point x="141" y="-214"/>
      <point x="101" y="-214" type="qcurve" smooth="yes"/>
      <point x="90" y="-214" type="line" smooth="yes"/>
      <point x="50" y="-214"/>
    </contour>
    <contour>
      <point x="186" y="111" type="line" smooth="yes"/>
      <point x="214" y="83"/>
      <point x="254" y="83" type="qcurve" smooth="yes"/>
      <point x="297" y="83" type="line" smooth="yes"/>
      <point x="337" y="83"/>
      <point x="337" y="123" type="qcurve" smooth="yes"/>
      <point x="337" y="274" type="line" smooth="yes"/>
      <point x="337" y="314"/>
      <point x="297" y="314" type="qcurve" smooth="yes"/>
      <point x="217" y="314" type="line" smooth="yes"/>
      <point x="177" y="314"/>
      <point x="177" y="354" type="qcurve" smooth="yes"/>
      <point x="177" y="365" type="line" smooth="yes"/>
      <point x="177" y="405"/>
      <point x="217" y="405" type="qcurve" smooth="yes"/>
      <point x="297" y="405" type="line" smooth="yes"/>
      <point x="337" y="405"/>
      <point x="337" y="445" type="qcurve" smooth="yes"/>
      <point x="337" y="575" type="line" smooth="yes"/>
      <point x="337" y="615"/>
      <point x="297" y="615" type="qcurve" smooth="yes"/>
      <point x="181" y="615" type="line" smooth="yes"/>
      <point x="141" y="615"/>
      <point x="141" y="575" type="qcurve" smooth="yes"/>
      <point x="141" y="196" type="line" smooth="yes"/>
      <point x="141" y="156"/>
      <point x="169" y="128" type="qcurve" smooth="yes"/>
    </contour>
  </outline>
</glyph>
<glyph name="gamma" format="2">
  <advance width="372"/>
  <unicode hex="03B3"/>
  <outline>
    <contour>
      <point x="140" y="-174" type="qcurve" smooth="yes"/>
      <point x="140" y="53" type="line" smooth="yes"/>
      <point x="140" y="93"/>
      <point x="130" y="125" type="qcurve" smooth="yes"/>
      <point x="33" y="450" type="line" smooth="yes"/>
      <point x="31" y="456"/>
      <point x="31" y="462" type="qcurve" smooth="yes"/>
      <point x="31" y="485"/>
      <point x="60" y="485" type="qcurve" smooth="yes"/>
      <point x="79" y="485" type="line" smooth="yes"/>
      <point x="115" y="485"/>
      <point x="126" y="449" type="qcurve"/>
      <point x="176" y="261" type="line"/>
      <point x="181" y="245"/>
      <point x="186" y="245" type="qcurve" smooth="yes"/>
      <point x="191" y="245"/>
      <point x="196" y="261" type="qcurve"/>
      <point x="246" y="449" type="line"/>
      <point x="257" y="485"/>
      <point x="293" y="485" type="qcurve" smooth="yes"/>
      <point x="312" y="485" type="line" smooth="yes"/>
      <point x="340" y="485"/>
      <point x="340" y="462" type="qcurve" smooth="yes"/>
      <point x="340" y="457"/>
      <point x="338" y="450" type="qcurve" smooth="yes"/>
      <point x="241" y="121" type="line" smooth="yes"/>
      <point x="230" y="86"/>
      <point x="230" y="49" type="qcurve" smooth="yes"/>
      <point x="230" y="-174" type="line" smooth="yes"/>
      <point x="230" y="-214"/>
      <point x="190" y="-214" type="qcurve" smooth="yes"/>
      <point x="180" y="-214" type="line" smooth="yes"/>
      <point x="140" y="-214"/>
    </contour>
  </outline>
</glyph>
<glyph name="zeta" format="2">
  <advance width="430"/>
  <unicode hex="03B6"/>
  <outline>
    <contour>
      <point x="92" y="13" type="qcurve" smooth="yes"/>
      <point x="60" y="45" type="line" smooth="yes"/>
      <point x="40" y="65"/>
      <point x="40" y="93" type="qcurve" smooth="yes"/>
      <point x="40" y="114" type="line" smooth="yes"/>
      <point x="40" y="153"/>
      <point x="60" y="189" type="qcurve" smooth="yes"/>
      <point x="287" y="587" type="line" smooth="yes"/>
      <point x="293" y="598"/>
      <point x="293" y="604" type="qcurve" smooth="yes"/>
      <point x="293" y="622"/>
      <point x="267" y="622" type="qcurve" smooth="yes"/>
      <point x="80" y="622" type="line" smooth="yes"/>
      <point x="40" y="622"/>
      <point x="40" y="662" type="qcurve" smooth="yes"/>
      <point x="40" y="673" type="line" smooth="yes"/>
      <point x="40" y="713"/>
      <point x="80" y="713" type="qcurve" smooth="yes"/>
      <point x="357" y="713" type="line" smooth="yes"/>
      <point x="397" y="713"/>
      <point x="397" y="673" type="qcurve" smooth="yes"/>
      <point x="397" y="632" type="line" smooth="yes"/>
      <point x="397" y="593"/>
      <point x="377" y="557" type="qcurve" smooth="yes"/>
      <point x="147" y="149" type="line" smooth="yes"/>
      <point x="136" y="130"/>
      <point x="136" y="106" type="qcurve" smooth="yes"/>
      <point x="136" y="83"/>
      <point x="159" y="83" type="qcurve" smooth="yes"/>
      <point x="287" y="83" type="line" smooth="yes"/>
      <point x="327" y="83"/>
      <point x="355" y="55" type="qcurve" smooth="yes"/>
      <point x="372" y="38" type="line" smooth="yes"/>
      <point x="400" y="10"/>
      <point x="400" y="-30" type="qcurve" smooth="yes"/>
      <point x="400" y="-97" type="line" smooth="yes"/>
      <point x="400" y="-137"/>
      <point x="360" y="-137" type="qcurve" smooth="yes"/>
      <point x="345" y="-137" type="line" smooth="yes"/>
      <point x="309" y="-137"/>
      <point x="309" y="-101" type="qcurve" smooth="yes"/>
      <point x="309" y="-82" type="line" smooth="yes"/>
      <point x="309" y="-52"/>
      <point x="288" y="-31" type="qcurve" smooth="yes"/>
      <point x="264" y="-7"/>
      <point x="231" y="-7" type="qcurve" smooth="yes"/>
      <point x="141" y="-7" type="line" smooth="yes"/>
      <point x="112" y="-7"/>
    </contour>
  </outline>
</glyph>
<glyph name="theta" format="2">
  <advance width="468"/>
  <unicode hex="03B8"/>
  <outline>
    <contour>
      <point x="102" y="10" type="qcurve" smooth="yes"/>
      <point x="70" y="42" type="line" smooth="yes"/>
      <point x="50" y="62"/>
      <point x="50" y="91" type="qcurve" smooth="yes"/>
      <point x="50" y="610" type="line" smooth="yes"/>
      <point x="50" y="639"/>
      <point x="70" y="659" type="qcurve" smooth="yes"/>
      <point x="102" y="691" type="line" smooth="yes"/>
      <point x="122" y="711"/>
      <point x="152" y="711" type="qcurve" smooth="yes"/>
      <point x="317" y="711" type="line" smooth="yes"/>
      <point x="345" y="711"/>
      <point x="366" y="690" type="qcurve" smooth="yes"/>
      <point x="398" y="658" type="line" smooth="yes"/>
      <point x="418" y="638"/>
      <point x="418" y="609" type="qcurve" smooth="yes"/>
      <point x="418" y="91" type="line" smooth="yes"/>
      <point x="418" y="76"/>
      <point x="408" y="53"/>
      <point x="397" y="42" type="qcurve" smooth="yes"/>
      <point x="365" y="10" type="line" smooth="yes"/>
      <point x="345" y="-10"/>
      <point x="316" y="-10" type="qcurve" smooth="yes"/>
      <point x="151" y="-10" type="line" smooth="yes"/>
      <point x="122" y="-10"/>
    </contour>
    <contour>
      <point x="141" y="437" type="line" smooth="yes"/>
      <point x="141" y="397"/>
      <point x="181" y="397" type="qcurve" smooth="yes"/>
      <point x="292" y="397" type="line" smooth="yes"/>
      <point x="327" y="397"/>
      <point x="327" y="432" type="qcurve" smooth="yes"/>
      <point x="327" y="580" type="line" smooth="yes"/>
      <point x="327" y="620"/>
      <point x="287" y="620" type="qcurve" smooth="yes"/>
      <point x="181" y="620" type="line" smooth="yes"/>
      <point x="141" y="620"/>
      <point x="141" y="580" type="qcurve" smooth="yes"/>
    </contour>
    <contour>
      <point x="141" y="120" type="line" smooth="yes"/>
      <point x="141" y="80"/>
      <point x="181" y="80" type="qcurve" smooth="yes"/>
      <point x="287" y="80" type="line" smooth="yes"/>
      <point x="327" y="80"/>
      <point x="327" y="120" type="qcurve" smooth="yes"/>
      <point x="327" y="274" type="line" smooth="yes"/>
      <point x="327" y="309"/>
      <point x="292" y="309" type="qcurve" smooth="yes"/>
      <point x="176" y="309" type="line" smooth="yes"/>
      <point x="141" y="309"/>
      <point x="141" y="274" type="qcurve" smooth="yes"/>
    </contour>
  </outline>
</glyph>
<glyph name="lambda" format="2">
  <advance width="416"/>
  <unicode hex="03BB"/>
  <outline>
    <contour>
      <point x="28" y="6" type="qcurve" smooth="yes"/>
      <point x="28" y="13"/>
      <point x="31" y="20" type="qcurve" smooth="yes"/>
      <point x="152" y="347" type="line"/>
      <point x="158" y="365"/>
      <point x="158" y="385" type="qcurve" smooth="yes"/>
      <point x="158" y="407"/>
      <point x="152" y="423" type="qcurve" smooth="yes"/>
      <point x="62" y="672" type="line" smooth="yes"/>
      <point x="59" y="680"/>
      <point x="59" y="686" type="qcurve" smooth="yes"/>
      <point x="59" y="710"/>
      <point x="88" y="710" type="qcurve" smooth="yes"/>
      <point x="101" y="710" type="line" smooth="yes"/>
      <point x="142" y="710"/>
      <point x="155" y="672" type="qcurve" smooth="yes"/>
      <point x="391" y="20" type="line" smooth="yes"/>
      <point x="394" y="13"/>
      <point x="394" y="6" type="qcurve" smooth="yes"/>
      <point x="394" y="-18"/>
      <point x="365" y="-18" type="qcurve" smooth="yes"/>
      <point x="351" y="-18" type="line" smooth="yes"/>
      <point x="310" y="-18"/>
      <point x="297" y="20" type="qcurve" smooth="yes"/>
      <point x="226" y="216" type="line"/>
      <point x="220" y="235"/>
      <point x="211" y="235" type="qcurve" smooth="yes"/>
      <point x="203" y="235"/>
      <point x="196" y="216" type="qcurve" smooth="yes"/>
      <point x="125" y="20" type="line" smooth="yes"/>
      <point x="112" y="-18"/>
      <point x="71" y="-18" type="qcurve" smooth="yes"/>
      <point x="57" y="-18" type="line" smooth="yes"/>
      <point x="28" y="-18"/>
    </contour>
  </outline>
</glyph>
<glyph name="xi" format="2">
  <advance width="420"/>
  <unicode hex="03BE"/>
  <outline>
    <contour>
      <point x="102" y="13" type="qcurve" smooth="yes"/>
      <point x="70" y="45" type="line" smooth="yes"/>
      <point x="50" y="65"/>
      <point x="50" y="94" type="qcurve" smooth="yes"/>
      <point x="50" y="279" type="line" smooth="yes"/>
      <point x="50" y="309"/>
      <point x="70" y="329" type="qcurve" smooth="yes"/>
      <point x="72" y="331" type="line" smooth="yes"/>
      <point x="82" y="341"/>
      <point x="82" y="353" type="qcurve" smooth="yes"/>
      <point x="82" y="366"/>
      <point x="70" y="378" type="qcurve" smooth="yes"/>
      <point x="50" y="399"/>
      <point x="50" y="428" type="qcurve" smooth="yes"/>
      <point x="50" y="609" type="line" smooth="yes"/>
      <point x="50" y="638"/>
      <point x="70" y="658" type="qcurve" smooth="yes"/>
      <point x="102" y="690" type="line" smooth="yes"/>
      <point x="122" y="710"/>
      <point x="151" y="710" type="qcurve" smooth="yes"/>
      <point x="341" y="710" type="line" smooth="yes"/>
      <point x="381" y="710"/>
      <point x="381" y="670" type="qcurve" smooth="yes"/>
      <point x="381" y="659" type="line" smooth="yes"/>
      <point x="381" y="619"/>
      <point x="341" y="619" type="qcurve" smooth="yes"/>
      <point x="180" y="619" type="line" smooth="yes"/>
      <point x="140" y="619"/>
      <point x="140" y="579" type="qcurve" smooth="yes"/>
      <point x="140" y="439" type="line" smooth="yes"/>
      <point x="140" y="399"/>
      <point x="180" y="399" type="qcurve" smooth="yes"/>
      <point x="319" y="399" type="line" smooth="yes"/>
      <point x="359" y="399"/>
      <point x="359" y="359" type="qcurve" smooth="yes"/>
      <point x="359" y="348" type="line" smooth="yes"/>
      <point x="359" y="308"/>
      <point x="319" y="308" type="qcurve" smooth="yes"/>
      <point x="180" y="308" type="line" smooth="yes"/>
      <point x="140" y="308"/>
      <point x="140" y="268" type="qcurve" smooth="yes"/>
      <point x="140" y="123" type="line" smooth="yes"/>
      <point x="140" y="83"/>
      <point x="180" y="83" type="qcurve" smooth="yes"/>
      <point x="277" y="83" type="line" smooth="yes"/>
      <point x="317" y="83"/>
      <point x="345" y="55" type="qcurve" smooth="yes"/>
      <point x="362" y="38" type="line" smooth="yes"/>
      <point x="390" y="10"/>
      <point x="390" y="-30" type="qcurve" smooth="yes"/>
      <point x="390" y="-97" type="line" smooth="yes"/>
      <point x="390" y="-137"/>
      <point x="350" y="-137" type="qcurve" smooth="yes"/>
      <point x="335" y="-137" type="line" smooth="yes"/>
      <point x="299" y="-137"/>
      <point x="299" y="-101" type="qcurve" smooth="yes"/>
      <point x="299" y="-82" type="line" smooth="yes"/>
      <point x="299" y="-52"/>
      <point x="278" y="-31" type="qcurve" smooth="yes"/>
      <point x="254" y="-7"/>
      <point x="221" y="-7" type="qcurve" smooth="yes"/>
      <point x="151" y="-7" type="line" smooth="yes"/>
      <point x="122" y="-7"/>
    </contour>
  </outline>
</glyph>
<glyph name="pi" format="2">
  <advance width="538"/>
  <unicode hex="03C0"/>
  <outline>
    <contour>
      <point x="120" y="32" type="qcurve" smooth="yes"/>
      <point x="120" y="355" type="line" smooth="yes"/>
      <point x="120" y="395"/>
      <point x="80" y="395" type="qcurve" smooth="yes"/>
      <point x="70" y="395" type="line" smooth="yes"/>
      <point x="30" y="395"/>
      <point x="30" y="435" type="qcurve" smooth="yes"/>
      <point x="30" y="445" type="line" smooth="yes"/>
      <point x="30" y="485"/>
      <point x="70" y="485" type="qcurve" smooth="yes"/>
      <point x="468" y="485" type="line" smooth="yes"/>
      <point x="508" y="485"/>
      <point x="508" y="445" type="qcurve" smooth="yes"/>
      <point x="508" y="435" type="line" smooth="yes"/>
      <point x="508" y="395"/>
      <point x="468" y="395" type="qcurve" smooth="yes"/>
      <point x="466" y="395" type="line" smooth="yes"/>
      <point x="426" y="395"/>
      <point x="426" y="355" type="qcurve" smooth="yes"/>
      <point x="426" y="32" type="line" smooth="yes"/>
      <point x="426" y="-8"/>
      <point x="386" y="-8" type="qcurve" smooth="yes"/>
      <point x="375" y="-8" type="line" smooth="yes"/>
      <point x="335" y="-8"/>
      <point x="335" y="32" type="qcurve" smooth="yes"/>
      <point x="335" y="355" type="line" smooth="yes"/>
      <point x="335" y="395"/>
      <point x="295" y="395" type="qcurve" smooth="yes"/>
      <point x="251" y="395" type="line" smooth="yes"/>
      <point x="211" y="395"/>
      <point x="211" y="355" type="qcurve" smooth="yes"/>
      <point x="211" y="32" type="line" smooth="yes"/>
      <point x="211" y="-8"/>
      <point x="171" y="-8" type="qcurve" smooth="yes"/>
      <point x="160" y="-8" type="line" smooth="yes"/>
      <point x="120" y="-8"/>
    </contour>
  </outline>
</glyph>
<glyph name="sigmafinal" format="2">
  <advance width="405"/>
  <unicode hex="03C2"/>
  <outline>
    <contour>
      <point x="103" y="12" type="qcurve" smooth="yes"/>
      <point x="70" y="45" type="line" smooth="yes"/>
      <point x="50" y="65"/>
      <point x="50" y="94" type="qcurve" smooth="yes"/>
      <point x="50" y="383" type="line" smooth="yes"/>
      <point x="50" y="412"/>
      <point x="70" y="432" type="qcurve" smooth="yes"/>
      <point x="103" y="465" type="line" smooth="yes"/>
      <point x="123" y="485"/>
      <point x="152" y="485" type="qcurve" smooth="yes"/>
      <point x="335" y="485" type="line" smooth="yes"/>
      <point x="375" y="485"/>
      <point x="375" y="445" type="qcurve" smooth="yes"/>
      <point x="375" y="434" type="line" smooth="yes"/>
      <point x="375" y="394"/>
      <point x="335" y="394" type="qcurve" smooth="yes"/>
      <point x="181" y="394" type="line" smooth="yes"/>
      <point x="141" y="394"/>
      <point x="141" y="354" type="qcurve" smooth="yes"/>
      <point x="141" y="123" type="line" smooth="yes"/>
      <point x="141" y="83"/>
      <point x="181" y="83" type="qcurve" smooth="yes"/>
      <point x="262" y="83" type="line" smooth="yes"/>
      <point x="302" y="83"/>
      <point x="330" y="55" type="qcurve" smooth="yes"/>
      <point x="347" y="38" type="line" smooth="yes"/>
      <point x="375" y="10"/>
      <point x="375" y="-30" type="qcurve" smooth="yes"/>
      <point x="375" y="-97" type="line" smooth="yes"/>
      <point x="375" y="-137"/>
      <point x="335" y="-137" type="qcurve" smooth="yes"/>
      <point x="320" y="-137" type="line" smooth="yes"/>
      <point x="284" y="-137"/>
      <point x="284" y="-101" type="qcurve" smooth="yes"/>
      <point x="284" y="-83" type="line" smooth="yes"/>
      <point x="284" y="-53"/>
      <point x="263" y="-32" type="qcurve" smooth="yes"/>
      <point x="239" y="-8"/>
      <point x="206" y="-8" type="qcurve" smooth="yes"/>
      <point x="152" y="-8" type="line" smooth="yes"/>
      <point x="123" y="-8"/>
    </contour>
  </outline>
</glyph>
<glyph name="sigma" format="2">
  <advance width="474"/>
  <unicode hex="03C3"/>
  <outline>
    <contour>
      <point x="103" y="11" type="qcurve" smooth="yes"/>
      <point x="70" y="44" type="line" smooth="yes"/>
      <point x="50" y="64"/>
      <point x="50" y="93" type="qcurve" smooth="yes"/>
      <point x="50" y="383" type="line" smooth="yes"/>
      <point x="50" y="412"/>
      <point x="70" y="432" type="qcurve" smooth="yes"/>
      <point x="103" y="465" type="line" smooth="yes"/>
      <point x="123" y="485"/>
      <point x="152" y="485" type="qcurve" smooth="yes"/>
      <point x="423" y="485" type="line" smooth="yes"/>
      <point x="463" y="485"/>
      <point x="463" y="445" type="qcurve" smooth="yes"/>
      <point x="463" y="434" type="line" smooth="yes"/>
      <point x="463" y="394"/>
      <point x="423" y="394" type="qcurve" smooth="yes"/>
      <point x="404" y="394" type="line" smooth="yes"/>
      <point x="364" y="394"/>
      <point x="364" y="354" type="qcurve" smooth="yes"/>
      <point x="364" y="93" type="line"/>
      <point x="365" y="64"/>
      <point x="344" y="43" type="qcurve" smooth="yes"/>
      <point x="312" y="11" type="line" smooth="yes"/>
      <point x="292" y="-9"/>
      <point x="263" y="-9" type="qcurve" smooth="yes"/>
      <point x="152" y="-9" type="line" smooth="yes"/>
      <point x="123" y="-9"/>
    </contour>
    <contour>
      <point x="141" y="122" type="line" smooth="yes"/>
      <point x="141" y="82"/>
      <point x="181" y="82" type="qcurve" smooth="yes"/>
      <point x="233" y="82" type="line" smooth="yes"/>
      <point x="273" y="82"/>
      <point x="273" y="122" type="qcurve" smooth="yes"/>
      <point x="273" y="354" type="line" smooth="yes"/>
      <point x="273" y="394"/>
      <point x="233" y="394" type="qcurve" smooth="yes"/>
      <point x="181" y="394" type="line" smooth="yes"/>
      <point x="141" y="394"/>
      <point x="141" y="354" type="qcurve" smooth="yes"/>
    </contour>
  </outline>
</glyph>
<glyph name="upsilon" format="2">
  <advance width="446"/>
  <unicode hex="03C5"/>
  <anchor x="223" y="485" name="top"/>
  <outline>
    <contour>
      <point x="113" y="11" type="qcurve" smooth="yes"/>
      <point x="80" y="44" type="line" smooth="yes"/>
      <point x="60" y="64"/>
      <point x="60" y="93" type="qcurve" smooth="yes"/>
      <point x="60" y="445" type="line" smooth="yes"/>
      <point x="60" y="485"/>
      <point x="100" y="485" type="qcurve" smooth="yes"/>
      <point x="111" y="485" type="line" smooth="yes"/>
      <point x="151" y="485"/>
      <point x="151" y="445" type="qcurve" smooth="yes"/>
      <point x="151" y="122" type="line" smooth="yes"/>
      <point x="151" y="82"/>
      <point x="191" y="82" type="qcurve" smooth="yes"/>
      <point x="255" y="82" type="line" smooth="yes"/>
      <point x="295" y="82"/>
      <point x="295" y="122" type="qcurve" smooth="yes"/>
      <point x="295" y="445" type="line" smooth="yes"/>
      <point x="295" y="485"/>
      <point x="335" y="485" type="qcurve" smooth="yes"/>
      <point x="346" y="485" type="line" smooth="yes"/>
      <point x="386" y="485"/>
      <point x="386" y="445" type="qcurve" smooth="yes"/>
      <point x="386" y="93" type="line"/>
      <point x="387" y="64"/>
      <point x="366" y="43" type="qcurve" smooth="yes"/>
      <point x="334" y="11" type="line" smooth="yes"/>
      <point x="314" y="-9"/>
      <point x="285" y="-9" type="qcurve" smooth="yes"/>
      <point x="162" y="-9" type="line" smooth="yes"/>
      <point x="133" y="-9"/>
    </contour>
  </outline>
</glyph>
<glyph name="psi" format="2">
  <advance width="537"/>
  <unicode hex="03C8"/>
  <outline>
    <contour>
      <point x="221" y="-174" type="qcurve" smooth="yes"/>
      <point x="221" y="-49" type="line" smooth="yes"/>
      <point x="221" y="-9"/>
      <point x="181" y="-9" type="qcurve" smooth="yes"/>
      <point x="152" y="-9" type="line" smooth="yes"/>
      <point x="123" y="-9"/>
      <point x="103" y="11" type="qcurve" smooth="yes"/>
      <point x="70" y="44" type="line" smooth="yes"/>
      <point x="50" y="64"/>
      <point x="50" y="93" type="qcurve" smooth="yes"/>
      <point x="50" y="445" type="line" smooth="yes"/>
      <point x="50" y="485"/>
      <point x="90" y="485" type="qcurve" smooth="yes"/>
      <point x="101" y="485" type="line" smooth="yes"/>
      <point x="141" y="485"/>
      <point x="141" y="445" type="qcurve" smooth="yes"/>
      <point x="141" y="122" type="line" smooth="yes"/>
      <point x="141" y="82"/>
      <point x="181" y="82" type="qcurve" smooth="yes"/>
      <point x="221" y="82"/>
      <point x="221" y="122" type="qcurve" smooth="yes"/>
      <point x="221" y="445" type="line" smooth="yes"/>
      <point x="221" y="485"/>
      <point x="261" y="485" type="qcurve" smooth="yes"/>
      <point x="273" y="485" type="line" smooth="yes"/>
      <point x="313" y="485"/>
      <point x="313" y="445" type="qcurve" smooth="yes"/>
      <point x="313" y="122" type="line" smooth="yes"/>
      <point x="313" y="82"/>
      <point x="353" y="82" type="qcurve" smooth="yes"/>
      <point x="356" y="82" type="line" smooth="yes"/>
      <point x="396" y="82"/>
      <point x="396" y="122" type="qcurve" smooth="yes"/>
      <point x="396" y="445" type="line" smooth="yes"/>
      <point x="396" y="485"/>
      <point x="436" y="485" type="qcurve" smooth="yes"/>
      <point x="447" y="485" type="line" smooth="yes"/>
      <point x="487" y="485"/>
      <point x="487" y="445" type="qcurve" smooth="yes"/>
      <point x="487" y="93" type="line" smooth="yes"/>
      <point x="487" y="64"/>
      <point x="467" y="43" type="qcurve" smooth="yes"/>
      <point x="435" y="11" type="line" smooth="yes"/>
      <point x="415" y="-9"/>
      <point x="386" y="-9" type="qcurve" smooth="yes"/>
      <point x="353" y="-9" type="line" smooth="yes"/>
      <point x="313" y="-9"/>
      <point x="313" y="-49" type="qcurve" smooth="yes"/>
      <point x="313" y="-174" type="line" smooth="yes"/>
      <point x="313" y="-214"/>
      <point x="273" y="-214" type="qcurve" smooth="yes"/>
      <point x="261" y="-214" type="line" smooth="yes"/>
      <point x="221" y="-214"/>
    </contour>
  </outline>
</glyph>
<glyph name="Iocyr" format="2">
  <advance width="485"/>
  <unicode hex="0401"/>
  <outline>
    <contour>
      <point x="102" y="14" type="qcurve" smooth="yes"/>
      <point x="70" y="46" type="line" smooth="yes"/>
      <point x="50" y="66"/>
      <point x="50" y="95" type="qcurve" smooth="yes"/>
      <point x="50" y="671" type="line" smooth="yes"/>
      <point x="50" y="711"/>
      <point x="90" y="711" type="qcurve" smooth="yes"/>
      <point x="405" y="711" type="line" smooth="yes"/>
      <point x="445" y="711"/>
      <point x="445" y="671" type="qcurve" smooth="yes"/>
      <point x="445" y="660" type="line" smooth="yes"/>
      <point x="445" y="620"/>
      <point x="405" y="620" type="qcurve" smooth="yes"/>
      <point x="180" y="620" type="line" smooth="yes"/>
      <point x="140" y="620"/>
      <point x="140" y="580" type="qcurve" smooth="yes"/>
      <point x="140" y="446" type="line" smooth="yes"/>
      <point x="140" y="406"/>
      <point x="180" y="406" type="qcurve" smooth="yes"/>
      <point x="405" y="406" type="line" smooth="yes"/>
      <point x="445" y="406"/>
      <point x="445" y="366" type="qcurve" smooth="yes"/>
      <point x="445" y="355" type="line" smooth="yes"/>
      <point x="445" y="315"/>
      <point x="405" y="315" type="qcurve" smooth="yes"/>
      <point x="180" y="315" type="line" smooth="yes"/>
      <point x="140" y="315"/>
      <point x="140" y="275" type="qcurve" smooth="yes"/>
      <point x="140" y="124" type="line" smooth="yes"/>
      <point x="140" y="84"/>
      <point x="180" y="84" type="qcurve" smooth="yes"/>
      <point x="405" y="84" type="line" smooth="yes"/>
      <point x="445" y="84"/>
      <point x="445" y="44" type="qcurve" smooth="yes"/>
      <point x="445" y="33" type="line" smooth="yes"/>
      <point x="445" y="-7"/>
      <point x="405" y="-7" type="qcurve" smooth="yes"/>
      <point x="151" y="-7" type="line" smooth="yes"/>
      <point x="123" y="-7"/>
    </contour>
    <contour>
      <point x="167" y="785" type="qcurve" smooth="yes"/>
      <point x="144" y="785"/>
      <point x="117" y="815"/>
      <point x="117" y="835" type="qcurve" smooth="yes"/>
      <point x="117" y="855"/>
      <point x="146" y="884"/>
      <point x="167" y="884" type="qcurve" smooth="yes"/>
      <point x="189" y="884"/>
      <point x="217" y="853"/>
      <point x="217" y="835" type="qcurve" smooth="yes"/>
      <point x="217" y="816"/>
      <point x="188" y="785"/>
    </contour>
    <contour>
      <point x="330" y="785" type="qcurve" smooth="yes"/>
      <point x="308" y="785"/>
      <point x="281" y="816"/>
      <point x="281" y="835" type="qcurve" smooth="yes"/>
      <point x="281" y="855"/>
      <point x="309" y="884"/>
      <point x="330" y="884" type="qcurve" smooth="yes"/>
      <point x="352" y="884"/>
      <point x="380" y="853"/>
      <point x="380" y="835" type="qcurve" smooth="yes"/>
      <point x="380" y="816"/>
      <point x="351" y="785"/>
    </contour>
  </outline>
</glyph>
<glyph name="Gecyr" format="2">
  <advance width="450"/>
  <unicode hex="0413"/>
  <outline>
    <contour>
      <point x="90" y="-9" type="line" smooth="yes"/>
      <point x="50" y="-9"/>
      <point x="50" y="31" type="qcurve" smooth="yes"/>
      <point x="50" y="669" type="line" smooth="yes"/>
      <point x="50" y="709"/>
      <point x="90" y="709" type="qcurve" smooth="yes"/>
      <point x="390" y="709" type="line" smooth="yes"/>
      <point x="430" y="709"/>
      <point x="430" y="669" type="qcurve" smooth="yes"/>
      <point x="430" y="658" type="line" smooth="yes"/>
      <point x="430" y="618"/>
      <point x="390" y="618" type="qcurve" smooth="yes"/>
      <point x="181" y="618" type="line" smooth="yes"/>
      <point x="141" y="618"/>
      <point x="141" y="578" type="qcurve" smooth="yes"/>
      <point x="141" y="31" type="line" smooth="yes"/>
      <point x="141" y="-9"/>
      <point x="101" y="-9" type="qcurve" smooth="yes"/>
    </contour>
  </outline>
</glyph>
<glyph name="Decyr" format="2">
  <advance width="676"/>
  <unicode hex="0414"/>
  <outline>
    <contour>
      <point x="30" y="-97" type="qcurve" smooth="yes"/>
      <point x="30" y="42" type="line" smooth="yes"/>
      <point x="30" y="82"/>
      <point x="68" y="82" type="qcurve" smooth="yes"/>
      <point x="105" y="82"/>
      <point x="131" y="108" type="qcurve" smooth="yes"/>
      <point x="150" y="127" type="line" smooth="yes"/>
      <point x="178" y="155"/>
      <point x="178" y="195" type="qcurve" smooth="yes"/>
      <point x="178" y="669" type="line" smooth="yes"/>
      <point x="178" y="709"/>
      <point x="218" y="709" type="qcurve" smooth="yes"/>
      <point x="536" y="709" type="line" smooth="yes"/>
      <point x="576" y="709"/>
      <point x="576" y="669" type="qcurve" smooth="yes"/>
      <point x="576" y="122" type="line" smooth="yes"/>
      <point x="576" y="82"/>
      <point x="611" y="82" type="qcurve" smooth="yes"/>
      <point x="646" y="82"/>
      <point x="646" y="42" type="qcurve" smooth="yes"/>
      <point x="646" y="-97" type="line" smooth="yes"/>
      <point x="646" y="-137"/>
      <point x="606" y="-137" type="qcurve" smooth="yes"/>
      <point x="595" y="-137" type="line" smooth="yes"/>
      <point x="555" y="-137"/>
      <point x="555" y="-97" type="qcurve" smooth="yes"/>
      <point x="555" y="-49" type="line" smooth="yes"/>
      <point x="555" y="-9"/>
      <point x="515" y="-9" type="qcurve" smooth="yes"/>
      <point x="161" y="-9" type="line" smooth="yes"/>
      <point x="121" y="-9"/>
      <point x="121" y="-49" type="qcurve" smooth="yes"/>
      <point x="121" y="-97" type="line" smooth="yes"/>
      <point x="121" y="-137"/>
      <point x="81" y="-137" type="qcurve" smooth="yes"/>
      <point x="70" y="-137" type="line" smooth="yes"/>
      <point x="30" y="-137"/>
    </contour>
    <contour>
      <point x="238" y="91" type="qcurve" smooth="yes"/>
      <point x="238" y="82"/>
      <point x="256" y="82" type="qcurve" smooth="yes"/>
      <point x="445" y="82" type="line" smooth="yes"/>
      <point x="485" y="82"/>
      <point x="485" y="122" type="qcurve" smooth="yes"/>
      <point x="485" y="578" type="line" smooth="yes"/>
      <point x="485" y="618"/>
      <point x="445" y="618" type="qcurve" smooth="yes"/>
      <point x="309" y="618" type="line" smooth="yes"/>
      <point x="269" y="618"/>
      <point x="269" y="578" type="qcurve" smooth="yes"/>
      <point x="269" y="159" type="line" smooth="yes"/>
      <point x="269" y="145"/>
      <point x="257" y="115"/>
      <point x="247" y="105" type="qcurve" smooth="yes"/>
      <point x="245" y="103"/>
      <point x="238" y="95"/>
    </contour>
  </outline>
</glyph>
<glyph name="Iecyr" format="2">
  <advance width="485"/>
  <unicode hex="0415"/>
  <outline>
    <contour>
      <point x="102" y="14" type="qcurve" smooth="yes"/>
      <point x="70" y="46" type="line" smooth="yes"/>
      <point x="50" y="66"/>
      <point x="50" y="95" type="qcurve" smooth="yes"/>
      <point x="50" y="671" type="line" smooth="yes"/>
      <point x="50" y="711"/>
      <point x="90" y="711" type="qcurve" smooth="yes"/>
      <point x="405" y="711" type="line" smooth="yes"/>
      <point x="445" y="711"/>
      <point x="445" y="671" type="qcurve" smooth="yes"/>
      <point x="445" y="660" type="line" smooth="yes"/>
      <point x="445" y="620"/>
      <point x="405" y="620" type="qcurve" smooth="yes"/>
      <point x="180" y="620" type="line" smooth="yes"/>
      <point x="140" y="620"/>
      <point x="140" y="580" type="qcurve" smooth="yes"/>
      <point x="140" y="446" type="line" smooth="yes"/>
      <point x="140" y="406"/>
      <point x="180" y="406" type="qcurve" smooth="yes"/>
      <point x="405" y="406" type="line" smooth="yes"/>
      <point x="445" y="406"/>
      <point x="445" y="366" type="qcurve" smooth="yes"/>
      <point x="445" y="355" type="line" smooth="yes"/>
      <point x="445" y="315"/>
      <point x="405" y="315" type="qcurve" smooth="yes"/>
      <point x="180" y="315" type="line" smooth="yes"/>
      <point x="140" y="315"/>
      <point x="140" y="275" type="qcurve" smooth="yes"/>
      <point x="140" y="124" type="line" smooth="yes"/>
      <point x="140" y="84"/>
      <point x="180" y="84" type="qcurve" smooth="yes"/>
      <point x="405" y="84" type="line" smooth="yes"/>
      <point x="445" y="84"/>
      <point x="445" y="44" type="qcurve" smooth="yes"/>
      <point x="445" y="33" type="line" smooth="yes"/>
      <point x="445" y="-7"/>
      <point x="405" y="-7" type="qcurve" smooth="yes"/>
      <point x="151" y="-7" type="line" smooth="yes"/>
      <point x="123" y="-7"/>
    </contour>
  </outline>
</glyph>
<glyph name="Zecyr" format="2">
  <advance width="455"/>
  <unicode hex="0417"/>
  <outline>
    <contour>
      <point x="80" y="-9" type="line" smooth="yes"/>
      <point x="40" y="-9"/>
      <point x="40" y="31" type="qcurve" smooth="yes"/>
      <point x="40" y="41" type="line" smooth="yes"/>
      <point x="40" y="81"/>
      <point x="80" y="81" type="qcurve" smooth="yes"/>
      <point x="275" y="81" type="line" smooth="yes"/>
      <point x="315" y="81"/>
      <point x="315" y="121" type="qcurve" smooth="yes"/>
      <point x="315" y="263" type="line" smooth="yes"/>
      <point x="315" y="303"/>
      <point x="275" y="303" type="qcurve" smooth="yes"/>
      <point x="89" y="303" type="line" smooth="yes"/>
      <point x="49" y="303"/>
      <point x="49" y="343" type="qcurve" smooth="yes"/>
      <point x="49" y="354" type="line" smooth="yes"/>
      <point x="49" y="394"/>
      <point x="89" y="394" type="qcurve" smooth="yes"/>
      <point x="275" y="394" type="line" smooth="yes"/>
      <point x="315" y="394"/>
      <point x="315" y="434" type="qcurve" smooth="yes"/>
      <point x="315" y="580" type="line" smooth="yes"/>
      <point x="315" y="620"/>
      <point x="275" y="620" type="qcurve" smooth="yes"/>
      <point x="80" y="620" type="line" smooth="yes"/>
      <point x="40" y="620"/>
      <point x="40" y="660" type="qcurve" smooth="yes"/>
      <point x="40" y="671" type="line" smooth="yes"/>
      <point x="40" y="711"/>
      <point x="80" y="711" type="qcurve" smooth="yes"/>
      <point x="304" y="711" type="line" smooth="yes"/>
      <point x="333" y="711"/>
      <point x="353" y="691" type="qcurve" smooth="yes"/>
      <point x="385" y="659" type="line" smooth="yes"/>
      <point x="405" y="639"/>
      <point x="405" y="610" type="qcurve" smooth="yes"/>
      <point x="405" y="423" type="line" smooth="yes"/>
      <point x="405" y="394"/>
      <point x="385" y="373" type="qcurve" smooth="yes"/>
      <point x="373" y="361"/>
      <point x="373" y="348" type="qcurve" smooth="yes"/>
      <point x="373" y="336"/>
      <point x="383" y="326" type="qcurve" smooth="yes"/>
      <point x="385" y="324" type="line" smooth="yes"/>
      <point x="405" y="304"/>
      <point x="405" y="274" type="qcurve" smooth="yes"/>
      <point x="405" y="92" type="line" smooth="yes"/>
      <point x="405" y="63"/>
      <point x="385" y="43" type="qcurve" smooth="yes"/>
      <point x="353" y="11" type="line" smooth="yes"/>
      <point x="333" y="-9"/>
      <point x="304" y="-9" type="qcurve" smooth="yes"/>
    </contour>
  </outline>
</glyph>
<glyph name="Efcyr" format="2">
  <advance width="627"/>
  <unicode hex="0424"/>
  <outline>
    <contour>
      <point x="198" y="0" type="qcurve" smooth="yes"/>
      <point x="198" y="11" type="line" smooth="yes"/>
      <point x="198" y="30"/>
      <point x="216" y="51"/>
      <point x="233" y="51" type="qcurve" smooth="yes"/>
      <point x="249" y="51"/>
      <point x="268" y="71"/>
      <point x="268" y="87" type="qcurve" smooth="yes"/>
      <point x="268" y="124"/>
      <point x="231" y="124" type="qcurve" smooth="yes"/>
      <point x="152" y="124" type="line" smooth="yes"/>
      <point x="123" y="124"/>
      <point x="103" y="144" type="qcurve" smooth="yes"/>
      <point x="70" y="177" type="line" smooth="yes"/>
      <point x="50" y="197"/>
      <point x="50" y="226" type="qcurve" smooth="yes"/>
      <point x="50" y="474" type="line"/>
      <point x="49" y="503"/>
      <point x="70" y="524" type="qcurve" smooth="yes"/>
      <point x="102" y="556" type="line" smooth="yes"/>
      <point x="122" y="576"/>
      <point x="151" y="576" type="qcurve" smooth="yes"/>
      <point x="231" y="576" type="line" smooth="yes"/>
      <point x="268" y="576"/>
      <point x="268" y="613" type="qcurve" smooth="yes"/>
      <point x="268" y="630"/>
      <point x="249" y="649"/>
      <point x="233" y="649" type="qcurve" smooth="yes"/>
      <point x="216" y="649"/>
      <point x="198" y="670"/>
      <point x="198" y="689" type="qcurve" smooth="yes"/>
      <point x="198" y="700" type="line" smooth="yes"/>
      <point x="198" y="740"/>
      <point x="238" y="740" type="qcurve" smooth="yes"/>
      <point x="390" y="740" type="line" smooth="yes"/>
      <point x="430" y="740"/>
      <point x="430" y="700" type="qcurve" smooth="yes"/>
      <point x="430" y="689" type="line" smooth="yes"/>
      <point x="430" y="649"/>
      <point x="395" y="649" type="qcurve" smooth="yes"/>
      <point x="380" y="649"/>
      <point x="359" y="630"/>
      <point x="359" y="613" type="qcurve" smooth="yes"/>
      <point x="359" y="576"/>
      <point x="396" y="576" type="qcurve" smooth="yes"/>
      <point x="476" y="576" type="line" smooth="yes"/>
      <point x="504" y="576"/>
      <point x="525" y="555" type="qcurve" smooth="yes"/>
      <point x="557" y="523" type="line" smooth="yes"/>
      <point x="577" y="503"/>
      <point x="577" y="474" type="qcurve" smooth="yes"/>
      <point x="577" y="226" type="line"/>
      <point x="578" y="197"/>
      <point x="557" y="176" type="qcurve" smooth="yes"/>
      <point x="525" y="144" type="line" smooth="yes"/>
      <point x="505" y="124"/>
      <point x="476" y="124" type="qcurve" smooth="yes"/>
      <point x="396" y="124" type="line" smooth="yes"/>
      <point x="359" y="124"/>
      <point x="359" y="87" type="qcurve" smooth="yes"/>
      <point x="359" y="71"/>
      <point x="380" y="51"/>
      <point x="395" y="51" type="qcurve" smooth="yes"/>
      <point x="412" y="51"/>
      <point x="430" y="30"/>
      <point x="430" y="11" type="qcurve" smooth="yes"/>
      <point x="430" y="0" type="line" smooth="yes"/>
      <point x="430" y="-40"/>
      <point x="390" y="-40" type="qcurve" smooth="yes"/>
      <point x="238" y="-40" type="line" smooth="yes"/>
      <point x="198" y="-40"/>
    </contour>
    <contour>
      <point x="141" y="250" type="line" smooth="yes"/>
      <point x="141" y="210"/>
      <point x="181" y="210" type="qcurve" smooth="yes"/>
      <point x="231" y="210" type="line" smooth="yes"/>
      <point x="268" y="210"/>
      <point x="268" y="247" type="qcurve" smooth="yes"/>
      <point x="268" y="452" type="line" smooth="yes"/>
      <point x="268" y="489"/>
      <point x="231" y="489" type="qcurve" smooth="yes"/>
      <point x="181" y="489" type="line" smooth="yes"/>
      <point x="141" y="489"/>
      <point x="141" y="449" type="qcurve" smooth="yes"/>
    </contour>
    <contour>
      <point x="359" y="247" type="line" smooth="yes"/>
      <point x="359" y="210"/>
      <point x="396" y="210" type="qcurve" smooth="yes"/>
      <point x="446" y="210" type="line" smooth="yes"/>
      <point x="486" y="210"/>
      <point x="486" y="250" type="qcurve" smooth="yes"/>
      <point x="486" y="449" type="line" smooth="yes"/>
      <point x="486" y="489"/>
      <point x="446" y="489" type="qcurve" smooth="yes"/>
      <point x="396" y="489" type="line" smooth="yes"/>
      <point x="359" y="489"/>
      <point x="359" y="452" type="qcurve" smooth="yes"/>
    </contour>
  </outline>
</glyph>
<glyph name="Shchacyr" format="2">
  <advance width="818"/>
  <unicode hex="0429"/>
  <outline>
    <contour>
      <point x="90" y="-9" type="line" smooth="yes"/>
      <point x="50" y="-9"/>
      <point x="50" y="31" type="qcurve" smooth="yes"/>
      <point x="50" y="669" type="line" smooth="yes"/>
      <point x="50" y="709"/>
      <point x="90" y="709" type="qcurve" smooth="yes"/>
      <point x="101" y="709" type="line" smooth="yes"/>
      <point x="141" y="709"/>
      <point x="141" y="669" type="qcurve" smooth="yes"/>
      <point x="141" y="122" type="line" smooth="yes"/>
      <point x="141" y="82"/>
      <point x="181" y="82" type="qcurve" smooth="yes"/>
      <point x="287" y="82" type="line" smooth="yes"/>
      <point x="327" y="82"/>
      <point x="327" y="122" type="qcurve" smooth="yes"/>
      <point x="327" y="669" type="line" smooth="yes"/>
      <point x="327" y="709"/>
      <point x="367" y="709" type="qcurve" smooth="yes"/>
      <point x="378" y="709" type="line" smooth="yes"/>
      <point x="418" y="709"/>
      <point x="418" y="669" type="qcurve" smooth="yes"/>
      <point x="418" y="122" type="line" smooth="yes"/>
      <point x="418" y="82"/>
      <point x="458" y="82" type="qcurve" smooth="yes"/>
      <point x="566" y="82" type="line" smooth="yes"/>
      <point x="606" y="82"/>
      <point x="606" y="122" type="qcurve" smooth="yes"/>
      <point x="606" y="669" type="line" smooth="yes"/>
      <point x="606" y="709"/>
      <point x="646" y="709" type="qcurve" smooth="yes"/>
      <point x="657" y="709" type="line" smooth="yes"/>
      <point x="697" y="709"/>
      <point x="697" y="669" type="qcurve" smooth="yes"/>
      <point x="697" y="122" type="line" smooth="yes"/>
      <point x="697" y="82"/>
      <point x="737" y="82" type="qcurve" smooth="yes"/>
      <point x="748" y="82" type="line" smooth="yes"/>
      <point x="788" y="82"/>
      <point x="788" y="42" type="qcurve" smooth="yes"/>
      <point x="788" y="-97" type="line" smooth="yes"/>
      <point x="788" y="-137"/>
      <point x="748" y="-137" type="qcurve" smooth="yes"/>
      <point x="737" y="-137" type="line" smooth="yes"/>
      <point x="697" y="-137"/>
      <point x="697" y="-97" type="qcurve" smooth="yes"/>
      <point x="697" y="-49" type="line" smooth="yes"/>
      <point x="697" y="-9"/>
      <point x="657" y="-9" type="qcurve" smooth="yes"/>
    </contour>
  </outline>
</glyph>
